SplineFontDB: 3.2
FontName: Etruscan-Translitt
FullName: Etruscan Translitt
FamilyName: Etruscan
Weight: Book
Copyright: (c) 2018 Microsoft Corporation. All Rights Reserved.
Version: 1.0
ItalicAngle: 0
UnderlinePosition: -237
UnderlineWidth: 119
Ascent: 1638
Descent: 410
InvalidEm: 0
sfntRevision: 0x00010000
LayerCount: 2
Layer: 0 1 "Arri+AOgA-re" 1
Layer: 1 1 "Avant" 0
XUID: [1021 16 -472995037 25095]
StyleMap: 0x0040
FSType: 8
OS2Version: 3
OS2_WeightWidthSlopeOnly: 0
OS2_UseTypoMetrics: 0
CreationTime: 869239855
ModificationTime: 1750754950
PfmFamily: 17
TTFWeight: 400
TTFWidth: 5
LineGap: 0
VLineGap: 0
Panose: 2 11 5 2 4 2 4 2 2 3
OS2TypoAscent: 1491
OS2TypoAOffset: 0
OS2TypoDescent: -431
OS2TypoDOffset: 0
OS2TypoLinegap: 269
OS2WinAscent: 2210
OS2WinAOffset: 0
OS2WinDescent: 514
OS2WinDOffset: 0
HheadAscent: 2210
HheadAOffset: 0
HheadDescent: -514
HheadDOffset: 0
OS2SubXSize: 1434
OS2SubYSize: 1331
OS2SubXOff: 0
OS2SubYOff: 283
OS2SupXSize: 1434
OS2SupYSize: 1331
OS2SupXOff: 0
OS2SupYOff: 977
OS2StrikeYSize: 102
OS2StrikeYPos: 530
OS2CapHeight: 1434
OS2XHeight: 1024
OS2FamilyClass: 2053
OS2Vendor: 'MS  '
OS2CodePages: 00000001.00000000
OS2UnicodeRanges: 80000003.02000000.00003000.00000000
Lookup: 1 0 0 "'ss20' Jeu stylistique 20 dans Canadien syllabique lookup 0" { "sous-table 'ss20' Jeu stylistique 20 dans Canadien syllabique lookup 0"  } ['locl' ('cans' <'CRR ' > ) 'ss20' ('DFLT' <'dflt' > 'cans' <'CRR ' 'dflt' > ) ]
Lookup: 6 0 0 "'kern' Cr+AOkA-nage horizontal dans Canadien syllabique lookup 1" { "sous-table 'kern' Cr+AOkA-nage horizontal dans Canadien syllabique lookup 1"  } ['kern' ('cans' <'dflt' > ) 'rclt' ('DFLT' <'dflt' > 'cans' <'CRR ' 'dflt' > ) ]
Lookup: 1 0 0 "Substitution simple lookups2" { "sous-table Substitution simple lookups2"  } []
Lookup: 264 0 0 "'kern' Cr+AOkA-nage horizontal dans 'DFLT' lookup 0" { "sous-table 'kern' Cr+AOkA-nage horizontal dans 'DFLT' lookup 0"  } ['kern' ('DFLT' <'dflt' > 'Osge' <'dflt' > ) ]

StartChar: .notdef
Encoding: 1114112 -1 0
Width: 1322
GlyphClass: 2
Flags: W
LayerCount: 2
Fore
SplineSet
166 0 m 1,0,-1
 166 1398 l 1,1,-1
 1156 1398 l 1,2,-1
 1156 0 l 1,3,-1
 166 0 l 1,0,-1
314 148 m 1,4,-1
 1008 148 l 1,5,-1
 1008 1250 l 1,6,-1
 314 1250 l 1,7,-1
 314 148 l 1,4,-1
EndSplineSet
EndChar

StartChar: exclam
Encoding: 33 33 4
Width: 582
GlyphClass: 2
Flags: W
LayerCount: 2
Fore
SplineSet
375 1434 m 1,0,-1
 356 404 l 1,1,-1
 221 404 l 1,2,-1
 203 1434 l 1,3,-1
 375 1434 l 1,0,-1
291 -18 m 0,4,5
 245 -18 245 -18 212.5 14 c 128,-1,6
 180 46 180 46 180 92 c 256,7,8
 180 138 180 138 212.5 170.5 c 128,-1,9
 245 203 245 203 291 203 c 0,10,11
 336 203 336 203 369 170.5 c 128,-1,12
 402 138 402 138 402 92 c 256,13,14
 402 46 402 46 369 14 c 128,-1,15
 336 -18 336 -18 291 -18 c 0,4,5
EndSplineSet
EndChar

StartChar: quotedbl
Encoding: 34 34 5
Width: 803
GlyphClass: 2
Flags: W
LayerCount: 2
Fore
SplineSet
323 1434 m 1,0,-1
 293 987 l 1,1,-1
 178 987 l 1,2,-1
 148 1434 l 1,3,-1
 323 1434 l 1,0,-1
655 1434 m 1,4,-1
 625 987 l 1,5,-1
 510 987 l 1,6,-1
 480 1434 l 1,7,-1
 655 1434 l 1,4,-1
EndSplineSet
EndChar

StartChar: numbersign
Encoding: 35 35 6
Width: 1210
GlyphClass: 2
Flags: W
LayerCount: 2
Fore
SplineSet
1166 1032 m 1,0,-1
 1143 926 l 1,1,-1
 882 926 l 1,2,-1
 819 626 l 1,3,-1
 1100 626 l 1,4,-1
 1073 520 l 1,5,-1
 798 520 l 1,6,-1
 710 123 l 1,7,-1
 584 123 l 1,8,-1
 670 520 l 1,9,-1
 420 520 l 1,10,-1
 336 123 l 1,11,-1
 211 123 l 1,12,-1
 295 520 l 1,13,-1
 33 520 l 1,14,-1
 53 626 l 1,15,-1
 318 626 l 1,16,-1
 379 926 l 1,17,-1
 102 926 l 1,18,-1
 123 1032 l 1,19,-1
 400 1032 l 1,20,-1
 484 1434 l 1,21,-1
 610 1434 l 1,22,-1
 526 1032 l 1,23,-1
 778 1032 l 1,24,-1
 864 1434 l 1,25,-1
 987 1434 l 1,26,-1
 903 1032 l 1,27,-1
 1166 1032 l 1,0,-1
758 926 m 1,28,-1
 506 926 l 1,29,-1
 440 626 l 1,30,-1
 694 626 l 1,31,-1
 758 926 l 1,28,-1
EndSplineSet
EndChar

StartChar: dollar
Encoding: 36 36 7
Width: 1104
GlyphClass: 2
Flags: W
LayerCount: 2
Fore
SplineSet
616 8 m 1,0,-1
 616 -209 l 1,1,-1
 512 -209 l 1,2,-1
 512 0 l 1,3,4
 299 0 299 0 166 86 c 1,5,-1
 166 260 l 1,6,7
 224 209 224 209 324.5 174.5 c 128,-1,8
 425 140 425 140 512 140 c 1,9,-1
 512 652 l 1,10,11
 292 758 292 758 227 847.5 c 128,-1,12
 162 937 162 937 162 1059 c 0,13,14
 162 1204 162 1204 261 1309.5 c 128,-1,15
 360 1415 360 1415 512 1436 c 1,16,-1
 512 1616 l 1,17,-1
 616 1616 l 1,18,-1
 616 1440 l 1,19,20
 812 1434 812 1434 887 1384 c 1,21,-1
 887 1214 l 1,22,23
 785 1294 785 1294 616 1300 c 1,24,-1
 616 772 l 1,25,26
 824 673 824 673 900.5 580.5 c 128,-1,27
 977 488 977 488 977 370 c 0,28,29
 977 228 977 228 881.5 131.5 c 128,-1,30
 786 35 786 35 616 8 c 1,0,-1
512 828 m 1,31,-1
 512 1294 l 1,32,33
 428 1277 428 1277 379 1219.5 c 128,-1,34
 330 1162 330 1162 330 1080 c 0,35,36
 330 994 330 994 370 939 c 128,-1,37
 410 884 410 884 512 828 c 1,31,-1
616 600 m 1,38,-1
 616 148 l 1,39,40
 809 190 809 190 809 356 c 0,41,42
 809 494 809 494 616 600 c 1,38,-1
EndSplineSet
EndChar

StartChar: percent
Encoding: 37 37 8
Width: 1676
GlyphClass: 2
Flags: W
LayerCount: 2
Fore
SplineSet
404 715 m 0,0,1
 256 715 256 715 168 812.5 c 128,-1,2
 80 910 80 910 80 1073 c 0,3,4
 80 1251 80 1251 173 1353.5 c 128,-1,5
 266 1456 266 1456 424 1456 c 0,6,7
 577 1456 577 1456 661.5 1361 c 128,-1,8
 746 1266 746 1266 746 1094 c 256,9,10
 746 922 746 922 651.5 818.5 c 128,-1,11
 557 715 557 715 404 715 c 0,0,1
418 1346 m 0,12,13
 323 1346 323 1346 268 1275.5 c 128,-1,14
 213 1205 213 1205 213 1082 c 0,15,16
 213 961 213 961 267 893.5 c 128,-1,17
 321 826 321 826 414 826 c 0,18,19
 508 826 508 826 561 896 c 128,-1,20
 614 966 614 966 614 1090 c 0,21,22
 614 1211 614 1211 561.5 1278.5 c 128,-1,23
 509 1346 509 1346 418 1346 c 0,12,13
1364 1434 m 1,24,-1
 444 -10 l 1,25,-1
 301 -10 l 1,26,-1
 1220 1434 l 1,27,-1
 1364 1434 l 1,24,-1
1258 -22 m 0,28,29
 1110 -22 1110 -22 1022 76 c 128,-1,30
 934 174 934 174 934 336 c 0,31,32
 934 514 934 514 1028 617.5 c 128,-1,33
 1122 721 1122 721 1278 721 c 0,34,35
 1430 721 1430 721 1515 625 c 128,-1,36
 1600 529 1600 529 1600 356 c 0,37,38
 1600 185 1600 185 1505.5 81.5 c 128,-1,39
 1411 -22 1411 -22 1258 -22 c 0,28,29
1272 608 m 0,40,41
 1176 608 1176 608 1121.5 538 c 128,-1,42
 1067 468 1067 468 1067 344 c 0,43,44
 1067 225 1067 225 1121 157.5 c 128,-1,45
 1175 90 1175 90 1268 90 c 0,46,47
 1362 90 1362 90 1415 160.5 c 128,-1,48
 1468 231 1468 231 1468 354 c 0,49,50
 1468 476 1468 476 1415.5 542 c 128,-1,51
 1363 608 1363 608 1272 608 c 0,40,41
EndSplineSet
EndChar

StartChar: ampersand
Encoding: 38 38 9
Width: 1639
GlyphClass: 2
Flags: W
LayerCount: 2
Fore
SplineSet
1445 -23 m 0,0,1
 1388 -23 1388 -23 1344.5 -7.5 c 128,-1,2
 1301 8 1301 8 1264 36.5 c 128,-1,3
 1227 65 1227 65 1192.5 106 c 128,-1,4
 1158 147 1158 147 1120 199 c 1,5,6
 1080 156 1080 156 1027.5 116 c 128,-1,7
 975 76 975 76 911 45 c 128,-1,8
 847 14 847 14 771 -4.5 c 128,-1,9
 695 -23 695 -23 606 -23 c 0,10,11
 498 -23 498 -23 408 4 c 128,-1,12
 318 31 318 31 254 83.5 c 128,-1,13
 190 136 190 136 154.5 213 c 128,-1,14
 119 290 119 290 119 390 c 0,15,16
 119 543 119 543 206 651.5 c 128,-1,17
 293 760 293 760 452 829 c 1,18,19
 422 851 422 851 392 880.5 c 128,-1,20
 362 910 362 910 338.5 947.5 c 128,-1,21
 315 985 315 985 300.5 1030.5 c 128,-1,22
 286 1076 286 1076 286 1130 c 0,23,24
 286 1209 286 1209 314.5 1270 c 128,-1,25
 343 1331 343 1331 393 1373 c 128,-1,26
 443 1415 443 1415 511 1436.5 c 128,-1,27
 579 1458 579 1458 658 1458 c 0,28,29
 736 1458 736 1458 800.5 1436.5 c 128,-1,30
 865 1415 865 1415 911.5 1375 c 128,-1,31
 958 1335 958 1335 984 1279 c 128,-1,32
 1010 1223 1010 1223 1010 1154 c 0,33,34
 1010 1034 1010 1034 941.5 954.5 c 128,-1,35
 873 875 873 875 736 819 c 1,36,37
 805 792 805 792 861 753 c 128,-1,38
 917 714 917 714 964.5 666 c 128,-1,39
 1012 618 1012 618 1053 563 c 128,-1,40
 1094 508 1094 508 1134 449 c 1,41,42
 1215 562 1215 562 1256 698 c 128,-1,43
 1297 834 1297 834 1297 983 c 0,44,45
 1297 1021 1297 1021 1292.5 1054.5 c 128,-1,46
 1288 1088 1288 1088 1280 1121 c 1,47,-1
 1439 1121 l 1,48,49
 1447 1088 1447 1088 1448.5 1058.5 c 128,-1,50
 1450 1029 1450 1029 1452 988 c 0,51,52
 1452 897 1452 897 1433 805 c 128,-1,53
 1414 713 1414 713 1382 626.5 c 128,-1,54
 1350 540 1350 540 1307.5 462 c 128,-1,55
 1265 384 1265 384 1218 319 c 1,56,57
 1253 271 1253 271 1282 235.5 c 128,-1,58
 1311 200 1311 200 1340.5 176 c 128,-1,59
 1370 152 1370 152 1401.5 140.5 c 128,-1,60
 1433 129 1433 129 1473 129 c 0,61,62
 1503 129 1503 129 1534 137 c 128,-1,63
 1565 145 1565 145 1598 157 c 1,64,-1
 1598 5 l 1,65,66
 1562 -9 1562 -9 1522.5 -16 c 128,-1,67
 1483 -23 1483 -23 1445 -23 c 0,0,1
606 119 m 0,68,69
 682 119 682 119 746 135.5 c 128,-1,70
 810 152 810 152 864 179.5 c 128,-1,71
 918 207 918 207 962 243.5 c 128,-1,72
 1006 280 1006 280 1042 320 c 1,73,74
 981 415 981 415 929.5 482.5 c 128,-1,75
 878 550 878 550 825.5 599 c 128,-1,76
 773 648 773 648 713.5 683 c 128,-1,77
 654 718 654 718 576 748 c 1,78,79
 513 723 513 723 460 692.5 c 128,-1,80
 407 662 407 662 368.5 620.5 c 128,-1,81
 330 579 330 579 308 524 c 128,-1,82
 286 469 286 469 286 395 c 0,83,84
 286 327 286 327 311 275 c 128,-1,85
 336 223 336 223 379.5 188.5 c 128,-1,86
 423 154 423 154 481 136.5 c 128,-1,87
 539 119 539 119 606 119 c 0,68,69
856 1140 m 0,88,89
 856 1190 856 1190 837.5 1225 c 128,-1,90
 819 1260 819 1260 790.5 1283 c 128,-1,91
 762 1306 762 1306 727 1316.5 c 128,-1,92
 692 1327 692 1327 658 1327 c 0,93,94
 560 1327 560 1327 501.5 1274 c 128,-1,95
 443 1221 443 1221 442 1130 c 0,96,97
 442 1089 442 1089 454.5 1053 c 128,-1,98
 467 1017 467 1017 489.5 986 c 128,-1,99
 512 955 512 955 542 931 c 128,-1,100
 572 907 572 907 606 890 c 1,101,102
 732 934 732 934 794 992.5 c 128,-1,103
 856 1051 856 1051 856 1140 c 0,88,89
EndSplineSet
EndChar

StartChar: quotesingle
Encoding: 39 39 10
Width: 471
GlyphClass: 2
Flags: W
LayerCount: 2
Fore
SplineSet
323 1434 m 1,0,-1
 293 987 l 1,1,-1
 178 987 l 1,2,-1
 148 1434 l 1,3,-1
 323 1434 l 1,0,-1
EndSplineSet
EndChar

StartChar: parenleft
Encoding: 40 40 11
Width: 618
GlyphClass: 2
Flags: W
LayerCount: 2
Fore
SplineSet
596 -326 m 1,0,-1
 450 -326 l 1,1,2
 140 28 140 28 140 547 c 0,3,4
 140 1068 140 1068 450 1434 c 1,5,-1
 598 1434 l 1,6,7
 284 1054 284 1054 284 549 c 0,8,9
 284 48 284 48 596 -326 c 1,0,-1
EndSplineSet
EndChar

StartChar: parenright
Encoding: 41 41 12
Width: 618
GlyphClass: 2
Flags: W
LayerCount: 2
Fore
SplineSet
170 -326 m 1,0,-1
 24 -326 l 1,1,2
 336 48 336 48 336 549 c 0,3,4
 336 1054 336 1054 22 1434 c 1,5,-1
 170 1434 l 1,6,7
 482 1068 482 1068 482 547 c 0,8,9
 482 28 482 28 170 -326 c 1,0,-1
EndSplineSet
EndChar

StartChar: asterisk
Encoding: 42 42 13
Width: 854
GlyphClass: 2
Flags: W
LayerCount: 2
Fore
SplineSet
780 1104 m 1,0,-1
 506 1048 l 1,1,-1
 696 805 l 1,2,-1
 586 729 l 1,3,-1
 430 994 l 1,4,-1
 272 729 l 1,5,-1
 162 805 l 1,6,-1
 352 1048 l 1,7,-1
 76 1104 l 1,8,-1
 121 1229 l 1,9,-1
 383 1130 l 1,10,-1
 360 1434 l 1,11,-1
 498 1434 l 1,12,-1
 475 1130 l 1,13,-1
 738 1229 l 1,14,-1
 780 1104 l 1,0,-1
EndSplineSet
EndChar

StartChar: plus
Encoding: 43 43 14
Width: 1401
GlyphClass: 2
Flags: W
LayerCount: 2
Fore
SplineSet
1172 530 m 1,0,-1
 768 530 l 1,1,-1
 768 127 l 1,2,-1
 635 127 l 1,3,-1
 635 530 l 1,4,-1
 232 530 l 1,5,-1
 232 664 l 1,6,-1
 635 664 l 1,7,-1
 635 1067 l 1,8,-1
 768 1067 l 1,9,-1
 768 664 l 1,10,-1
 1172 664 l 1,11,-1
 1172 530 l 1,0,-1
EndSplineSet
EndChar

StartChar: comma
Encoding: 44 44 15
Width: 444
GlyphClass: 2
Flags: W
LayerCount: 2
Fore
SplineSet
316 228 m 1,0,-1
 156 -264 l 1,1,-1
 39 -264 l 1,2,-1
 156 228 l 1,3,-1
 316 228 l 1,0,-1
EndSplineSet
EndChar

StartChar: hyphen
Encoding: 45 45 16
Width: 819
GlyphClass: 2
Flags: W
LayerCount: 2
Fore
SplineSet
690 506 m 1,0,-1
 144 506 l 1,1,-1
 144 635 l 1,2,-1
 690 635 l 1,3,-1
 690 506 l 1,0,-1
EndSplineSet
EndChar

StartChar: period
Encoding: 46 46 17
Width: 444
GlyphClass: 2
Flags: W
LayerCount: 2
Fore
SplineSet
223 -22 m 0,0,1
 177 -22 177 -22 144.5 11 c 128,-1,2
 112 44 112 44 112 90 c 256,3,4
 112 136 112 136 144.5 169.5 c 128,-1,5
 177 203 177 203 223 203 c 0,6,7
 270 203 270 203 303 169.5 c 128,-1,8
 336 136 336 136 336 90 c 256,9,10
 336 44 336 44 303 11 c 128,-1,11
 270 -22 270 -22 223 -22 c 0,0,1
EndSplineSet
EndChar

StartChar: slash
Encoding: 47 47 18
Width: 798
GlyphClass: 2
Flags: W
LayerCount: 2
Fore
SplineSet
813 1434 m 1,0,-1
 125 -238 l 1,1,-1
 -28 -238 l 1,2,-1
 658 1434 l 1,3,-1
 813 1434 l 1,0,-1
EndSplineSet
EndChar

StartChar: zero
Encoding: 48 48 19
Width: 1104
GlyphClass: 2
Flags: W
LayerCount: 2
Fore
SplineSet
1020 723 m 0,0,1
 1020 543 1020 543 987.5 404 c 128,-1,2
 955 265 955 265 893.5 169.5 c 128,-1,3
 832 74 832 74 742.5 24.5 c 128,-1,4
 653 -25 653 -25 539 -25 c 0,5,6
 431 -25 431 -25 346.5 22.5 c 128,-1,7
 262 70 262 70 204 161 c 128,-1,8
 146 252 146 252 116 384.5 c 128,-1,9
 86 517 86 517 86 688 c 0,10,11
 86 876 86 876 117.5 1020 c 128,-1,12
 149 1164 149 1164 210 1261.5 c 128,-1,13
 271 1359 271 1359 361.5 1408.5 c 128,-1,14
 452 1458 452 1458 569 1458 c 0,15,16
 1020 1458 1020 1458 1020 723 c 0,0,1
852 707 m 0,17,18
 852 1319 852 1319 561 1319 c 0,19,20
 254 1319 254 1319 254 696 c 0,21,22
 254 115 254 115 555 115 c 0,23,24
 852 115 852 115 852 707 c 0,17,18
EndSplineSet
EndChar

StartChar: one
Encoding: 49 49 20
Width: 1104
GlyphClass: 2
Flags: W
LayerCount: 2
Fore
SplineSet
724 0 m 1,0,-1
 560 0 l 1,1,-1
 560 1239 l 1,2,3
 541 1220 541 1220 504.5 1195.5 c 128,-1,4
 468 1171 468 1171 422.5 1147 c 128,-1,5
 377 1123 377 1123 326.5 1102 c 128,-1,6
 276 1081 276 1081 228 1069 c 1,7,-1
 228 1235 l 1,8,9
 282 1250 282 1250 342.5 1275.5 c 128,-1,10
 403 1301 403 1301 461.5 1332.5 c 128,-1,11
 520 1364 520 1364 572 1398.5 c 128,-1,12
 624 1433 624 1433 662 1466 c 1,13,-1
 724 1466 l 1,14,-1
 724 0 l 1,0,-1
EndSplineSet
EndChar

StartChar: two
Encoding: 50 50 21
Width: 1104
GlyphClass: 2
Flags: W
LayerCount: 2
Fore
SplineSet
772 1058 m 0,0,1
 772 1124 772 1124 751.5 1173 c 128,-1,2
 731 1222 731 1222 695.5 1254.5 c 128,-1,3
 660 1287 660 1287 612 1303 c 128,-1,4
 564 1319 564 1319 508 1319 c 0,5,6
 460 1319 460 1319 414 1306 c 128,-1,7
 368 1293 368 1293 324.5 1270 c 128,-1,8
 281 1247 281 1247 240.5 1215 c 128,-1,9
 200 1183 200 1183 165 1144 c 1,10,-1
 165 1320 l 1,11,12
 234 1387 234 1387 319.5 1422.5 c 128,-1,13
 405 1458 405 1458 528 1458 c 0,14,15
 616 1458 616 1458 691 1432.5 c 128,-1,16
 766 1407 766 1407 821 1358 c 128,-1,17
 876 1309 876 1309 907.5 1237 c 128,-1,18
 939 1165 939 1165 939 1072 c 0,19,20
 939 987 939 987 919.5 918 c 128,-1,21
 900 849 900 849 860.5 788 c 128,-1,22
 821 727 821 727 761 671 c 128,-1,23
 701 615 701 615 620 557 c 0,24,25
 519 485 519 485 453.5 434 c 128,-1,26
 388 383 388 383 349.5 338.5 c 128,-1,27
 311 294 311 294 295.5 249.5 c 128,-1,28
 280 205 280 205 280 147 c 1,29,-1
 994 147 l 1,30,-1
 994 0 l 1,31,-1
 109 0 l 1,32,-1
 109 71 l 2,33,34
 109 163 109 163 129 233 c 128,-1,35
 149 303 149 303 195 366 c 128,-1,36
 241 429 241 429 315.5 492 c 128,-1,37
 390 555 390 555 498 634 c 0,38,39
 576 690 576 690 628.5 741 c 128,-1,40
 681 792 681 792 713 843 c 128,-1,41
 745 894 745 894 758.5 946.5 c 128,-1,42
 772 999 772 999 772 1058 c 0,0,1
EndSplineSet
EndChar

StartChar: three
Encoding: 51 51 22
Width: 1104
GlyphClass: 2
Flags: W
LayerCount: 2
Fore
SplineSet
953 406 m 0,0,1
 953 309 953 309 916.5 229.5 c 128,-1,2
 880 150 880 150 813.5 93.5 c 128,-1,3
 747 37 747 37 654 6 c 128,-1,4
 561 -25 561 -25 449 -25 c 0,5,6
 244 -25 244 -25 123 53 c 1,7,-1
 123 229 l 1,8,9
 268 115 268 115 455 115 c 0,10,11
 530 115 530 115 590.5 134 c 128,-1,12
 651 153 651 153 694.5 189 c 128,-1,13
 738 225 738 225 761.5 276 c 128,-1,14
 785 327 785 327 785 391 c 0,15,16
 785 672 785 672 385 672 c 2,17,-1
 266 672 l 1,18,-1
 266 811 l 1,19,-1
 379 811 l 2,20,21
 733 811 733 811 733 1075 c 0,22,23
 733 1319 733 1319 463 1319 c 0,24,25
 311 1319 311 1319 178 1217 c 1,26,-1
 178 1376 l 1,27,28
 315 1458 315 1458 504 1458 c 0,29,30
 594 1458 594 1458 667 1433 c 128,-1,31
 740 1408 740 1408 792 1363 c 128,-1,32
 844 1318 844 1318 872.5 1255 c 128,-1,33
 901 1192 901 1192 901 1116 c 0,34,35
 901 833 901 833 615 752 c 1,36,-1
 615 748 l 1,37,38
 688 740 688 740 750 712.5 c 128,-1,39
 812 685 812 685 857 641 c 128,-1,40
 902 597 902 597 927.5 537.5 c 128,-1,41
 953 478 953 478 953 406 c 0,0,1
EndSplineSet
EndChar

StartChar: four
Encoding: 52 52 23
Width: 1104
GlyphClass: 2
Flags: W
LayerCount: 2
Fore
SplineSet
850 1434 m 1,0,-1
 850 487 l 1,1,-1
 1034 487 l 1,2,-1
 1034 337 l 1,3,-1
 850 337 l 1,4,-1
 850 0 l 1,5,-1
 688 0 l 1,6,-1
 688 337 l 1,7,-1
 14 337 l 1,8,-1
 14 479 l 1,9,10
 108 585 108 585 204 705.5 c 128,-1,11
 300 826 300 826 387.5 950 c 128,-1,12
 475 1074 475 1074 549.5 1197.5 c 128,-1,13
 624 1321 624 1321 675 1434 c 1,14,-1
 850 1434 l 1,0,-1
199 487 m 1,15,-1
 688 487 l 1,16,-1
 688 1189 l 1,17,18
 613 1058 613 1058 546 955 c 128,-1,19
 479 852 479 852 418.5 768 c 128,-1,20
 358 684 358 684 303 616 c 128,-1,21
 248 548 248 548 199 487 c 1,15,-1
EndSplineSet
EndChar

StartChar: five
Encoding: 53 53 24
Width: 1104
GlyphClass: 2
Flags: W
LayerCount: 2
Fore
SplineSet
969 438 m 0,0,1
 969 333 969 333 933 248 c 128,-1,2
 897 163 897 163 830.5 102 c 128,-1,3
 764 41 764 41 670 8 c 128,-1,4
 576 -25 576 -25 461 -25 c 0,5,6
 261 -25 261 -25 164 35 c 1,7,-1
 164 209 l 1,8,9
 310 115 310 115 463 115 c 0,10,11
 541 115 541 115 603.5 138 c 128,-1,12
 666 161 666 161 710 202 c 128,-1,13
 754 243 754 243 777.5 301 c 128,-1,14
 801 359 801 359 801 428 c 0,15,16
 801 568 801 568 707 647.5 c 128,-1,17
 613 727 613 727 434 727 c 0,18,19
 405 727 405 727 373 726 c 128,-1,20
 341 725 341 725 309 723.5 c 128,-1,21
 277 722 277 722 246.5 720 c 128,-1,22
 216 718 216 718 191 715 c 1,23,-1
 240 1434 l 1,24,-1
 903 1434 l 1,25,-1
 903 1286 l 1,26,-1
 382 1286 l 1,27,-1
 353 865 l 1,28,29
 385 867 385 867 421 868.5 c 128,-1,30
 457 870 457 870 485 870 c 0,31,32
 599 870 599 870 689 840 c 128,-1,33
 779 810 779 810 841.5 754.5 c 128,-1,34
 904 699 904 699 936.5 618.5 c 128,-1,35
 969 538 969 538 969 438 c 0,0,1
EndSplineSet
EndChar

StartChar: six
Encoding: 54 54 25
Width: 1104
GlyphClass: 2
Flags: W
LayerCount: 2
Fore
SplineSet
1022 455 m 0,0,1
 1022 350 1022 350 988 262 c 128,-1,2
 954 174 954 174 894 110 c 128,-1,3
 834 46 834 46 751 10.5 c 128,-1,4
 668 -25 668 -25 571 -25 c 0,5,6
 463 -25 463 -25 377.5 20 c 128,-1,7
 292 65 292 65 232.5 149.5 c 128,-1,8
 173 234 173 234 142 356 c 128,-1,9
 111 478 111 478 111 631 c 0,10,11
 111 818 111 818 152.5 970.5 c 128,-1,12
 194 1123 194 1123 270.5 1231.5 c 128,-1,13
 347 1340 347 1340 455 1399 c 128,-1,14
 563 1458 563 1458 696 1458 c 0,15,16
 844 1458 844 1458 934 1417 c 1,17,-1
 934 1262 l 1,18,19
 823 1319 823 1319 700 1319 c 0,20,21
 604 1319 604 1319 527 1276 c 128,-1,22
 450 1233 450 1233 395 1154.5 c 128,-1,23
 340 1076 340 1076 310.5 965 c 128,-1,24
 281 854 281 854 281 718 c 1,25,-1
 285 718 l 1,26,27
 384 897 384 897 612 897 c 0,28,29
 706 897 706 897 781.5 865 c 128,-1,30
 857 833 857 833 910.5 774.5 c 128,-1,31
 964 716 964 716 993 635 c 128,-1,32
 1022 554 1022 554 1022 455 c 0,0,1
854 434 m 0,33,34
 854 509 854 509 835 569 c 128,-1,35
 816 629 816 629 780.5 671 c 128,-1,36
 745 713 745 713 693 735.5 c 128,-1,37
 641 758 641 758 575 758 c 0,38,39
 514 758 514 758 462 735 c 128,-1,40
 410 712 410 712 372 672.5 c 128,-1,41
 334 633 334 633 312.5 580.5 c 128,-1,42
 291 528 291 528 291 469 c 0,43,44
 291 395 291 395 312 330.5 c 128,-1,45
 333 266 333 266 371 218 c 128,-1,46
 409 170 409 170 461.5 142.5 c 128,-1,47
 514 115 514 115 578 115 c 0,48,49
 640 115 640 115 691 138.5 c 128,-1,50
 742 162 742 162 778 204 c 128,-1,51
 814 246 814 246 834 304.5 c 128,-1,52
 854 363 854 363 854 434 c 0,33,34
EndSplineSet
EndChar

StartChar: seven
Encoding: 55 55 26
Width: 1104
GlyphClass: 2
Flags: W
LayerCount: 2
Fore
SplineSet
1010 1339 m 1,0,1
 977 1282 977 1282 930.5 1197 c 128,-1,2
 884 1112 884 1112 832 1006 c 128,-1,3
 780 900 780 900 726 778 c 128,-1,4
 672 656 672 656 625 526 c 128,-1,5
 578 396 578 396 542.5 262.5 c 128,-1,6
 507 129 507 129 491 0 c 1,7,-1
 315 0 l 1,8,9
 333 128 333 128 370.5 261.5 c 128,-1,10
 408 395 408 395 455.5 523.5 c 128,-1,11
 503 652 503 652 556 771 c 128,-1,12
 609 890 609 890 659 990 c 128,-1,13
 709 1090 709 1090 750.5 1166.5 c 128,-1,14
 792 1243 792 1243 817 1286 c 1,15,-1
 98 1286 l 1,16,-1
 98 1434 l 1,17,-1
 1010 1434 l 1,18,-1
 1010 1339 l 1,0,1
EndSplineSet
EndChar

StartChar: eight
Encoding: 56 56 27
Width: 1104
GlyphClass: 2
Flags: W
LayerCount: 2
Fore
SplineSet
90 400 m 0,0,1
 90 457 90 457 108 514.5 c 128,-1,2
 126 572 126 572 159.5 622 c 128,-1,3
 193 672 193 672 242.5 713 c 128,-1,4
 292 754 292 754 355 778 c 1,5,6
 262 830 262 830 207 911.5 c 128,-1,7
 152 993 152 993 152 1092 c 0,8,9
 152 1171 152 1171 182.5 1238 c 128,-1,10
 213 1305 213 1305 267 1354 c 128,-1,11
 321 1403 321 1403 395 1430.5 c 128,-1,12
 469 1458 469 1458 555 1458 c 0,13,14
 642 1458 642 1458 716 1430 c 128,-1,15
 790 1402 790 1402 844 1353 c 128,-1,16
 898 1304 898 1304 928 1237 c 128,-1,17
 958 1170 958 1170 958 1092 c 0,18,19
 958 993 958 993 903 911.5 c 128,-1,20
 848 830 848 830 757 778 c 1,21,22
 819 754 819 754 868 713 c 128,-1,23
 917 672 917 672 950.5 622 c 128,-1,24
 984 572 984 572 1002 514.5 c 128,-1,25
 1020 457 1020 457 1020 400 c 0,26,27
 1020 306 1020 306 986 228 c 128,-1,28
 952 150 952 150 890.5 94.5 c 128,-1,29
 829 39 829 39 743.5 8 c 128,-1,30
 658 -23 658 -23 555 -23 c 0,31,32
 453 -23 453 -23 368 8 c 128,-1,33
 283 39 283 39 221 94.5 c 128,-1,34
 159 150 159 150 124.5 228 c 128,-1,35
 90 306 90 306 90 400 c 0,0,1
268 414 m 0,36,37
 268 347 268 347 288.5 293 c 128,-1,38
 309 239 309 239 346.5 201 c 128,-1,39
 384 163 384 163 437.5 142.5 c 128,-1,40
 491 122 491 122 556 122 c 0,41,42
 619 122 619 122 672 143 c 128,-1,43
 725 164 725 164 763.5 202 c 128,-1,44
 802 240 802 240 823.5 294 c 128,-1,45
 845 348 845 348 845 414 c 0,46,47
 845 474 845 474 824.5 526.5 c 128,-1,48
 804 579 804 579 766 619 c 128,-1,49
 728 659 728 659 675 682 c 128,-1,50
 622 705 622 705 556 705 c 0,51,52
 494 705 494 705 441.5 683.5 c 128,-1,53
 389 662 389 662 350.5 623.5 c 128,-1,54
 312 585 312 585 290 531.5 c 128,-1,55
 268 478 268 478 268 414 c 0,36,37
319 1079 m 0,56,57
 319 1028 319 1028 337.5 984.5 c 128,-1,58
 356 941 356 941 388.5 908.5 c 128,-1,59
 421 876 421 876 464 857.5 c 128,-1,60
 507 839 507 839 556 839 c 256,61,62
 605 839 605 839 648.5 858 c 128,-1,63
 692 877 692 877 724 909.5 c 128,-1,64
 756 942 756 942 775 985.5 c 128,-1,65
 794 1029 794 1029 794 1079 c 0,66,67
 794 1131 794 1131 775.5 1175 c 128,-1,68
 757 1219 757 1219 725 1251 c 128,-1,69
 693 1283 693 1283 649.5 1301.5 c 128,-1,70
 606 1320 606 1320 556 1320 c 0,71,72
 503 1320 503 1320 459.5 1301 c 128,-1,73
 416 1282 416 1282 384.5 1249.5 c 128,-1,74
 353 1217 353 1217 336 1173 c 128,-1,75
 319 1129 319 1129 319 1079 c 0,56,57
EndSplineSet
EndChar

StartChar: nine
Encoding: 57 57 28
Width: 1104
GlyphClass: 2
Flags: W
LayerCount: 2
Fore
SplineSet
1004 803 m 0,0,1
 1004 606 1004 606 965 452.5 c 128,-1,2
 926 299 926 299 851 192.5 c 128,-1,3
 776 86 776 86 668 30.5 c 128,-1,4
 560 -25 560 -25 422 -25 c 0,5,6
 280 -25 280 -25 172 25 c 1,7,-1
 172 182 l 1,8,9
 291 115 291 115 426 115 c 0,10,11
 523 115 523 115 599.5 155 c 128,-1,12
 676 195 676 195 729 271.5 c 128,-1,13
 782 348 782 348 810 460 c 128,-1,14
 838 572 838 572 838 717 c 1,15,-1
 834 717 l 1,16,17
 742 532 742 532 514 532 c 0,18,19
 422 532 422 532 345 564.5 c 128,-1,20
 268 597 268 597 212 656.5 c 128,-1,21
 156 716 156 716 125 798 c 128,-1,22
 94 880 94 880 94 979 c 0,23,24
 94 1085 94 1085 128.5 1173 c 128,-1,25
 163 1261 163 1261 224.5 1324.5 c 128,-1,26
 286 1388 286 1388 370.5 1423 c 128,-1,27
 455 1458 455 1458 555 1458 c 0,28,29
 663 1458 663 1458 746.5 1414.5 c 128,-1,30
 830 1371 830 1371 887 1287.5 c 128,-1,31
 944 1204 944 1204 974 1082 c 128,-1,32
 1004 960 1004 960 1004 803 c 0,0,1
827 950 m 0,33,34
 827 1033 827 1033 805.5 1101 c 128,-1,35
 784 1169 784 1169 746 1217.5 c 128,-1,36
 708 1266 708 1266 655.5 1292.5 c 128,-1,37
 603 1319 603 1319 541 1319 c 0,38,39
 482 1319 482 1319 431 1295.5 c 128,-1,40
 380 1272 380 1272 342.5 1229.5 c 128,-1,41
 305 1187 305 1187 283.5 1128.5 c 128,-1,42
 262 1070 262 1070 262 1001 c 0,43,44
 262 925 262 925 282.5 865 c 128,-1,45
 303 805 303 805 341 763.5 c 128,-1,46
 379 722 379 722 432.5 700 c 128,-1,47
 486 678 486 678 551 678 c 0,48,49
 608 678 608 678 658.5 699.5 c 128,-1,50
 709 721 709 721 746.5 757.5 c 128,-1,51
 784 794 784 794 805.5 843.5 c 128,-1,52
 827 893 827 893 827 950 c 0,33,34
EndSplineSet
EndChar

StartChar: colon
Encoding: 58 58 29
Width: 444
GlyphClass: 2
Flags: W
LayerCount: 2
Fore
SplineSet
223 824 m 0,0,1
 177 824 177 824 144.5 857 c 128,-1,2
 112 890 112 890 112 936 c 256,3,4
 112 982 112 982 144.5 1014 c 128,-1,5
 177 1046 177 1046 223 1046 c 0,6,7
 270 1046 270 1046 303 1014 c 128,-1,8
 336 982 336 982 336 936 c 256,9,10
 336 890 336 890 303 857 c 128,-1,11
 270 824 270 824 223 824 c 0,0,1
223 -22 m 0,12,13
 177 -22 177 -22 144.5 11 c 128,-1,14
 112 44 112 44 112 90 c 256,15,16
 112 136 112 136 144.5 169.5 c 128,-1,17
 177 203 177 203 223 203 c 0,18,19
 270 203 270 203 303 169.5 c 128,-1,20
 336 136 336 136 336 90 c 256,21,22
 336 44 336 44 303 11 c 128,-1,23
 270 -22 270 -22 223 -22 c 0,12,13
EndSplineSet
EndChar

StartChar: semicolon
Encoding: 59 59 30
Width: 444
GlyphClass: 2
Flags: W
LayerCount: 2
Fore
SplineSet
226 824 m 0,0,1
 179 824 179 824 146.5 857 c 128,-1,2
 114 890 114 890 114 936 c 256,3,4
 114 982 114 982 146.5 1014 c 128,-1,5
 179 1046 179 1046 226 1046 c 0,6,7
 272 1046 272 1046 305 1014 c 128,-1,8
 338 982 338 982 338 936 c 256,9,10
 338 890 338 890 305 857 c 128,-1,11
 272 824 272 824 226 824 c 0,0,1
316 228 m 1,12,-1
 156 -264 l 1,13,-1
 39 -264 l 1,14,-1
 156 228 l 1,15,-1
 316 228 l 1,12,-1
EndSplineSet
EndChar

StartChar: less
Encoding: 60 60 31
Width: 1401
GlyphClass: 2
Flags: W
LayerCount: 2
Fore
SplineSet
1132 127 m 1,0,-1
 272 559 l 1,1,-1
 272 618 l 1,2,-1
 1132 1100 l 1,3,-1
 1132 950 l 1,4,-1
 490 594 l 1,5,-1
 490 590 l 1,6,-1
 1132 276 l 1,7,-1
 1132 127 l 1,0,-1
EndSplineSet
EndChar

StartChar: equal
Encoding: 61 61 32
Width: 1401
GlyphClass: 2
Flags: W
LayerCount: 2
Fore
SplineSet
1172 744 m 1,0,-1
 232 744 l 1,1,-1
 232 876 l 1,2,-1
 1172 876 l 1,3,-1
 1172 744 l 1,0,-1
1172 318 m 1,4,-1
 232 318 l 1,5,-1
 232 450 l 1,6,-1
 1172 450 l 1,7,-1
 1172 318 l 1,4,-1
EndSplineSet
EndChar

StartChar: greater
Encoding: 62 62 33
Width: 1401
GlyphClass: 2
Flags: W
LayerCount: 2
Fore
SplineSet
1132 559 m 1,0,-1
 272 127 l 1,1,-1
 272 276 l 1,2,-1
 916 588 l 1,3,-1
 916 594 l 1,4,-1
 272 950 l 1,5,-1
 272 1100 l 1,6,-1
 1132 618 l 1,7,-1
 1132 559 l 1,0,-1
EndSplineSet
EndChar

StartChar: question
Encoding: 63 63 34
Width: 918
GlyphClass: 2
Flags: W
LayerCount: 2
Fore
SplineSet
335 398 m 1,0,1
 326 424 326 424 319 465.5 c 128,-1,2
 312 507 312 507 312 548 c 0,3,4
 312 612 312 612 337.5 663.5 c 128,-1,5
 363 715 363 715 401 760 c 128,-1,6
 439 805 439 805 484 846.5 c 128,-1,7
 529 888 529 888 567 930.5 c 128,-1,8
 605 973 605 973 630.5 1019.5 c 128,-1,9
 656 1066 656 1066 656 1122 c 0,10,11
 656 1170 656 1170 637.5 1207 c 128,-1,12
 619 1244 619 1244 587 1269 c 128,-1,13
 555 1294 555 1294 513 1306.5 c 128,-1,14
 471 1319 471 1319 424 1319 c 0,15,16
 255 1319 255 1319 131 1186 c 1,17,-1
 131 1362 l 1,18,19
 284 1458 284 1458 448 1458 c 0,20,21
 524 1458 524 1458 591 1438 c 128,-1,22
 658 1418 658 1418 708.5 1378.5 c 128,-1,23
 759 1339 759 1339 788 1280 c 128,-1,24
 817 1221 817 1221 817 1143 c 0,25,26
 817 1069 817 1069 791 1011 c 128,-1,27
 765 953 765 953 725.5 904.5 c 128,-1,28
 686 856 686 856 640 814 c 128,-1,29
 594 772 594 772 554.5 730.5 c 128,-1,30
 515 689 515 689 489 644 c 128,-1,31
 463 599 463 599 463 545 c 0,32,33
 463 499 463 499 474 461.5 c 128,-1,34
 485 424 485 424 496 398 c 1,35,-1
 335 398 l 1,0,1
425 -18 m 256,36,37
 381 -18 381 -18 347 14 c 0,38,39
 314 46 314 46 314 92 c 0,40,41
 314 139 314 139 347 170 c 0,42,43
 380 203 380 203 425 203 c 256,44,45
 470 203 470 203 503 170 c 0,46,47
 536 139 536 139 536 92 c 0,48,49
 536 46 536 46 503 14 c 0,50,51
 469 -18 469 -18 425 -18 c 256,36,37
EndSplineSet
EndChar

StartChar: at
Encoding: 64 64 35
Width: 1956
GlyphClass: 2
Flags: W
LayerCount: 2
Fore
SplineSet
1164 420 m 1,0,-1
 1159 420 l 1,1,2
 1086 182 1086 182 872 182 c 0,3,4
 735 182 735 182 651.5 283 c 128,-1,5
 568 384 568 384 568 555 c 0,6,7
 568 781 568 781 683.5 930.5 c 128,-1,8
 799 1080 799 1080 987 1080 c 0,9,10
 1059 1080 1059 1080 1115.5 1043 c 128,-1,11
 1172 1006 1172 1006 1188 950 c 1,12,-1
 1192 950 l 1,13,14
 1194 978 1194 978 1202 1065 c 1,15,-1
 1327 1065 l 1,16,17
 1280 514 1280 514 1280 504 c 0,18,19
 1280 297 1280 297 1399 297 c 0,20,21
 1507 297 1507 297 1578.5 414 c 128,-1,22
 1650 531 1650 531 1650 717 c 0,23,24
 1650 992 1650 992 1476 1166 c 128,-1,25
 1302 1340 1302 1340 994 1340 c 0,26,27
 697 1340 697 1340 503 1132 c 128,-1,28
 309 924 309 924 309 612 c 0,29,30
 309 305 309 305 493.5 116.5 c 128,-1,31
 678 -72 678 -72 991 -72 c 0,32,33
 1238 -72 1238 -72 1413 10 c 1,34,-1
 1413 -114 l 1,35,36
 1240 -188 1240 -188 981 -188 c 0,37,38
 617 -188 617 -188 394.5 31.5 c 128,-1,39
 172 251 172 251 172 606 c 0,40,41
 172 972 172 972 405.5 1213 c 128,-1,42
 639 1454 639 1454 1002 1454 c 0,43,44
 1342 1454 1342 1454 1565 1252 c 128,-1,45
 1788 1050 1788 1050 1788 725 c 0,46,47
 1788 487 1788 487 1670.5 334.5 c 128,-1,48
 1553 182 1553 182 1384 182 c 0,49,50
 1165 182 1165 182 1164 420 c 1,0,-1
985 964 m 0,51,52
 861 964 861 964 784.5 846 c 128,-1,53
 708 728 708 728 708 553 c 0,54,55
 708 435 708 435 759.5 367 c 128,-1,56
 811 299 811 299 897 299 c 0,57,58
 1021 299 1021 299 1093.5 422.5 c 128,-1,59
 1166 546 1166 546 1166 750 c 0,60,61
 1166 964 1166 964 985 964 c 0,51,52
EndSplineSet
EndChar

StartChar: A
Encoding: 65 65 36
Width: 1321
GlyphClass: 2
Flags: W
AnchorPoint: "Ancre-3" 1150 0 basechar 0
AnchorPoint: "Ancre-1" 0 0 basechar 0
AnchorPoint: "Ancre-0" 40 0 basechar 0
LayerCount: 2
Fore
SplineSet
1298 0 m 1,0,-1
 1112 0 l 1,1,-1
 960 402 l 1,2,-1
 352 402 l 1,3,-1
 209 0 l 1,4,-1
 22 0 l 1,5,-1
 572 1434 l 1,6,-1
 746 1434 l 1,7,-1
 1298 0 l 1,0,-1
905 553 m 1,8,-1
 680 1164 l 2,9,10
 669 1194 669 1194 658 1260 c 1,11,-1
 654 1260 l 1,12,13
 644 1199 644 1199 631 1164 c 2,14,-1
 408 553 l 1,15,-1
 905 553 l 1,8,-1
EndSplineSet
EndChar

StartChar: B
Encoding: 66 66 37
Width: 1174
GlyphClass: 2
Flags: W
LayerCount: 2
Fore
SplineSet
188 0 m 1,0,-1
 188 1434 l 1,1,-1
 596 1434 l 2,2,3
 782 1434 782 1434 891 1343 c 128,-1,4
 1000 1252 1000 1252 1000 1106 c 0,5,6
 1000 984 1000 984 934 894 c 128,-1,7
 868 804 868 804 752 766 c 1,8,-1
 752 762 l 1,9,10
 897 745 897 745 984 652.5 c 128,-1,11
 1071 560 1071 560 1071 412 c 0,12,13
 1071 228 1071 228 939 114 c 128,-1,14
 807 0 807 0 606 0 c 2,15,-1
 188 0 l 1,0,-1
356 1282 m 1,16,-1
 356 819 l 1,17,-1
 528 819 l 2,18,19
 666 819 666 819 745 885.5 c 128,-1,20
 824 952 824 952 824 1073 c 0,21,22
 824 1282 824 1282 549 1282 c 2,23,-1
 356 1282 l 1,16,-1
356 668 m 1,24,-1
 356 152 l 1,25,-1
 584 152 l 2,26,27
 732 152 732 152 813.5 222 c 128,-1,28
 895 292 895 292 895 414 c 0,29,30
 895 668 895 668 549 668 c 2,31,-1
 356 668 l 1,24,-1
EndSplineSet
EndChar

StartChar: C
Encoding: 67 67 38
Width: 1268
GlyphClass: 2
Flags: W
LayerCount: 2
Fore
SplineSet
1164 60 m 1,0,1
 1005 -24 1005 -24 768 -24 c 0,2,3
 462 -24 462 -24 278 173 c 128,-1,4
 94 370 94 370 94 690 c 0,5,6
 94 1034 94 1034 301 1246 c 128,-1,7
 508 1458 508 1458 826 1458 c 0,8,9
 1030 1458 1030 1458 1164 1399 c 1,10,-1
 1164 1220 l 1,11,12
 1010 1306 1010 1306 824 1306 c 0,13,14
 577 1306 577 1306 423.5 1141 c 128,-1,15
 270 976 270 976 270 700 c 0,16,17
 270 438 270 438 413.5 282.5 c 128,-1,18
 557 127 557 127 790 127 c 0,19,20
 1006 127 1006 127 1164 223 c 1,21,-1
 1164 60 l 1,0,1
EndSplineSet
EndChar

StartChar: D
Encoding: 68 68 39
Width: 1436
GlyphClass: 2
Flags: W
LayerCount: 2
Fore
SplineSet
188 0 m 1,0,-1
 188 1434 l 1,1,-1
 584 1434 l 2,2,3
 1342 1434 1342 1434 1342 735 c 0,4,5
 1342 403 1342 403 1131.5 201.5 c 128,-1,6
 921 0 921 0 568 0 c 2,7,-1
 188 0 l 1,0,-1
356 1282 m 1,8,-1
 356 152 l 1,9,-1
 570 152 l 2,10,11
 852 152 852 152 1009 303 c 128,-1,12
 1166 454 1166 454 1166 731 c 0,13,14
 1166 1282 1166 1282 580 1282 c 2,15,-1
 356 1282 l 1,8,-1
EndSplineSet
EndChar

StartChar: E
Encoding: 69 69 40
Width: 1036
GlyphClass: 2
Flags: W
AnchorPoint: "Ancre-3" 700 0 basechar 0
AnchorPoint: "Ancre-1" 60 0 basechar 0
AnchorPoint: "Ancre-0" -60 0 basechar 0
LayerCount: 2
Fore
SplineSet
948 0 m 1,0,-1
 188 0 l 1,1,-1
 188 1434 l 1,2,-1
 916 1434 l 1,3,-1
 916 1282 l 1,4,-1
 356 1282 l 1,5,-1
 356 805 l 1,6,-1
 874 805 l 1,7,-1
 874 654 l 1,8,-1
 356 654 l 1,9,-1
 356 152 l 1,10,-1
 948 152 l 1,11,-1
 948 0 l 1,0,-1
EndSplineSet
EndChar

StartChar: F
Encoding: 70 70 41
Width: 1000
GlyphClass: 2
Flags: W
LayerCount: 2
Fore
SplineSet
916 1282 m 1,0,-1
 356 1282 l 1,1,-1
 356 786 l 1,2,-1
 874 786 l 1,3,-1
 874 635 l 1,4,-1
 356 635 l 1,5,-1
 356 0 l 1,6,-1
 188 0 l 1,7,-1
 188 1434 l 1,8,-1
 916 1434 l 1,9,-1
 916 1282 l 1,0,-1
EndSplineSet
EndChar

StartChar: G
Encoding: 71 71 42
Width: 1405
GlyphClass: 2
Flags: W
LayerCount: 2
Fore
SplineSet
1260 98 m 1,0,1
 1044 -24 1044 -24 780 -24 c 0,2,3
 473 -24 473 -24 283.5 174 c 128,-1,4
 94 372 94 372 94 698 c 0,5,6
 94 1031 94 1031 304.5 1244.5 c 128,-1,7
 515 1458 515 1458 838 1458 c 0,8,9
 1072 1458 1072 1458 1231 1382 c 1,10,-1
 1231 1196 l 1,11,12
 1057 1306 1057 1306 819 1306 c 0,13,14
 578 1306 578 1306 424 1140 c 128,-1,15
 270 974 270 974 270 710 c 0,16,17
 270 438 270 438 413 282.5 c 128,-1,18
 556 127 556 127 801 127 c 0,19,20
 969 127 969 127 1092 194 c 1,21,-1
 1092 596 l 1,22,-1
 778 596 l 1,23,-1
 778 748 l 1,24,-1
 1260 748 l 1,25,-1
 1260 98 l 1,0,1
EndSplineSet
EndChar

StartChar: H
Encoding: 72 72 43
Width: 1454
GlyphClass: 2
Flags: W
LayerCount: 2
Fore
SplineSet
1266 0 m 1,0,-1
 1098 0 l 1,1,-1
 1098 654 l 1,2,-1
 356 654 l 1,3,-1
 356 0 l 1,4,-1
 188 0 l 1,5,-1
 188 1434 l 1,6,-1
 356 1434 l 1,7,-1
 356 805 l 1,8,-1
 1098 805 l 1,9,-1
 1098 1434 l 1,10,-1
 1266 1434 l 1,11,-1
 1266 0 l 1,0,-1
EndSplineSet
EndChar

StartChar: I
Encoding: 73 73 44
Width: 545
GlyphClass: 2
Flags: W
AnchorPoint: "Ancre-3" 300 0 basechar 0
AnchorPoint: "Ancre-1" -300 0 basechar 0
AnchorPoint: "Ancre-0" -360 0 basechar 0
LayerCount: 2
Fore
SplineSet
496 1434 m 1,0,-1
 496 1290 l 1,1,-1
 356 1290 l 1,2,-1
 356 144 l 1,3,-1
 496 144 l 1,4,-1
 496 0 l 1,5,-1
 48 0 l 1,6,-1
 48 144 l 1,7,-1
 188 144 l 1,8,-1
 188 1290 l 1,9,-1
 48 1290 l 1,10,-1
 48 1434 l 1,11,-1
 496 1434 l 1,0,-1
EndSplineSet
EndChar

StartChar: J
Encoding: 74 74 45
Width: 731
GlyphClass: 2
Flags: W
LayerCount: 2
Fore
SplineSet
555 514 m 2,0,1
 555 259 555 259 447 117.5 c 128,-1,2
 339 -24 339 -24 158 -24 c 0,3,4
 74 -24 74 -24 20 0 c 1,5,-1
 20 166 l 1,6,7
 74 127 74 127 160 127 c 0,8,9
 387 127 387 127 387 512 c 2,10,-1
 387 1434 l 1,11,-1
 555 1434 l 1,12,-1
 555 514 l 2,0,1
EndSplineSet
EndChar

StartChar: K
Encoding: 75 75 46
Width: 1188
GlyphClass: 2
Flags: W
LayerCount: 2
Fore
SplineSet
1186 0 m 1,0,-1
 952 0 l 1,1,-1
 398 656 l 2,2,3
 367 693 367 693 360 706 c 1,4,-1
 356 706 l 1,5,-1
 356 0 l 1,6,-1
 188 0 l 1,7,-1
 188 1434 l 1,8,-1
 356 1434 l 1,9,-1
 356 760 l 1,10,-1
 360 760 l 1,11,12
 374 782 374 782 398 809 c 2,13,-1
 934 1434 l 1,14,-1
 1143 1434 l 1,15,-1
 528 746 l 1,16,-1
 1186 0 l 1,0,-1
EndSplineSet
EndChar

StartChar: L
Encoding: 76 76 47
Width: 964
GlyphClass: 2
Flags: W
LayerCount: 2
Fore
SplineSet
932 0 m 1,0,-1
 188 0 l 1,1,-1
 188 1434 l 1,2,-1
 356 1434 l 1,3,-1
 356 152 l 1,4,-1
 932 152 l 1,5,-1
 932 0 l 1,0,-1
EndSplineSet
EndChar

StartChar: M
Encoding: 77 77 48
Width: 1839
GlyphClass: 2
Flags: W
LayerCount: 2
Fore
SplineSet
1650 0 m 1,0,-1
 1483 0 l 1,1,-1
 1483 962 l 2,2,3
 1483 1076 1483 1076 1497 1241 c 1,4,-1
 1493 1241 l 1,5,6
 1469 1144 1469 1144 1450 1102 c 2,7,-1
 960 0 l 1,8,-1
 878 0 l 1,9,-1
 389 1094 l 2,10,11
 368 1142 368 1142 346 1241 c 1,12,-1
 342 1241 l 1,13,14
 350 1155 350 1155 350 960 c 2,15,-1
 350 0 l 1,16,-1
 188 0 l 1,17,-1
 188 1434 l 1,18,-1
 410 1434 l 1,19,-1
 850 434 l 2,20,21
 901 319 901 319 916 262 c 1,22,-1
 922 262 l 1,23,24
 965 380 965 380 991 438 c 2,25,-1
 1440 1434 l 1,26,-1
 1650 1434 l 1,27,-1
 1650 0 l 1,0,-1
EndSplineSet
EndChar

StartChar: N
Encoding: 78 78 49
Width: 1532
GlyphClass: 2
Flags: W
LayerCount: 2
Fore
SplineSet
1344 0 m 1,0,-1
 1138 0 l 1,1,-1
 400 1143 l 2,2,3
 372 1186 372 1186 354 1233 c 1,4,-1
 348 1233 l 1,5,6
 356 1187 356 1187 356 1036 c 2,7,-1
 356 0 l 1,8,-1
 188 0 l 1,9,-1
 188 1434 l 1,10,-1
 406 1434 l 1,11,-1
 1124 309 l 2,12,13
 1169 239 1169 239 1182 213 c 1,14,-1
 1186 213 l 1,15,16
 1176 275 1176 275 1176 424 c 2,17,-1
 1176 1434 l 1,18,-1
 1344 1434 l 1,19,-1
 1344 0 l 1,0,-1
EndSplineSet
EndChar

StartChar: O
Encoding: 79 79 50
Width: 1544
GlyphClass: 2
Flags: W
AnchorPoint: "Ancre-3" 850 0 basechar 0
AnchorPoint: "Ancre-1" 400 0 basechar 0
AnchorPoint: "Ancre-0" 160 0 basechar 0
LayerCount: 2
Fore
SplineSet
766 -24 m 0,0,1
 461 -24 461 -24 277.5 177 c 128,-1,2
 94 378 94 378 94 700 c 0,3,4
 94 1046 94 1046 281 1252 c 128,-1,5
 468 1458 468 1458 790 1458 c 0,6,7
 1087 1458 1087 1458 1268.5 1258 c 128,-1,8
 1450 1058 1450 1058 1450 735 c 0,9,10
 1450 384 1450 384 1264 180 c 128,-1,11
 1078 -24 1078 -24 766 -24 c 0,0,1
778 1306 m 0,12,13
 552 1306 552 1306 411 1143 c 128,-1,14
 270 980 270 980 270 715 c 256,15,16
 270 450 270 450 407.5 288.5 c 128,-1,17
 545 127 545 127 766 127 c 0,18,19
 1002 127 1002 127 1138 281 c 128,-1,20
 1274 435 1274 435 1274 712 c 0,21,22
 1274 996 1274 996 1142 1151 c 128,-1,23
 1010 1306 1010 1306 778 1306 c 0,12,13
EndSplineSet
EndChar

StartChar: P
Encoding: 80 80 51
Width: 1147
GlyphClass: 2
Flags: W
LayerCount: 2
Fore
SplineSet
356 542 m 1,0,-1
 356 0 l 1,1,-1
 188 0 l 1,2,-1
 188 1434 l 1,3,-1
 582 1434 l 2,4,5
 812 1434 812 1434 938.5 1322 c 128,-1,6
 1065 1210 1065 1210 1065 1006 c 256,7,8
 1065 802 1065 802 924.5 672 c 128,-1,9
 784 542 784 542 545 542 c 2,10,-1
 356 542 l 1,0,-1
356 1282 m 1,11,-1
 356 694 l 1,12,-1
 532 694 l 2,13,14
 706 694 706 694 797.5 773.5 c 128,-1,15
 889 853 889 853 889 998 c 0,16,17
 889 1282 889 1282 553 1282 c 2,18,-1
 356 1282 l 1,11,-1
EndSplineSet
EndChar

StartChar: Q
Encoding: 81 81 52
Width: 1544
GlyphClass: 2
Flags: W
LayerCount: 2
Fore
SplineSet
756 -24 m 1,0,1
 692 -24 692 -24 626 -11.5 c 128,-1,2
 560 1 560 1 498 26.5 c 128,-1,3
 436 52 436 52 379.5 89.5 c 128,-1,4
 323 127 323 127 277 177 c 0,5,6
 94 377 94 377 94 700 c 0,7,8
 94 1047 94 1047 280 1252 c 0,9,10
 468 1458 468 1458 794 1458 c 0,11,12
 1086 1458 1086 1458 1268 1258 c 256,13,14
 1450 1058 1450 1058 1450 735 c 0,15,16
 1450 599 1450 599 1419.5 478.5 c 128,-1,17
 1389 358 1389 358 1327 261 c 128,-1,18
 1265 164 1265 164 1171 96.5 c 128,-1,19
 1077 29 1077 29 949 0 c 1,20,21
 1001 -56 1001 -56 1046.5 -99 c 128,-1,22
 1092 -142 1092 -142 1137.5 -171.5 c 128,-1,23
 1183 -201 1183 -201 1232 -216 c 128,-1,24
 1281 -231 1281 -231 1340 -231 c 0,25,26
 1356 -231 1356 -231 1375 -229.5 c 128,-1,27
 1394 -228 1394 -228 1413.5 -224.5 c 128,-1,28
 1433 -221 1433 -221 1451 -216.5 c 128,-1,29
 1469 -212 1469 -212 1484 -206 c 1,30,-1
 1484 -368 l 1,31,32
 1468 -373 1468 -373 1448 -376.5 c 128,-1,33
 1428 -380 1428 -380 1407.5 -382.5 c 128,-1,34
 1387 -385 1387 -385 1367 -386.5 c 128,-1,35
 1347 -388 1347 -388 1330 -388 c 0,36,37
 1234 -388 1234 -388 1157.5 -359.5 c 128,-1,38
 1081 -331 1081 -331 1014.5 -281.5 c 128,-1,39
 948 -232 948 -232 886 -166 c 128,-1,40
 824 -100 824 -100 756 -24 c 1,0,1
778 1306 m 0,41,42
 552 1306 552 1306 411 1143 c 256,43,44
 270 980 270 980 270 715 c 0,45,46
 270 451 270 451 407 288 c 0,47,48
 545 127 545 127 766 127 c 0,49,50
 1002 127 1002 127 1138 281 c 256,51,52
 1274 435 1274 435 1274 712 c 0,53,54
 1274 997 1274 997 1142 1151 c 0,55,56
 1010 1306 1010 1306 778 1306 c 0,41,42
EndSplineSet
EndChar

StartChar: R
Encoding: 82 82 53
Width: 1225
GlyphClass: 2
Flags: W
LayerCount: 2
Fore
SplineSet
1216 0 m 1,0,-1
 1016 0 l 1,1,-1
 776 402 l 2,2,3
 743 458 743 458 712 497.5 c 128,-1,4
 681 537 681 537 648.5 562 c 128,-1,5
 616 587 616 587 578.5 598.5 c 128,-1,6
 541 610 541 610 494 610 c 2,7,-1
 356 610 l 1,8,-1
 356 0 l 1,9,-1
 188 0 l 1,10,-1
 188 1434 l 1,11,-1
 616 1434 l 2,12,13
 710 1434 710 1434 789.5 1410.5 c 128,-1,14
 869 1387 869 1387 927.5 1339 c 128,-1,15
 986 1291 986 1291 1019 1219.5 c 128,-1,16
 1052 1148 1052 1148 1052 1052 c 0,17,18
 1052 977 1052 977 1029.5 914.5 c 128,-1,19
 1007 852 1007 852 965.5 803 c 128,-1,20
 924 754 924 754 865.5 719.5 c 128,-1,21
 807 685 807 685 734 666 c 1,22,-1
 734 662 l 1,23,24
 770 646 770 646 796.5 625.5 c 128,-1,25
 823 605 823 605 847 577 c 128,-1,26
 871 549 871 549 894.5 513.5 c 128,-1,27
 918 478 918 478 947 431 c 2,28,-1
 1216 0 l 1,0,-1
356 1282 m 1,29,-1
 356 762 l 1,30,-1
 584 762 l 2,31,32
 647 762 647 762 700.5 781 c 128,-1,33
 754 800 754 800 793 835.5 c 128,-1,34
 832 871 832 871 854 922.5 c 128,-1,35
 876 974 876 974 876 1038 c 0,36,37
 876 1153 876 1153 801.5 1217.5 c 128,-1,38
 727 1282 727 1282 586 1282 c 2,39,-1
 356 1282 l 1,29,-1
EndSplineSet
EndChar

StartChar: S
Encoding: 83 83 54
Width: 1088
GlyphClass: 2
Flags: W
LayerCount: 2
Fore
SplineSet
121 58 m 1,0,-1
 121 256 l 1,1,2
 155 226 155 226 202.5 202 c 128,-1,3
 250 178 250 178 302.5 161.5 c 128,-1,4
 355 145 355 145 408 136 c 128,-1,5
 461 127 461 127 506 127 c 0,6,7
 661 127 661 127 737.5 184.5 c 128,-1,8
 814 242 814 242 814 350 c 0,9,10
 814 408 814 408 788.5 451 c 128,-1,11
 763 494 763 494 718 529.5 c 128,-1,12
 673 565 673 565 611.5 597.5 c 128,-1,13
 550 630 550 630 479 666 c 0,14,15
 404 704 404 704 339 743 c 128,-1,16
 274 782 274 782 226 829 c 128,-1,17
 178 876 178 876 150.5 935.5 c 128,-1,18
 123 995 123 995 123 1075 c 0,19,20
 123 1173 123 1173 166 1245.5 c 128,-1,21
 209 1318 209 1318 279 1365 c 128,-1,22
 349 1412 349 1412 438.5 1435 c 128,-1,23
 528 1458 528 1458 621 1458 c 0,24,25
 833 1458 833 1458 930 1407 c 1,26,-1
 930 1218 l 1,27,28
 803 1306 803 1306 604 1306 c 0,29,30
 549 1306 549 1306 494 1294.5 c 128,-1,31
 439 1283 439 1283 396 1257 c 128,-1,32
 353 1231 353 1231 326 1190 c 128,-1,33
 299 1149 299 1149 299 1090 c 0,34,35
 299 1035 299 1035 319.5 995 c 128,-1,36
 340 955 340 955 380 922 c 128,-1,37
 420 889 420 889 477.5 858 c 128,-1,38
 535 827 535 827 610 790 c 0,39,40
 687 752 687 752 756 710 c 128,-1,41
 825 668 825 668 877 617 c 128,-1,42
 929 566 929 566 959.5 504 c 128,-1,43
 990 442 990 442 990 362 c 0,44,45
 990 256 990 256 948.5 182.5 c 128,-1,46
 907 109 907 109 836.5 63 c 128,-1,47
 766 17 766 17 674 -3.5 c 128,-1,48
 582 -24 582 -24 480 -24 c 0,49,50
 446 -24 446 -24 396 -18.5 c 128,-1,51
 346 -13 346 -13 294 -2.5 c 128,-1,52
 242 8 242 8 195.5 23.5 c 128,-1,53
 149 39 149 39 121 58 c 1,0,-1
EndSplineSet
EndChar

StartChar: T
Encoding: 84 84 55
Width: 1073
GlyphClass: 2
Flags: W
LayerCount: 2
Fore
SplineSet
1036 1282 m 1,0,-1
 622 1282 l 1,1,-1
 622 0 l 1,2,-1
 454 0 l 1,3,-1
 454 1282 l 1,4,-1
 41 1282 l 1,5,-1
 41 1434 l 1,6,-1
 1036 1434 l 1,7,-1
 1036 1282 l 1,0,-1
EndSplineSet
EndChar

StartChar: U
Encoding: 85 85 56
Width: 1407
GlyphClass: 2
Flags: W
AnchorPoint: "Ancre-3" 750 0 basechar 0
AnchorPoint: "Ancre-1" 400 0 basechar 0
AnchorPoint: "Ancre-0" 60 0 basechar 0
LayerCount: 2
Fore
SplineSet
1237 580 m 2,0,1
 1237 -24 1237 -24 692 -24 c 0,2,3
 170 -24 170 -24 170 557 c 2,4,-1
 170 1434 l 1,5,-1
 338 1434 l 1,6,-1
 338 568 l 2,7,8
 338 127 338 127 710 127 c 0,9,10
 1069 127 1069 127 1069 553 c 2,11,-1
 1069 1434 l 1,12,-1
 1237 1434 l 1,13,-1
 1237 580 l 2,0,1
EndSplineSet
EndChar

StartChar: V
Encoding: 86 86 57
Width: 1272
GlyphClass: 2
Flags: W
LayerCount: 2
Fore
SplineSet
1254 1434 m 1,0,-1
 723 0 l 1,1,-1
 538 0 l 1,2,-1
 18 1434 l 1,3,-1
 205 1434 l 1,4,-1
 602 297 l 2,5,6
 621 242 621 242 631 170 c 1,7,-1
 635 170 l 1,8,9
 643 230 643 230 668 299 c 2,10,-1
 1073 1434 l 1,11,-1
 1254 1434 l 1,0,-1
EndSplineSet
EndChar

StartChar: W
Encoding: 87 87 58
Width: 1913
GlyphClass: 2
Flags: W
LayerCount: 2
Fore
SplineSet
1888 1434 m 1,0,-1
 1483 0 l 1,1,-1
 1286 0 l 1,2,-1
 991 1048 l 2,3,4
 972 1115 972 1115 968 1194 c 1,5,-1
 964 1194 l 1,6,7
 958 1120 958 1120 938 1050 c 2,8,-1
 641 0 l 1,9,-1
 446 0 l 1,10,-1
 26 1434 l 1,11,-1
 211 1434 l 1,12,-1
 516 334 l 2,13,14
 535 265 535 265 540 190 c 1,15,-1
 545 190 l 1,16,17
 550 243 550 243 576 334 c 2,18,-1
 893 1434 l 1,19,-1
 1054 1434 l 1,20,-1
 1358 326 l 2,21,22
 1374 269 1374 269 1382 192 c 1,23,-1
 1386 192 l 1,24,25
 1390 244 1390 244 1413 330 c 2,26,-1
 1706 1434 l 1,27,-1
 1888 1434 l 1,0,-1
EndSplineSet
EndChar

StartChar: X
Encoding: 88 88 59
Width: 1208
GlyphClass: 2
Flags: W
LayerCount: 2
Fore
SplineSet
1178 0 m 1,0,-1
 973 0 l 1,1,-1
 643 549 l 2,2,3
 628 574 628 574 610 620 c 1,4,-1
 606 620 l 1,5,6
 596 597 596 597 572 549 c 1,7,-1
 232 0 l 1,8,-1
 26 0 l 1,9,-1
 506 721 l 1,10,-1
 64 1434 l 1,11,-1
 270 1434 l 1,12,-1
 563 930 l 2,13,14
 592 880 592 880 614 830 c 1,15,-1
 618 830 l 1,16,17
 650 896 650 896 674 934 c 2,18,-1
 979 1434 l 1,19,-1
 1172 1434 l 1,20,-1
 721 723 l 1,21,-1
 1178 0 l 1,0,-1
EndSplineSet
EndChar

StartChar: Y
Encoding: 89 89 60
Width: 1132
GlyphClass: 2
Flags: W
LayerCount: 2
Fore
SplineSet
1120 1434 m 1,0,-1
 647 530 l 1,1,-1
 647 0 l 1,2,-1
 479 0 l 1,3,-1
 479 526 l 1,4,-1
 18 1434 l 1,5,-1
 209 1434 l 1,6,-1
 530 786 l 2,7,8
 536 774 536 774 565 698 c 1,9,-1
 568 698 l 1,10,11
 578 732 578 732 606 786 c 2,12,-1
 942 1434 l 1,13,-1
 1120 1434 l 1,0,-1
EndSplineSet
EndChar

StartChar: Z
Encoding: 90 90 61
Width: 1168
GlyphClass: 2
Flags: W
LayerCount: 2
Fore
SplineSet
1124 1394 m 1,0,-1
 284 152 l 1,1,-1
 1104 152 l 1,2,-1
 1104 0 l 1,3,-1
 33 0 l 1,4,-1
 33 47 l 1,5,-1
 866 1282 l 1,6,-1
 100 1282 l 1,7,-1
 100 1434 l 1,8,-1
 1124 1434 l 1,9,-1
 1124 1394 l 1,0,-1
EndSplineSet
EndChar

StartChar: bracketleft
Encoding: 91 91 62
Width: 618
GlyphClass: 2
Flags: W
LayerCount: 2
Fore
SplineSet
568 -326 m 1,0,-1
 200 -326 l 1,1,-1
 200 1434 l 1,2,-1
 568 1434 l 1,3,-1
 568 1315 l 1,4,-1
 346 1315 l 1,5,-1
 346 -207 l 1,6,-1
 568 -207 l 1,7,-1
 568 -326 l 1,0,-1
EndSplineSet
EndChar

StartChar: backslash
Encoding: 92 92 63
Width: 776
GlyphClass: 2
Flags: W
LayerCount: 2
Fore
SplineSet
798 -240 m 1,0,-1
 647 -240 l 1,1,-1
 -26 1434 l 1,2,-1
 129 1434 l 1,3,-1
 798 -240 l 1,0,-1
EndSplineSet
EndChar

StartChar: bracketright
Encoding: 93 93 64
Width: 618
GlyphClass: 2
Flags: W
LayerCount: 2
Fore
SplineSet
420 -326 m 1,0,-1
 53 -326 l 1,1,-1
 53 -207 l 1,2,-1
 274 -207 l 1,3,-1
 274 1315 l 1,4,-1
 53 1315 l 1,5,-1
 53 1434 l 1,6,-1
 420 1434 l 1,7,-1
 420 -326 l 1,0,-1
EndSplineSet
EndChar

StartChar: asciicircum
Encoding: 94 94 65
Width: 1401
GlyphClass: 2
Flags: W
LayerCount: 2
Fore
SplineSet
1174 624 m 1,0,-1
 1024 624 l 1,1,-1
 692 1243 l 1,2,-1
 686 1243 l 1,3,-1
 377 624 l 1,4,-1
 230 624 l 1,5,-1
 652 1458 l 1,6,-1
 717 1458 l 1,7,-1
 1174 624 l 1,0,-1
EndSplineSet
EndChar

StartChar: underscore
Encoding: 95 95 66
Width: 850
GlyphClass: 2
Flags: W
LayerCount: 2
Fore
SplineSet
850 -297 m 1,0,-1
 0 -297 l 1,1,-1
 0 -178 l 1,2,-1
 850 -178 l 1,3,-1
 850 -297 l 1,0,-1
EndSplineSet
EndChar

StartChar: grave
Encoding: 96 96 67
Width: 549
GlyphClass: 2
Flags: W
LayerCount: 2
Fore
SplineSet
471 1218 m 1,0,-1
 344 1218 l 1,1,-1
 82 1546 l 1,2,-1
 250 1546 l 1,3,-1
 471 1218 l 1,0,-1
EndSplineSet
EndChar

StartChar: a
Encoding: 97 97 68
Width: 1042
GlyphClass: 2
Flags: W
AnchorPoint: "Ancre-3" 780 0 basechar 0
AnchorPoint: "Ancre-1" 0 -400 basechar 0
AnchorPoint: "Ancre-0" -80 -400 basechar 0
LayerCount: 2
Fore
SplineSet
899 0 m 1,0,-1
 735 0 l 1,1,-1
 735 160 l 1,2,-1
 731 160 l 1,3,4
 624 -24 624 -24 416 -24 c 0,5,6
 263 -24 263 -24 176.5 57 c 128,-1,7
 90 138 90 138 90 272 c 0,8,9
 90 559 90 559 428 606 c 2,10,-1
 735 649 l 1,11,12
 735 910 735 910 524 910 c 0,13,14
 339 910 339 910 190 784 c 1,15,-1
 190 952 l 1,16,17
 341 1048 341 1048 538 1048 c 0,18,19
 899 1048 899 1048 899 666 c 2,20,-1
 899 0 l 1,0,-1
735 518 m 1,21,-1
 488 484 l 2,22,23
 374 468 374 468 316 427.5 c 128,-1,24
 258 387 258 387 258 284 c 0,25,26
 258 209 258 209 311.5 161.5 c 128,-1,27
 365 114 365 114 454 114 c 0,28,29
 576 114 576 114 655.5 199.5 c 128,-1,30
 735 285 735 285 735 416 c 2,31,-1
 735 518 l 1,21,-1
EndSplineSet
EndChar

StartChar: b
Encoding: 98 98 69
Width: 1204
GlyphClass: 2
Flags: W
LayerCount: 2
Fore
SplineSet
334 148 m 1,0,-1
 330 148 l 1,1,-1
 330 0 l 1,2,-1
 166 0 l 1,3,-1
 166 1516 l 1,4,-1
 330 1516 l 1,5,-1
 330 844 l 1,6,-1
 334 844 l 1,7,8
 455 1048 455 1048 688 1048 c 0,9,10
 885 1048 885 1048 996.5 910.5 c 128,-1,11
 1108 773 1108 773 1108 542 c 0,12,13
 1108 285 1108 285 983 130.5 c 128,-1,14
 858 -24 858 -24 641 -24 c 0,15,16
 438 -24 438 -24 334 148 c 1,0,-1
330 561 m 2,17,-1
 330 418 l 2,18,19
 330 291 330 291 412.5 202.5 c 128,-1,20
 495 114 495 114 622 114 c 0,21,22
 771 114 771 114 855.5 228 c 128,-1,23
 940 342 940 342 940 545 c 0,24,25
 940 716 940 716 861 813 c 128,-1,26
 782 910 782 910 647 910 c 0,27,28
 504 910 504 910 417 810.5 c 128,-1,29
 330 711 330 711 330 561 c 2,17,-1
EndSplineSet
EndChar

StartChar: c
Encoding: 99 99 70
Width: 946
GlyphClass: 2
Flags: W
LayerCount: 2
Fore
SplineSet
864 47 m 1,0,1
 746 -24 746 -24 584 -24 c 0,2,3
 365 -24 365 -24 230.5 118.5 c 128,-1,4
 96 261 96 261 96 488 c 0,5,6
 96 741 96 741 241 894.5 c 128,-1,7
 386 1048 386 1048 628 1048 c 0,8,9
 763 1048 763 1048 866 998 c 1,10,-1
 866 830 l 1,11,12
 752 910 752 910 622 910 c 0,13,14
 465 910 465 910 364.5 797.5 c 128,-1,15
 264 685 264 685 264 502 c 0,16,17
 264 322 264 322 358.5 218 c 128,-1,18
 453 114 453 114 612 114 c 0,19,20
 746 114 746 114 864 203 c 1,21,-1
 864 47 l 1,0,1
EndSplineSet
EndChar

StartChar: d
Encoding: 100 100 71
Width: 1206
GlyphClass: 2
Flags: W
LayerCount: 2
Fore
SplineSet
1040 0 m 1,0,-1
 876 0 l 1,1,-1
 876 174 l 1,2,-1
 872 174 l 1,3,4
 758 -24 758 -24 520 -24 c 0,5,6
 327 -24 327 -24 211.5 113.5 c 128,-1,7
 96 251 96 251 96 488 c 0,8,9
 96 742 96 742 224 895 c 128,-1,10
 352 1048 352 1048 565 1048 c 0,11,12
 776 1048 776 1048 872 882 c 1,13,-1
 876 882 l 1,14,-1
 876 1516 l 1,15,-1
 1040 1516 l 1,16,-1
 1040 0 l 1,0,-1
876 463 m 2,17,-1
 876 614 l 2,18,19
 876 738 876 738 794 824 c 128,-1,20
 712 910 712 910 586 910 c 0,21,22
 436 910 436 910 350 800 c 128,-1,23
 264 690 264 690 264 496 c 0,24,25
 264 319 264 319 346.5 216.5 c 128,-1,26
 429 114 429 114 568 114 c 0,27,28
 705 114 705 114 790.5 213 c 128,-1,29
 876 312 876 312 876 463 c 2,17,-1
EndSplineSet
EndChar

StartChar: e
Encoding: 101 101 72
Width: 1071
GlyphClass: 2
Flags: W
AnchorPoint: "Ancre-3" 600 0 basechar 0
AnchorPoint: "Ancre-1" 60 -400 basechar 0
AnchorPoint: "Ancre-0" -40 -400 basechar 0
LayerCount: 2
Fore
SplineSet
989 471 m 1,0,-1
 266 471 l 1,1,2
 270 300 270 300 358 207 c 128,-1,3
 446 114 446 114 600 114 c 0,4,5
 773 114 773 114 918 228 c 1,6,-1
 918 74 l 1,7,8
 783 -24 783 -24 561 -24 c 0,9,10
 344 -24 344 -24 220 115.5 c 128,-1,11
 96 255 96 255 96 508 c 0,12,13
 96 747 96 747 231.5 897.5 c 128,-1,14
 367 1048 367 1048 568 1048 c 256,15,16
 769 1048 769 1048 879 918 c 128,-1,17
 989 788 989 788 989 557 c 2,18,-1
 989 471 l 1,0,-1
821 610 m 1,19,20
 820 752 820 752 752.5 831 c 128,-1,21
 685 910 685 910 565 910 c 0,22,23
 449 910 449 910 368 827 c 128,-1,24
 287 744 287 744 268 610 c 1,25,-1
 821 610 l 1,19,20
EndSplineSet
EndChar

StartChar: f
Encoding: 102 102 73
Width: 641
GlyphClass: 2
Flags: W
LayerCount: 2
Fore
SplineSet
672 1372 m 1,0,1
 624 1399 624 1399 563 1399 c 0,2,3
 391 1399 391 1399 391 1182 c 2,4,-1
 391 1024 l 1,5,-1
 631 1024 l 1,6,-1
 631 884 l 1,7,-1
 391 884 l 1,8,-1
 391 0 l 1,9,-1
 228 0 l 1,10,-1
 228 884 l 1,11,-1
 53 884 l 1,12,-1
 53 1024 l 1,13,-1
 228 1024 l 1,14,-1
 228 1190 l 2,15,16
 228 1351 228 1351 321 1444.5 c 128,-1,17
 414 1538 414 1538 553 1538 c 0,18,19
 628 1538 628 1538 672 1520 c 1,20,-1
 672 1372 l 1,0,1
EndSplineSet
EndChar

StartChar: g
Encoding: 103 103 74
Width: 1206
GlyphClass: 2
Flags: W
LayerCount: 2
Fore
SplineSet
1040 82 m 2,0,1
 1040 -482 1040 -482 500 -482 c 0,2,3
 310 -482 310 -482 168 -410 c 1,4,-1
 168 -246 l 1,5,6
 341 -342 341 -342 498 -342 c 0,7,8
 876 -342 876 -342 876 60 c 2,9,-1
 876 172 l 1,10,-1
 872 172 l 1,11,12
 755 -24 755 -24 520 -24 c 0,13,14
 329 -24 329 -24 212.5 112.5 c 128,-1,15
 96 249 96 249 96 479 c 0,16,17
 96 740 96 740 221.5 894 c 128,-1,18
 347 1048 347 1048 565 1048 c 0,19,20
 772 1048 772 1048 872 882 c 1,21,-1
 876 882 l 1,22,-1
 876 1024 l 1,23,-1
 1040 1024 l 1,24,-1
 1040 82 l 2,0,1
876 463 m 2,25,-1
 876 614 l 2,26,27
 876 736 876 736 793.5 823 c 128,-1,28
 711 910 711 910 588 910 c 0,29,30
 436 910 436 910 350 799.5 c 128,-1,31
 264 689 264 689 264 490 c 0,32,33
 264 319 264 319 346.5 216.5 c 128,-1,34
 429 114 429 114 565 114 c 0,35,36
 703 114 703 114 789.5 212 c 128,-1,37
 876 310 876 310 876 463 c 2,25,-1
EndSplineSet
EndChar

StartChar: h
Encoding: 104 104 75
Width: 1159
GlyphClass: 2
Flags: W
LayerCount: 2
Fore
SplineSet
1016 0 m 1,0,-1
 852 0 l 1,1,-1
 852 590 l 2,2,3
 852 910 852 910 614 910 c 0,4,5
 494 910 494 910 412 817.5 c 128,-1,6
 330 725 330 725 330 580 c 2,7,-1
 330 0 l 1,8,-1
 166 0 l 1,9,-1
 166 1516 l 1,10,-1
 330 1516 l 1,11,-1
 330 854 l 1,12,-1
 334 854 l 1,13,14
 452 1048 452 1048 670 1048 c 0,15,16
 1016 1048 1016 1048 1016 631 c 2,17,-1
 1016 0 l 1,0,-1
EndSplineSet
EndChar

StartChar: i
Encoding: 105 105 76
Width: 496
GlyphClass: 2
Flags: W
AnchorPoint: "Ancre-3" 230 0 basechar 0
AnchorPoint: "Ancre-1" -500 -400 basechar 0
AnchorPoint: "Ancre-0" -360 -400 basechar 0
LayerCount: 2
Fore
SplineSet
250 1284 m 0,0,1
 206 1284 206 1284 175 1314 c 128,-1,2
 144 1344 144 1344 144 1390 c 256,3,4
 144 1436 144 1436 175 1466.5 c 128,-1,5
 206 1497 206 1497 250 1497 c 0,6,7
 295 1497 295 1497 326.5 1466.5 c 128,-1,8
 358 1436 358 1436 358 1390 c 0,9,10
 358 1346 358 1346 326.5 1315 c 128,-1,11
 295 1284 295 1284 250 1284 c 0,0,1
330 0 m 1,12,-1
 166 0 l 1,13,-1
 166 1024 l 1,14,-1
 330 1024 l 1,15,-1
 330 0 l 1,12,-1
EndSplineSet
EndChar

StartChar: j
Encoding: 106 106 77
Width: 496
GlyphClass: 2
Flags: W
LayerCount: 2
Fore
SplineSet
330 43 m 2,0,1
 330 -209 330 -209 228.5 -345.5 c 128,-1,2
 127 -482 127 -482 -62 -482 c 0,3,4
 -132 -482 -132 -482 -198 -450 c 1,5,-1
 -198 -297 l 1,6,7
 -124 -342 -124 -342 -58 -342 c 0,8,9
 166 -342 166 -342 166 16 c 2,10,-1
 166 1024 l 1,11,-1
 330 1024 l 1,12,-1
 330 43 l 2,0,1
250 1284 m 0,13,14
 206 1284 206 1284 175 1314 c 128,-1,15
 144 1344 144 1344 144 1390 c 256,16,17
 144 1436 144 1436 175 1466.5 c 128,-1,18
 206 1497 206 1497 250 1497 c 0,19,20
 295 1497 295 1497 326.5 1466.5 c 128,-1,21
 358 1436 358 1436 358 1390 c 0,22,23
 358 1346 358 1346 326.5 1315 c 128,-1,24
 295 1284 295 1284 250 1284 c 0,13,14
EndSplineSet
EndChar

StartChar: k
Encoding: 107 107 78
Width: 1018
GlyphClass: 2
Flags: W
LayerCount: 2
Fore
SplineSet
1016 0 m 1,0,-1
 786 0 l 1,1,-1
 334 492 l 1,2,-1
 330 492 l 1,3,-1
 330 0 l 1,4,-1
 166 0 l 1,5,-1
 166 1516 l 1,6,-1
 330 1516 l 1,7,-1
 330 555 l 1,8,-1
 334 555 l 1,9,-1
 764 1024 l 1,10,-1
 979 1024 l 1,11,-1
 504 530 l 1,12,-1
 1016 0 l 1,0,-1
EndSplineSet
EndChar

StartChar: l
Encoding: 108 108 79
Width: 496
GlyphClass: 2
Flags: W
LayerCount: 2
Fore
SplineSet
330 0 m 1,0,-1
 166 0 l 1,1,-1
 166 1516 l 1,2,-1
 330 1516 l 1,3,-1
 330 0 l 1,0,-1
EndSplineSet
EndChar

StartChar: m
Encoding: 109 109 80
Width: 1764
GlyphClass: 2
Flags: W
LayerCount: 2
Fore
SplineSet
1620 0 m 1,0,-1
 1456 0 l 1,1,-1
 1456 588 l 2,2,3
 1456 758 1456 758 1403.5 834 c 128,-1,4
 1351 910 1351 910 1227 910 c 0,5,6
 1122 910 1122 910 1048.5 814 c 128,-1,7
 975 718 975 718 975 584 c 2,8,-1
 975 0 l 1,9,-1
 811 0 l 1,10,-1
 811 608 l 2,11,12
 811 910 811 910 578 910 c 0,13,14
 470 910 470 910 400 819.5 c 128,-1,15
 330 729 330 729 330 584 c 2,16,-1
 330 0 l 1,17,-1
 166 0 l 1,18,-1
 166 1024 l 1,19,-1
 330 1024 l 1,20,-1
 330 862 l 1,21,-1
 334 862 l 1,22,23
 443 1048 443 1048 652 1048 c 0,24,25
 757 1048 757 1048 835 989.5 c 128,-1,26
 913 931 913 931 942 836 c 1,27,28
 1056 1048 1056 1048 1282 1048 c 0,29,30
 1620 1048 1620 1048 1620 631 c 2,31,-1
 1620 0 l 1,0,-1
EndSplineSet
EndChar

StartChar: n
Encoding: 110 110 81
Width: 1159
GlyphClass: 2
Flags: W
LayerCount: 2
Fore
SplineSet
1016 0 m 1,0,-1
 852 0 l 1,1,-1
 852 584 l 2,2,3
 852 910 852 910 614 910 c 0,4,5
 491 910 491 910 410.5 817.5 c 128,-1,6
 330 725 330 725 330 584 c 2,7,-1
 330 0 l 1,8,-1
 166 0 l 1,9,-1
 166 1024 l 1,10,-1
 330 1024 l 1,11,-1
 330 854 l 1,12,-1
 334 854 l 1,13,14
 450 1048 450 1048 670 1048 c 0,15,16
 838 1048 838 1048 927 939.5 c 128,-1,17
 1016 831 1016 831 1016 626 c 2,18,-1
 1016 0 l 1,0,-1
EndSplineSet
EndChar

StartChar: o
Encoding: 111 111 82
Width: 1200
GlyphClass: 2
Flags: W
AnchorPoint: "Ancre-3" 650 0 basechar 0
AnchorPoint: "Ancre-1" 140 -400 basechar 0
AnchorPoint: "Ancre-0" -40 -400 basechar 0
LayerCount: 2
Fore
SplineSet
594 -24 m 0,0,1
 367 -24 367 -24 231.5 119.5 c 128,-1,2
 96 263 96 263 96 500 c 0,3,4
 96 758 96 758 237 903 c 128,-1,5
 378 1048 378 1048 618 1048 c 0,6,7
 847 1048 847 1048 975.5 907 c 128,-1,8
 1104 766 1104 766 1104 516 c 0,9,10
 1104 271 1104 271 965.5 123.5 c 128,-1,11
 827 -24 827 -24 594 -24 c 0,0,1
606 910 m 0,12,13
 448 910 448 910 356 802.5 c 128,-1,14
 264 695 264 695 264 506 c 0,15,16
 264 324 264 324 357 219 c 128,-1,17
 450 114 450 114 606 114 c 0,18,19
 765 114 765 114 850.5 217 c 128,-1,20
 936 320 936 320 936 510 c 0,21,22
 936 702 936 702 850.5 806 c 128,-1,23
 765 910 765 910 606 910 c 0,12,13
EndSplineSet
EndChar

StartChar: p
Encoding: 112 112 83
Width: 1204
GlyphClass: 2
Flags: W
LayerCount: 2
Fore
SplineSet
334 148 m 1,0,-1
 330 148 l 1,1,-1
 330 -471 l 1,2,-1
 166 -471 l 1,3,-1
 166 1024 l 1,4,-1
 330 1024 l 1,5,-1
 330 844 l 1,6,-1
 334 844 l 1,7,8
 455 1048 455 1048 688 1048 c 0,9,10
 886 1048 886 1048 997 910.5 c 128,-1,11
 1108 773 1108 773 1108 542 c 0,12,13
 1108 285 1108 285 983 130.5 c 128,-1,14
 858 -24 858 -24 641 -24 c 0,15,16
 442 -24 442 -24 334 148 c 1,0,-1
330 561 m 2,17,-1
 330 418 l 2,18,19
 330 291 330 291 412.5 202.5 c 128,-1,20
 495 114 495 114 622 114 c 0,21,22
 771 114 771 114 855.5 228 c 128,-1,23
 940 342 940 342 940 545 c 0,24,25
 940 716 940 716 861 813 c 128,-1,26
 782 910 782 910 647 910 c 0,27,28
 504 910 504 910 417 810.5 c 128,-1,29
 330 711 330 711 330 561 c 2,17,-1
EndSplineSet
EndChar

StartChar: q
Encoding: 113 113 84
Width: 1206
GlyphClass: 2
Flags: W
LayerCount: 2
Fore
SplineSet
1040 -471 m 1,0,-1
 876 -471 l 1,1,-1
 876 176 l 1,2,-1
 872 176 l 1,3,4
 765 -24 765 -24 522 -24 c 0,5,6
 329 -24 329 -24 212.5 113.5 c 128,-1,7
 96 251 96 251 96 488 c 0,8,9
 96 743 96 743 224 895.5 c 128,-1,10
 352 1048 352 1048 568 1048 c 0,11,12
 778 1048 778 1048 872 882 c 1,13,-1
 876 882 l 1,14,-1
 876 1024 l 1,15,-1
 1040 1024 l 1,16,-1
 1040 -471 l 1,0,-1
876 461 m 2,17,-1
 876 610 l 2,18,19
 876 736 876 736 793.5 823 c 128,-1,20
 711 910 711 910 584 910 c 0,21,22
 436 910 436 910 350 800.5 c 128,-1,23
 264 691 264 691 264 492 c 0,24,25
 264 315 264 315 347 214.5 c 128,-1,26
 430 114 430 114 561 114 c 0,27,28
 705 114 705 114 790.5 212.5 c 128,-1,29
 876 311 876 311 876 461 c 2,17,-1
EndSplineSet
EndChar

StartChar: r
Encoding: 114 114 85
Width: 712
GlyphClass: 2
Flags: W
LayerCount: 2
Fore
SplineSet
700 858 m 1,0,1
 657 891 657 891 576 891 c 0,2,3
 471 891 471 891 400.5 792 c 128,-1,4
 330 693 330 693 330 522 c 2,5,-1
 330 0 l 1,6,-1
 166 0 l 1,7,-1
 166 1024 l 1,8,-1
 330 1024 l 1,9,-1
 330 813 l 1,10,-1
 334 813 l 1,11,12
 369 921 369 921 441 981.5 c 128,-1,13
 513 1042 513 1042 602 1042 c 0,14,15
 666 1042 666 1042 700 1028 c 1,16,-1
 700 858 l 1,0,1
EndSplineSet
EndChar

StartChar: s
Encoding: 115 115 86
Width: 869
GlyphClass: 2
Flags: W
LayerCount: 2
Fore
SplineSet
104 37 m 1,0,-1
 104 213 l 1,1,2
 238 114 238 114 399 114 c 0,3,4
 615 114 615 114 615 258 c 0,5,6
 615 299 615 299 596.5 327.5 c 128,-1,7
 578 356 578 356 546.5 378 c 128,-1,8
 515 400 515 400 472.5 417.5 c 128,-1,9
 430 435 430 435 381 454 c 0,10,11
 313 481 313 481 261.5 508.5 c 128,-1,12
 210 536 210 536 175.5 570.5 c 128,-1,13
 141 605 141 605 123.5 649 c 128,-1,14
 106 693 106 693 106 752 c 0,15,16
 106 824 106 824 139 879.5 c 128,-1,17
 172 935 172 935 227 972.5 c 128,-1,18
 282 1010 282 1010 352.5 1029 c 128,-1,19
 423 1048 423 1048 498 1048 c 0,20,21
 631 1048 631 1048 736 1002 c 1,22,-1
 736 836 l 1,23,24
 623 910 623 910 476 910 c 0,25,26
 430 910 430 910 393 899.5 c 128,-1,27
 356 889 356 889 329.5 870 c 128,-1,28
 303 851 303 851 288.5 824.5 c 128,-1,29
 274 798 274 798 274 766 c 0,30,31
 274 726 274 726 288.5 699 c 128,-1,32
 303 672 303 672 331 651 c 128,-1,33
 359 630 359 630 399 613 c 128,-1,34
 439 596 439 596 490 576 c 0,35,36
 558 550 558 550 612 522.5 c 128,-1,37
 666 495 666 495 704 460.5 c 128,-1,38
 742 426 742 426 762.5 381 c 128,-1,39
 783 336 783 336 783 274 c 0,40,41
 783 198 783 198 749.5 142 c 128,-1,42
 716 86 716 86 660 49 c 128,-1,43
 604 12 604 12 531 -6 c 128,-1,44
 458 -24 458 -24 378 -24 c 0,45,46
 220 -24 220 -24 104 37 c 1,0,-1
EndSplineSet
EndChar

StartChar: t
Encoding: 116 116 87
Width: 694
GlyphClass: 2
Flags: W
LayerCount: 2
Fore
SplineSet
641 10 m 1,0,1
 583 -22 583 -22 488 -22 c 0,2,3
 219 -22 219 -22 219 278 c 2,4,-1
 219 884 l 1,5,-1
 43 884 l 1,6,-1
 43 1024 l 1,7,-1
 219 1024 l 1,8,-1
 219 1274 l 1,9,-1
 383 1327 l 1,10,-1
 383 1024 l 1,11,-1
 641 1024 l 1,12,-1
 641 884 l 1,13,-1
 383 884 l 1,14,-1
 383 307 l 2,15,16
 383 204 383 204 418 160 c 128,-1,17
 453 116 453 116 534 116 c 0,18,19
 596 116 596 116 641 150 c 1,20,-1
 641 10 l 1,0,1
EndSplineSet
EndChar

StartChar: u
Encoding: 117 117 88
Width: 1159
GlyphClass: 2
Flags: W
AnchorPoint: "Ancre-3" 880 0 basechar 0
AnchorPoint: "Ancre-1" 120 -400 basechar 0
AnchorPoint: "Ancre-0" -40 -400 basechar 0
LayerCount: 2
Fore
SplineSet
994 0 m 1,0,-1
 830 0 l 1,1,-1
 830 162 l 1,2,-1
 826 162 l 1,3,4
 724 -24 724 -24 510 -24 c 0,5,6
 144 -24 144 -24 144 412 c 2,7,-1
 144 1024 l 1,8,-1
 307 1024 l 1,9,-1
 307 438 l 2,10,11
 307 114 307 114 555 114 c 0,12,13
 675 114 675 114 752.5 202.5 c 128,-1,14
 830 291 830 291 830 434 c 2,15,-1
 830 1024 l 1,16,-1
 994 1024 l 1,17,-1
 994 0 l 1,0,-1
EndSplineSet
EndChar

StartChar: v
Encoding: 118 118 89
Width: 981
GlyphClass: 2
Flags: W
LayerCount: 2
Fore
SplineSet
971 1024 m 1,0,-1
 563 0 l 1,1,-1
 402 0 l 1,2,-1
 14 1024 l 1,3,-1
 194 1024 l 1,4,-1
 454 280 l 2,5,6
 483 198 483 198 490 137 c 1,7,-1
 494 137 l 1,8,9
 504 214 504 214 526 276 c 2,10,-1
 798 1024 l 1,11,-1
 971 1024 l 1,0,-1
EndSplineSet
EndChar

StartChar: w
Encoding: 119 119 90
Width: 1480
GlyphClass: 2
Flags: W
LayerCount: 2
Fore
SplineSet
1456 1024 m 1,0,-1
 1149 0 l 1,1,-1
 979 0 l 1,2,-1
 768 733 l 2,3,4
 756 775 756 775 752 828 c 1,5,-1
 748 828 l 1,6,7
 745 792 745 792 727 735 c 2,8,-1
 498 0 l 1,9,-1
 334 0 l 1,10,-1
 24 1024 l 1,11,-1
 196 1024 l 1,12,-1
 408 254 l 2,13,14
 418 219 418 219 422 162 c 1,15,-1
 430 162 l 1,16,17
 433 206 433 206 448 256 c 2,18,-1
 684 1024 l 1,19,-1
 834 1024 l 1,20,-1
 1046 252 l 2,21,22
 1056 215 1056 215 1061 160 c 1,23,-1
 1069 160 l 1,24,25
 1071 199 1071 199 1086 252 c 2,26,-1
 1294 1024 l 1,27,-1
 1456 1024 l 1,0,-1
EndSplineSet
EndChar

StartChar: x
Encoding: 120 120 91
Width: 940
GlyphClass: 2
Flags: W
LayerCount: 2
Fore
SplineSet
914 1024 m 1,0,-1
 570 506 l 1,1,-1
 908 0 l 1,2,-1
 717 0 l 1,3,-1
 516 332 l 2,4,5
 497 363 497 363 471 410 c 1,6,-1
 467 410 l 1,7,8
 462 401 462 401 420 332 c 2,9,-1
 215 0 l 1,10,-1
 26 0 l 1,11,-1
 375 502 l 1,12,-1
 41 1024 l 1,13,-1
 232 1024 l 1,14,-1
 430 674 l 2,15,16
 452 635 452 635 473 594 c 1,17,-1
 477 594 l 1,18,-1
 733 1024 l 1,19,-1
 914 1024 l 1,0,-1
EndSplineSet
EndChar

StartChar: y
Encoding: 121 121 92
Width: 991
GlyphClass: 2
Flags: W
LayerCount: 2
Fore
SplineSet
981 1024 m 1,0,-1
 510 -164 l 2,1,2
 384 -482 384 -482 156 -482 c 0,3,4
 92 -482 92 -482 49 -469 c 1,5,-1
 49 -322 l 1,6,7
 102 -340 102 -340 146 -340 c 0,8,9
 270 -340 270 -340 332 -192 c 2,10,-1
 414 2 l 1,11,-1
 14 1024 l 1,12,-1
 196 1024 l 1,13,-1
 473 236 l 2,14,15
 478 221 478 221 494 158 c 1,16,-1
 500 158 l 1,17,18
 505 182 505 182 520 234 c 2,19,-1
 811 1024 l 1,20,-1
 981 1024 l 1,0,-1
EndSplineSet
EndChar

StartChar: z
Encoding: 122 122 93
Width: 926
GlyphClass: 2
Flags: W
LayerCount: 2
Fore
SplineSet
880 977 m 1,0,-1
 274 140 l 1,1,-1
 874 140 l 1,2,-1
 874 0 l 1,3,-1
 33 0 l 1,4,-1
 33 51 l 1,5,-1
 639 884 l 1,6,-1
 90 884 l 1,7,-1
 90 1024 l 1,8,-1
 880 1024 l 1,9,-1
 880 977 l 1,0,-1
EndSplineSet
EndChar

StartChar: braceleft
Encoding: 123 123 94
Width: 618
GlyphClass: 2
Flags: W
LayerCount: 2
Fore
SplineSet
555 -326 m 1,0,1
 248 -322 248 -322 248 -16 c 2,2,-1
 248 284 l 2,3,4
 248 486 248 486 92 496 c 1,5,-1
 92 612 l 1,6,7
 248 622 248 622 248 828 c 2,8,-1
 248 1120 l 2,9,10
 248 1430 248 1430 555 1434 c 1,11,-1
 555 1306 l 1,12,13
 396 1302 396 1302 396 1108 c 2,14,-1
 396 815 l 2,15,16
 396 605 396 605 246 557 c 1,17,-1
 246 553 l 1,18,19
 396 508 396 508 396 297 c 2,20,-1
 396 8 l 2,21,22
 396 -103 396 -103 431.5 -150.5 c 128,-1,23
 467 -198 467 -198 555 -200 c 1,24,-1
 555 -326 l 1,0,1
EndSplineSet
EndChar

StartChar: bar
Encoding: 124 124 95
Width: 490
GlyphClass: 2
Flags: W
LayerCount: 2
Fore
SplineSet
320 -482 m 1,0,-1
 172 -482 l 1,1,-1
 172 1566 l 1,2,-1
 320 1566 l 1,3,-1
 320 -482 l 1,0,-1
EndSplineSet
EndChar

StartChar: braceright
Encoding: 125 125 96
Width: 618
GlyphClass: 2
Flags: W
LayerCount: 2
Fore
SplineSet
528 496 m 1,0,1
 372 486 372 486 372 284 c 2,2,-1
 372 -16 l 2,3,4
 372 -322 372 -322 66 -326 c 1,5,-1
 66 -200 l 1,6,7
 153 -198 153 -198 189.5 -150 c 128,-1,8
 226 -102 226 -102 226 8 c 2,9,-1
 226 297 l 2,10,11
 226 508 226 508 375 553 c 1,12,-1
 375 557 l 1,13,14
 226 605 226 605 226 815 c 2,15,-1
 226 1108 l 2,16,17
 226 1302 226 1302 66 1306 c 1,18,-1
 66 1434 l 1,19,20
 372 1430 372 1430 372 1120 c 2,21,-1
 372 828 l 2,22,23
 372 622 372 622 528 612 c 1,24,-1
 528 496 l 1,0,1
EndSplineSet
EndChar

StartChar: asciitilde
Encoding: 126 126 97
Width: 1401
GlyphClass: 2
Flags: W
LayerCount: 2
Fore
SplineSet
1194 750 m 1,0,1
 1187 602 1187 602 1113.5 521 c 128,-1,2
 1040 440 1040 440 914 440 c 0,3,4
 805 440 805 440 649 549 c 0,5,6
 552 616 552 616 490 616 c 0,7,8
 350 616 350 616 344 440 c 1,9,-1
 209 440 l 1,10,11
 214 583 214 583 288.5 666.5 c 128,-1,12
 363 750 363 750 490 750 c 0,13,14
 596 750 596 750 725 662 c 0,15,16
 857 572 857 572 922 572 c 0,17,18
 983 572 983 572 1020 621 c 128,-1,19
 1057 670 1057 670 1059 750 c 1,20,-1
 1194 750 l 1,0,1
EndSplineSet
EndChar

StartChar: Aring
Encoding: 197 197 99
Width: 1321
GlyphClass: 2
Flags: W
LayerCount: 2
Fore
SplineSet
1298 0 m 1,0,-1
 1112 0 l 1,1,-1
 960 402 l 1,2,-1
 352 402 l 1,3,-1
 209 0 l 1,4,-1
 22 0 l 1,5,-1
 551 1378 l 1,6,7
 450 1430 450 1430 450 1542 c 0,8,9
 450 1631 450 1631 510 1686 c 128,-1,10
 570 1741 570 1741 662 1741 c 0,11,12
 750 1741 750 1741 806 1686.5 c 128,-1,13
 862 1632 862 1632 862 1548 c 0,14,15
 862 1436 862 1436 766 1382 c 1,16,-1
 1298 0 l 1,0,-1
656 1659 m 0,17,18
 606 1659 606 1659 574 1627.5 c 128,-1,19
 542 1596 542 1596 542 1548 c 0,20,21
 542 1434 542 1434 656 1434 c 0,22,23
 704 1434 704 1434 737 1467 c 128,-1,24
 770 1500 770 1500 770 1548 c 0,25,26
 770 1597 770 1597 737 1628 c 128,-1,27
 704 1659 704 1659 656 1659 c 0,17,18
905 553 m 1,28,-1
 680 1164 l 2,29,30
 669 1194 669 1194 658 1260 c 1,31,-1
 654 1260 l 1,32,33
 644 1199 644 1199 631 1164 c 2,34,-1
 408 553 l 1,35,-1
 905 553 l 1,28,-1
EndSplineSet
EndChar

StartChar: dagger
Encoding: 8224 8224 130
Width: 768
GlyphClass: 2
Flags: W
LayerCount: 2
Fore
SplineSet
728 893 m 1,0,-1
 466 923 l 1,1,-1
 426 229 l 1,2,-1
 350 229 l 1,3,-1
 310 923 l 1,4,-1
 48 893 l 1,5,-1
 48 1043 l 1,6,-1
 350 1023 l 1,7,-1
 310 1433 l 1,8,-1
 466 1433 l 1,9,-1
 426 1023 l 1,10,-1
 728 1043 l 1,11,-1
 728 893 l 1,0,-1
EndSplineSet
EndChar

StartChar: degree
Encoding: 176 176 131
Width: 772
GlyphClass: 2
Flags: W
LayerCount: 2
Fore
SplineSet
385 897 m 256,0,1
 270 897 270 897 189 978.5 c 128,-1,2
 108 1060 108 1060 108 1176 c 0,3,4
 108 1291 108 1291 188 1370.5 c 128,-1,5
 268 1450 268 1450 383 1450 c 0,6,7
 499 1450 499 1450 580.5 1370 c 128,-1,8
 662 1290 662 1290 662 1176 c 0,9,10
 662 1060 662 1060 581 978.5 c 128,-1,11
 500 897 500 897 385 897 c 256,0,1
385 1333 m 256,12,13
 320 1333 320 1333 274 1287 c 128,-1,14
 228 1241 228 1241 228 1176 c 0,15,16
 228 1109 228 1109 273 1061.5 c 128,-1,17
 318 1014 318 1014 383 1014 c 256,18,19
 448 1014 448 1014 495 1062 c 128,-1,20
 542 1110 542 1110 542 1176 c 256,21,22
 542 1242 542 1242 496 1287.5 c 128,-1,23
 450 1333 450 1333 385 1333 c 256,12,13
EndSplineSet
EndChar

StartChar: cent
Encoding: 162 162 132
Width: 1104
GlyphClass: 2
Flags: W
LayerCount: 2
Fore
SplineSet
952 209 m 1,0,1
 856 150 856 150 731 140 c 1,2,-1
 731 -49 l 1,3,-1
 606 -49 l 1,4,-1
 606 142 l 1,5,6
 413 164 413 164 298.5 303 c 128,-1,7
 184 442 184 442 184 649 c 0,8,9
 184 868 184 868 298.5 1015.5 c 128,-1,10
 413 1163 413 1163 606 1200 c 1,11,-1
 606 1413 l 1,12,-1
 731 1413 l 1,13,-1
 731 1210 l 1,14,15
 854 1208 854 1208 952 1159 c 1,16,-1
 952 987 l 1,17,18
 851 1058 851 1058 731 1065 c 1,19,-1
 731 280 l 1,20,21
 853 292 853 292 952 366 c 1,22,-1
 952 209 l 1,0,1
606 291 m 1,23,-1
 606 1052 l 1,24,25
 487 1021 487 1021 419.5 918.5 c 128,-1,26
 352 816 352 816 352 666 c 256,27,28
 352 516 352 516 420 417 c 128,-1,29
 488 318 488 318 606 291 c 1,23,-1
EndSplineSet
EndChar

StartChar: sterling
Encoding: 163 163 133
Width: 1104
GlyphClass: 2
Flags: W
LayerCount: 2
Fore
SplineSet
1006 0 m 1,0,-1
 106 0 l 1,1,-1
 106 135 l 1,2,3
 324 204 324 204 324 448 c 2,4,-1
 324 635 l 1,5,-1
 127 635 l 1,6,-1
 127 776 l 1,7,-1
 324 776 l 1,8,-1
 324 1030 l 2,9,10
 324 1218 324 1218 433 1338 c 128,-1,11
 542 1458 542 1458 715 1458 c 0,12,13
 832 1458 832 1458 928 1417 c 1,14,-1
 928 1262 l 1,15,16
 828 1319 828 1319 717 1319 c 0,17,18
 488 1319 488 1319 488 1012 c 2,19,-1
 488 776 l 1,20,-1
 784 776 l 1,21,-1
 784 635 l 1,22,-1
 488 635 l 1,23,-1
 488 479 l 2,24,25
 488 237 488 237 295 140 c 1,26,-1
 1006 140 l 1,27,-1
 1006 0 l 1,0,-1
EndSplineSet
EndChar

StartChar: section
Encoding: 167 167 134
Width: 918
GlyphClass: 2
Flags: W
LayerCount: 2
Fore
SplineSet
658 416 m 1,0,1
 748 342 748 342 748 230 c 0,2,3
 748 98 748 98 648 16 c 128,-1,4
 548 -66 548 -66 393 -66 c 0,5,6
 262 -66 262 -66 154 -10 c 1,7,-1
 154 148 l 1,8,9
 284 74 284 74 404 74 c 0,10,11
 488 74 488 74 534 113.5 c 128,-1,12
 580 153 580 153 580 213 c 0,13,14
 580 266 580 266 544.5 302.5 c 128,-1,15
 509 339 509 339 364 416 c 0,16,17
 131 538 131 538 131 733 c 0,18,19
 131 896 131 896 278 977 c 1,20,21
 172 1060 172 1060 172 1200 c 0,22,23
 172 1327 172 1327 265.5 1409 c 128,-1,24
 359 1491 359 1491 512 1491 c 0,25,26
 642 1491 642 1491 731 1448 c 1,27,-1
 731 1290 l 1,28,29
 630 1352 630 1352 508 1352 c 0,30,31
 340 1352 340 1352 340 1208 c 0,32,33
 340 1153 340 1153 380.5 1108 c 128,-1,34
 421 1063 421 1063 584 985 c 0,35,36
 807 878 807 878 807 692 c 0,37,38
 807 522 807 522 658 416 c 1,0,1
398 905 m 1,39,40
 297 854 297 854 297 746 c 0,41,42
 297 674 297 674 353.5 619.5 c 128,-1,43
 410 565 410 565 551 502 c 1,44,45
 639 570 639 570 639 674 c 0,46,47
 639 746 639 746 586.5 796.5 c 128,-1,48
 534 847 534 847 398 905 c 1,39,40
EndSplineSet
EndChar

StartChar: bullet
Encoding: 8226 8226 135
Width: 832
GlyphClass: 2
Flags: W
LayerCount: 2
Fore
SplineSet
418 408 m 256,0,1
 314 408 314 408 239 481 c 128,-1,2
 164 554 164 554 164 658 c 0,3,4
 164 761 164 761 239 836.5 c 128,-1,5
 314 912 314 912 418 912 c 256,6,7
 522 912 522 912 595 837 c 128,-1,8
 668 762 668 762 668 658 c 256,9,10
 668 554 668 554 595 481 c 128,-1,11
 522 408 522 408 418 408 c 256,0,1
EndSplineSet
EndChar

StartChar: paragraph
Encoding: 182 182 136
Width: 938
GlyphClass: 2
Flags: W
LayerCount: 2
Fore
SplineSet
834 1331 m 1,0,-1
 706 1331 l 1,1,-1
 706 0 l 1,2,-1
 600 0 l 1,3,-1
 600 1331 l 1,4,-1
 442 1331 l 1,5,-1
 442 0 l 1,6,-1
 334 0 l 1,7,-1
 334 903 l 1,8,9
 226 903 226 903 155 979 c 128,-1,10
 84 1055 84 1055 84 1170 c 0,11,12
 84 1287 84 1287 158.5 1360.5 c 128,-1,13
 233 1434 233 1434 340 1434 c 2,14,-1
 834 1434 l 1,15,-1
 834 1331 l 1,0,-1
EndSplineSet
EndChar

StartChar: germandbls
Encoding: 223 223 137
Width: 1114
GlyphClass: 2
Flags: W
LayerCount: 2
Fore
SplineSet
461 2 m 1,0,-1
 461 162 l 1,1,2
 536 114 536 114 631 114 c 0,3,4
 740 114 740 114 808 187.5 c 128,-1,5
 876 261 876 261 876 385 c 0,6,7
 876 535 876 535 776 628.5 c 128,-1,8
 676 722 676 722 498 742 c 1,9,-1
 498 872 l 1,10,11
 616 892 616 892 692 975 c 128,-1,12
 768 1058 768 1058 768 1172 c 0,13,14
 768 1280 768 1280 713 1339.5 c 128,-1,15
 658 1399 658 1399 561 1399 c 0,16,17
 330 1399 330 1399 330 1090 c 2,18,-1
 330 0 l 1,19,-1
 166 0 l 1,20,-1
 166 1114 l 2,21,22
 166 1306 166 1306 276 1422 c 128,-1,23
 386 1538 386 1538 572 1538 c 0,24,25
 738 1538 738 1538 837 1443 c 128,-1,26
 936 1348 936 1348 936 1192 c 0,27,28
 936 1065 936 1065 861 964 c 128,-1,29
 786 863 786 863 666 824 c 1,30,-1
 666 819 l 1,31,32
 1044 744 1044 744 1044 393 c 0,33,34
 1044 216 1044 216 933 96 c 128,-1,35
 822 -24 822 -24 639 -24 c 0,36,37
 538 -24 538 -24 461 2 c 1,0,-1
EndSplineSet
EndChar

StartChar: registered
Encoding: 174 174 139
Width: 1823
GlyphClass: 2
Flags: W
LayerCount: 2
Fore
SplineSet
912 -33 m 0,0,1
 601 -33 601 -33 381.5 186.5 c 128,-1,2
 162 406 162 406 162 717 c 256,3,4
 162 1028 162 1028 381.5 1247.5 c 128,-1,5
 601 1467 601 1467 912 1467 c 0,6,7
 1222 1467 1222 1467 1441.5 1247.5 c 128,-1,8
 1661 1028 1661 1028 1661 717 c 256,9,10
 1661 406 1661 406 1441.5 186.5 c 128,-1,11
 1222 -33 1222 -33 912 -33 c 0,0,1
912 1379 m 256,12,13
 638 1379 638 1379 444 1185 c 128,-1,14
 250 991 250 991 250 717 c 256,15,16
 250 443 250 443 444 249.5 c 128,-1,17
 638 56 638 56 912 56 c 256,18,19
 1186 56 1186 56 1379.5 249.5 c 128,-1,20
 1573 443 1573 443 1573 717 c 256,21,22
 1573 991 1573 991 1379.5 1185 c 128,-1,23
 1186 1379 1186 1379 912 1379 c 256,12,13
1276 248 m 1,24,-1
 1114 248 l 1,25,-1
 1010 477 l 2,26,27
 931 649 931 649 840 649 c 2,28,-1
 752 649 l 1,29,-1
 752 248 l 1,30,-1
 619 248 l 1,31,-1
 619 1202 l 1,32,-1
 887 1202 l 2,33,34
 1054 1202 1054 1202 1144.5 1132 c 128,-1,35
 1235 1062 1235 1062 1235 942 c 0,36,37
 1235 844 1235 844 1171.5 775 c 128,-1,38
 1108 706 1108 706 994 682 c 1,39,-1
 994 678 l 1,40,41
 1073 661 1073 661 1151 502 c 2,42,-1
 1276 248 l 1,24,-1
752 1088 m 1,43,-1
 752 762 l 1,44,-1
 895 762 l 2,45,46
 1092 762 1092 762 1092 926 c 0,47,48
 1092 1014 1092 1014 1039 1051 c 128,-1,49
 986 1088 986 1088 871 1088 c 2,50,-1
 752 1088 l 1,43,-1
EndSplineSet
EndChar

StartChar: copyright
Encoding: 169 169 140
Width: 1823
GlyphClass: 2
Flags: W
LayerCount: 2
Fore
SplineSet
912 -33 m 0,0,1
 601 -33 601 -33 381.5 186.5 c 128,-1,2
 162 406 162 406 162 717 c 256,3,4
 162 1028 162 1028 381.5 1247.5 c 128,-1,5
 601 1467 601 1467 912 1467 c 0,6,7
 1222 1467 1222 1467 1441.5 1247.5 c 128,-1,8
 1661 1028 1661 1028 1661 717 c 256,9,10
 1661 406 1661 406 1441.5 186.5 c 128,-1,11
 1222 -33 1222 -33 912 -33 c 0,0,1
912 1379 m 256,12,13
 638 1379 638 1379 444 1185 c 128,-1,14
 250 991 250 991 250 717 c 256,15,16
 250 443 250 443 444 249.5 c 128,-1,17
 638 56 638 56 912 56 c 256,18,19
 1186 56 1186 56 1379.5 249.5 c 128,-1,20
 1573 443 1573 443 1573 717 c 256,21,22
 1573 991 1573 991 1379.5 1185 c 128,-1,23
 1186 1379 1186 1379 912 1379 c 256,12,13
1213 266 m 1,24,25
 1099 197 1099 197 944 197 c 0,26,27
 735 197 735 197 594 338.5 c 128,-1,28
 453 480 453 480 453 692 c 0,29,30
 453 939 453 939 597.5 1086 c 128,-1,31
 742 1233 742 1233 973 1233 c 0,32,33
 1105 1233 1105 1233 1209 1180 c 1,34,-1
 1209 1030 l 1,35,36
 1114 1102 1114 1102 955 1102 c 0,37,38
 799 1102 799 1102 697.5 995.5 c 128,-1,39
 596 889 596 889 596 709 c 0,40,41
 596 535 596 535 699.5 429.5 c 128,-1,42
 803 324 803 324 963 324 c 0,43,44
 1109 324 1109 324 1213 402 c 1,45,-1
 1213 266 l 1,24,25
EndSplineSet
EndChar

StartChar: trademark
Encoding: 8482 8482 141
Width: 1583
GlyphClass: 2
Flags: W
LayerCount: 2
Fore
SplineSet
1396 772 m 1,0,-1
 1288 772 l 1,1,-1
 1288 1250 l 1,2,-1
 1284 1250 l 1,3,-1
 1065 772 l 1,4,-1
 1006 772 l 1,5,-1
 792 1250 l 1,6,-1
 788 1250 l 1,7,-1
 788 772 l 1,8,-1
 686 772 l 1,9,-1
 686 1434 l 1,10,-1
 813 1434 l 1,11,-1
 1038 938 l 1,12,-1
 1042 938 l 1,13,-1
 1270 1434 l 1,14,-1
 1396 1434 l 1,15,-1
 1396 772 l 1,0,-1
602 1336 m 1,16,-1
 393 1336 l 1,17,-1
 393 772 l 1,18,-1
 282 772 l 1,19,-1
 282 1336 l 1,20,-1
 76 1336 l 1,21,-1
 76 1434 l 1,22,-1
 602 1434 l 1,23,-1
 602 1336 l 1,16,-1
EndSplineSet
EndChar

StartChar: acute
Encoding: 180 180 142
Width: 578
GlyphClass: 2
Flags: W
LayerCount: 2
Fore
SplineSet
524 1546 m 1,0,-1
 262 1218 l 1,1,-1
 135 1218 l 1,2,-1
 358 1546 l 1,3,-1
 524 1546 l 1,0,-1
EndSplineSet
EndChar

StartChar: dieresis
Encoding: 168 168 143
Width: 848
GlyphClass: 2
Flags: W
LayerCount: 2
Fore
SplineSet
610 1218 m 0,0,1
 570 1218 570 1218 541 1246 c 128,-1,2
 512 1274 512 1274 512 1317 c 0,3,4
 512 1359 512 1359 540 1387 c 128,-1,5
 568 1415 568 1415 608 1415 c 0,6,7
 650 1415 650 1415 679 1386.5 c 128,-1,8
 708 1358 708 1358 708 1317 c 256,9,10
 708 1276 708 1276 680 1247 c 128,-1,11
 652 1218 652 1218 610 1218 c 0,0,1
226 1218 m 0,12,13
 184 1218 184 1218 154.5 1247.5 c 128,-1,14
 125 1277 125 1277 125 1317 c 0,15,16
 125 1359 125 1359 153.5 1387 c 128,-1,17
 182 1415 182 1415 223 1415 c 256,18,19
 264 1415 264 1415 294 1386.5 c 128,-1,20
 324 1358 324 1358 324 1317 c 256,21,22
 324 1276 324 1276 295 1247 c 128,-1,23
 266 1218 266 1218 226 1218 c 0,12,13
EndSplineSet
EndChar

StartChar: notequal
Encoding: 8800 8800 144
Width: 1403
GlyphClass: 2
Flags: W
LayerCount: 2
Fore
SplineSet
1172 318 m 1,0,-1
 622 318 l 1,1,-1
 459 0 l 1,2,-1
 318 0 l 1,3,-1
 482 318 l 1,4,-1
 232 318 l 1,5,-1
 232 450 l 1,6,-1
 551 450 l 1,7,-1
 700 744 l 1,8,-1
 232 744 l 1,9,-1
 232 876 l 1,10,-1
 770 876 l 1,11,-1
 928 1188 l 1,12,-1
 1069 1188 l 1,13,-1
 910 876 l 1,14,-1
 1172 876 l 1,15,-1
 1172 744 l 1,16,-1
 842 744 l 1,17,-1
 690 450 l 1,18,-1
 1172 450 l 1,19,-1
 1172 318 l 1,0,-1
EndSplineSet
EndChar

StartChar: AE
Encoding: 198 198 145
Width: 1762
GlyphClass: 2
Flags: W
LayerCount: 2
Fore
SplineSet
1667 0 m 1,0,-1
 908 0 l 1,1,-1
 908 402 l 1,2,-1
 398 402 l 1,3,-1
 205 0 l 1,4,-1
 10 0 l 1,5,-1
 710 1434 l 1,6,-1
 1634 1434 l 1,7,-1
 1634 1282 l 1,8,-1
 1075 1282 l 1,9,-1
 1075 805 l 1,10,-1
 1594 805 l 1,11,-1
 1594 654 l 1,12,-1
 1075 654 l 1,13,-1
 1075 152 l 1,14,-1
 1667 152 l 1,15,-1
 1667 0 l 1,0,-1
908 553 m 1,16,-1
 908 1282 l 1,17,-1
 813 1282 l 1,18,-1
 467 553 l 1,19,-1
 908 553 l 1,16,-1
EndSplineSet
EndChar

StartChar: Oslash
Encoding: 216 216 146
Width: 1544
GlyphClass: 2
Flags: W
LayerCount: 2
Fore
SplineSet
324 131 m 1,0,-1
 172 -51 l 1,1,-1
 94 14 l 1,2,-1
 252 205 l 1,3,4
 94 400 94 400 94 700 c 0,5,6
 94 1043 94 1043 280.5 1250.5 c 128,-1,7
 467 1458 467 1458 790 1458 c 0,8,9
 1024 1458 1024 1458 1192 1329 c 1,10,-1
 1327 1491 l 1,11,-1
 1405 1428 l 1,12,-1
 1266 1262 l 1,13,14
 1450 1062 1450 1062 1450 735 c 0,15,16
 1450 384 1450 384 1264 180 c 128,-1,17
 1078 -24 1078 -24 766 -24 c 0,18,19
 500 -24 500 -24 324 131 c 1,0,-1
1090 1204 m 1,20,21
 964 1306 964 1306 778 1306 c 0,22,23
 551 1306 551 1306 410.5 1142 c 128,-1,24
 270 978 270 978 270 715 c 0,25,26
 270 492 270 492 368 342 c 1,27,-1
 1090 1204 l 1,20,21
1157 1130 m 1,28,-1
 432 264 l 1,29,30
 563 127 563 127 766 127 c 0,31,32
 1002 127 1002 127 1138 281.5 c 128,-1,33
 1274 436 1274 436 1274 712 c 0,34,35
 1274 972 1274 972 1157 1130 c 1,28,-1
EndSplineSet
EndChar

StartChar: infinity
Encoding: 8734 8734 147
Width: 1673
GlyphClass: 2
Flags: W
LayerCount: 2
Fore
SplineSet
836 482 m 1,0,1
 668 207 668 207 454 207 c 0,2,3
 289 207 289 207 185.5 313.5 c 128,-1,4
 82 420 82 420 82 592 c 0,5,6
 82 754 82 754 190 869.5 c 128,-1,7
 298 985 298 985 454 985 c 0,8,9
 690 985 690 985 840 712 c 1,10,11
 1004 985 1004 985 1220 985 c 0,12,13
 1386 985 1386 985 1490 878.5 c 128,-1,14
 1594 772 1594 772 1594 600 c 0,15,16
 1594 439 1594 439 1486 323 c 128,-1,17
 1378 207 1378 207 1220 207 c 0,18,19
 994 207 994 207 836 482 c 1,0,1
901 596 m 1,20,21
 1032 336 1032 336 1220 336 c 0,22,23
 1329 336 1329 336 1394.5 408.5 c 128,-1,24
 1460 481 1460 481 1460 600 c 0,25,26
 1460 712 1460 712 1392 786 c 128,-1,27
 1324 860 1324 860 1220 860 c 0,28,29
 1047 860 1047 860 901 596 c 1,20,21
774 598 m 1,30,31
 642 860 642 860 454 860 c 0,32,33
 344 860 344 860 278.5 785 c 128,-1,34
 213 710 213 710 213 592 c 0,35,36
 213 482 213 482 280.5 409 c 128,-1,37
 348 336 348 336 454 336 c 0,38,39
 630 336 630 336 774 598 c 1,30,31
EndSplineSet
EndChar

StartChar: plusminus
Encoding: 177 177 148
Width: 1401
GlyphClass: 2
Flags: W
LayerCount: 2
Fore
SplineSet
1172 652 m 1,0,-1
 768 652 l 1,1,-1
 768 248 l 1,2,-1
 637 248 l 1,3,-1
 637 652 l 1,4,-1
 232 652 l 1,5,-1
 232 784 l 1,6,-1
 637 784 l 1,7,-1
 637 1188 l 1,8,-1
 768 1188 l 1,9,-1
 768 784 l 1,10,-1
 1172 784 l 1,11,-1
 1172 652 l 1,0,-1
1172 0 m 1,12,-1
 232 0 l 1,13,-1
 232 133 l 1,14,-1
 1172 133 l 1,15,-1
 1172 0 l 1,12,-1
EndSplineSet
EndChar

StartChar: lessequal
Encoding: 8804 8804 149
Width: 1403
GlyphClass: 2
Flags: W
LayerCount: 2
Fore
SplineSet
1132 254 m 1,0,-1
 272 688 l 1,1,-1
 272 746 l 1,2,-1
 1132 1227 l 1,3,-1
 1132 1077 l 1,4,-1
 490 723 l 1,5,-1
 490 719 l 1,6,-1
 1132 406 l 1,7,-1
 1132 254 l 1,0,-1
1172 0 m 1,8,-1
 232 0 l 1,9,-1
 232 133 l 1,10,-1
 1172 133 l 1,11,-1
 1172 0 l 1,8,-1
EndSplineSet
EndChar

StartChar: greaterequal
Encoding: 8805 8805 150
Width: 1403
GlyphClass: 2
Flags: W
LayerCount: 2
Fore
SplineSet
1132 690 m 1,0,-1
 272 256 l 1,1,-1
 272 408 l 1,2,-1
 916 717 l 1,3,-1
 916 723 l 1,4,-1
 272 1080 l 1,5,-1
 272 1229 l 1,6,-1
 1132 748 l 1,7,-1
 1132 690 l 1,0,-1
1172 0 m 1,8,-1
 232 0 l 1,9,-1
 232 133 l 1,10,-1
 1172 133 l 1,11,-1
 1172 0 l 1,8,-1
EndSplineSet
EndChar

StartChar: yen
Encoding: 165 165 151
Width: 1104
GlyphClass: 2
Flags: W
LayerCount: 2
Fore
SplineSet
1042 1434 m 1,0,-1
 686 778 l 1,1,-1
 971 778 l 1,2,-1
 971 639 l 1,3,-1
 637 639 l 1,4,-1
 637 432 l 1,5,-1
 971 432 l 1,6,-1
 971 293 l 1,7,-1
 637 293 l 1,8,-1
 637 0 l 1,9,-1
 473 0 l 1,10,-1
 473 293 l 1,11,-1
 129 293 l 1,12,-1
 129 432 l 1,13,-1
 473 432 l 1,14,-1
 473 639 l 1,15,-1
 129 639 l 1,16,-1
 129 778 l 1,17,-1
 420 778 l 1,18,-1
 68 1434 l 1,19,-1
 260 1434 l 1,20,-1
 510 920 l 2,21,22
 538 862 538 862 557 809 c 1,23,-1
 561 809 l 1,24,25
 574 851 574 851 610 926 c 2,26,-1
 862 1434 l 1,27,-1
 1042 1434 l 1,0,-1
EndSplineSet
EndChar

StartChar: mu
Encoding: 181 181 152
Width: 1182
GlyphClass: 2
Flags: W
LayerCount: 2
Fore
SplineSet
1048 0 m 1,0,-1
 878 0 l 1,1,2
 855 72 855 72 855 168 c 1,3,-1
 850 168 l 1,4,5
 766 -23 766 -23 571 -23 c 0,6,7
 404 -23 404 -23 333 100 c 1,8,-1
 329 100 l 1,9,-1
 329 -396 l 1,10,-1
 166 -396 l 1,11,-1
 166 1024 l 1,12,-1
 329 1024 l 1,13,-1
 329 398 l 2,14,15
 329 271 329 271 398 196 c 128,-1,16
 467 121 467 121 578 121 c 0,17,18
 699 121 699 121 774.5 207 c 128,-1,19
 850 293 850 293 850 438 c 2,20,-1
 850 1024 l 1,21,-1
 1016 1024 l 1,22,-1
 1016 265 l 2,23,24
 1016 77 1016 77 1048 0 c 1,0,-1
EndSplineSet
EndChar

StartChar: partialdiff
Encoding: 8706 8706 153
Width: 1096
GlyphClass: 2
Flags: W
LayerCount: 2
Fore
SplineSet
862 872 m 1,0,-1
 866 872 l 1,1,2
 892 1348 892 1348 600 1348 c 0,3,4
 477 1348 477 1348 354 1268 c 1,5,-1
 393 1424 l 1,6,7
 512 1489 512 1489 641 1489 c 0,8,9
 835 1489 835 1489 931.5 1357 c 128,-1,10
 1028 1225 1028 1225 1028 934 c 0,11,12
 1028 713 1028 713 963 473 c 128,-1,13
 898 233 898 233 763 104.5 c 128,-1,14
 628 -24 628 -24 444 -24 c 0,15,16
 278 -24 278 -24 178 82.5 c 128,-1,17
 78 189 78 189 78 370 c 0,18,19
 78 642 78 642 225.5 841 c 128,-1,20
 373 1040 373 1040 600 1040 c 0,21,22
 778 1040 778 1040 862 872 c 1,0,-1
850 692 m 1,23,24
 792 901 792 901 620 901 c 0,25,26
 460 901 460 901 353 744 c 128,-1,27
 246 587 246 587 246 377 c 0,28,29
 246 255 246 255 302.5 184.5 c 128,-1,30
 359 114 359 114 456 114 c 0,31,32
 607 114 607 114 715 273.5 c 128,-1,33
 823 433 823 433 850 692 c 1,23,24
EndSplineSet
EndChar

StartChar: summation
Encoding: 8721 8721 154
Width: 1263
GlyphClass: 2
Flags: W
LayerCount: 2
Fore
SplineSet
1210 -469 m 1,0,-1
 51 -469 l 1,1,-1
 51 -391 l 1,2,-1
 727 492 l 1,3,-1
 88 1344 l 1,4,-1
 88 1434 l 1,5,-1
 1170 1434 l 1,6,-1
 1170 1280 l 1,7,-1
 334 1280 l 1,8,-1
 928 496 l 1,9,-1
 303 -316 l 1,10,-1
 1210 -316 l 1,11,-1
 1210 -469 l 1,0,-1
EndSplineSet
EndChar

StartChar: product
Encoding: 8719 8719 155
Width: 1544
GlyphClass: 2
Flags: W
LayerCount: 2
Fore
SplineSet
1362 -469 m 1,0,-1
 1194 -469 l 1,1,-1
 1194 1280 l 1,2,-1
 356 1280 l 1,3,-1
 356 -469 l 1,4,-1
 188 -469 l 1,5,-1
 188 1434 l 1,6,-1
 1362 1434 l 1,7,-1
 1362 -469 l 1,0,-1
EndSplineSet
EndChar

StartChar: integral
Encoding: 8747 8747 156
Width: 1105
GlyphClass: 2
Flags: W
LayerCount: 2
Fore
SplineSet
916 1372 m 1,0,1
 868 1399 868 1399 805 1399 c 0,2,3
 635 1399 635 1399 635 1182 c 2,4,-1
 635 -140 l 2,5,6
 635 -298 635 -298 541.5 -392 c 128,-1,7
 448 -486 448 -486 309 -486 c 0,8,9
 234 -486 234 -486 190 -467 c 1,10,-1
 190 -320 l 1,11,12
 238 -346 238 -346 299 -346 c 0,13,14
 471 -346 471 -346 471 -129 c 2,15,-1
 471 1190 l 2,16,17
 471 1350 471 1350 564.5 1444 c 128,-1,18
 658 1538 658 1538 796 1538 c 0,19,20
 872 1538 872 1538 916 1520 c 1,21,-1
 916 1372 l 1,0,1
EndSplineSet
EndChar

StartChar: ordfeminine
Encoding: 170 170 157
Width: 803
GlyphClass: 2
Flags: W
LayerCount: 2
Fore
SplineSet
688 717 m 1,0,-1
 559 717 l 1,1,-1
 559 817 l 1,2,-1
 555 817 l 1,3,4
 476 698 476 698 324 698 c 0,5,6
 215 698 215 698 148.5 757.5 c 128,-1,7
 82 817 82 817 82 910 c 0,8,9
 82 1112 82 1112 330 1145 c 2,10,-1
 559 1176 l 1,11,12
 559 1344 559 1344 408 1344 c 0,13,14
 272 1344 272 1344 154 1258 c 1,15,-1
 154 1386 l 1,16,17
 265 1456 265 1456 420 1456 c 0,18,19
 546 1456 546 1456 617 1384 c 128,-1,20
 688 1312 688 1312 688 1182 c 2,21,-1
 688 717 l 1,0,-1
559 1075 m 1,22,-1
 379 1050 l 2,23,24
 211 1027 211 1027 211 916 c 0,25,26
 211 865 211 865 249.5 833 c 128,-1,27
 288 801 288 801 352 801 c 0,28,29
 434 801 434 801 496.5 862 c 128,-1,30
 559 923 559 923 559 1008 c 2,31,-1
 559 1075 l 1,22,-1
EndSplineSet
EndChar

StartChar: ordmasculine
Encoding: 186 186 158
Width: 882
GlyphClass: 2
Flags: W
LayerCount: 2
Fore
SplineSet
436 696 m 0,0,1
 269 696 269 696 173.5 796.5 c 128,-1,2
 78 897 78 897 78 1069 c 0,3,4
 78 1250 78 1250 180.5 1352 c 128,-1,5
 283 1454 283 1454 452 1454 c 0,6,7
 615 1454 615 1454 709 1354.5 c 128,-1,8
 803 1255 803 1255 803 1084 c 0,9,10
 803 906 803 906 703.5 801 c 128,-1,11
 604 696 604 696 436 696 c 0,0,1
444 1344 m 0,12,13
 338 1344 338 1344 275.5 1272 c 128,-1,14
 213 1200 213 1200 213 1073 c 0,15,16
 213 949 213 949 272.5 879 c 128,-1,17
 332 809 332 809 442 809 c 0,18,19
 547 809 547 809 608.5 880.5 c 128,-1,20
 670 952 670 952 670 1075 c 0,21,22
 670 1201 670 1201 609.5 1272.5 c 128,-1,23
 549 1344 549 1344 444 1344 c 0,12,13
EndSplineSet
EndChar

StartChar: Omega
Encoding: 8486 8486 159
Width: 1546
GlyphClass: 2
Flags: W
LayerCount: 2
Fore
SplineSet
1449 0 m 1,0,-1
 930 0 l 1,1,-1
 930 147 l 1,2,3
 1275 402 1275 402 1275 780 c 0,4,5
 1275 1025 1275 1025 1136 1167.5 c 128,-1,6
 997 1310 997 1310 778 1310 c 0,7,8
 556 1310 556 1310 415 1168 c 128,-1,9
 274 1026 274 1026 274 781 c 0,10,11
 274 403 274 403 620 147 c 1,12,-1
 620 0 l 1,13,-1
 100 0 l 1,14,-1
 100 148 l 1,15,-1
 448 147 l 1,16,17
 100 382 100 382 100 785 c 0,18,19
 100 1098 100 1098 285 1278 c 128,-1,20
 470 1458 470 1458 772 1458 c 0,21,22
 1081 1458 1081 1458 1265 1279.5 c 128,-1,23
 1449 1101 1449 1101 1449 786 c 0,24,25
 1449 384 1449 384 1102 147 c 1,26,-1
 1449 148 l 1,27,-1
 1449 0 l 1,0,-1
EndSplineSet
EndChar

StartChar: ae
Encoding: 230 230 160
Width: 1704
GlyphClass: 2
Flags: W
LayerCount: 2
Fore
SplineSet
1622 471 m 1,0,-1
 897 471 l 1,1,2
 900 300 900 300 988 207 c 128,-1,3
 1076 114 1076 114 1229 114 c 0,4,5
 1406 114 1406 114 1550 228 c 1,6,-1
 1550 74 l 1,7,8
 1418 -24 1418 -24 1192 -24 c 0,9,10
 922 -24 922 -24 809 205 c 1,11,-1
 805 205 l 1,12,13
 660 -24 660 -24 418 -24 c 0,14,15
 265 -24 265 -24 177.5 56.5 c 128,-1,16
 90 137 90 137 90 272 c 0,17,18
 90 572 90 572 473 596 c 2,19,-1
 735 612 l 1,20,21
 735 910 735 910 520 910 c 0,22,23
 345 910 345 910 190 788 c 1,24,-1
 190 952 l 1,25,26
 338 1048 338 1048 538 1048 c 0,27,28
 770 1048 770 1048 838 848 c 1,29,-1
 842 848 l 1,30,31
 958 1048 958 1048 1198 1048 c 0,32,33
 1400 1048 1400 1048 1511 917.5 c 128,-1,34
 1622 787 1622 787 1622 555 c 2,35,-1
 1622 471 l 1,0,-1
1454 610 m 1,36,37
 1452 754 1452 754 1385.5 832 c 128,-1,38
 1319 910 1319 910 1200 910 c 0,39,40
 1084 910 1084 910 1001 828 c 128,-1,41
 918 746 918 746 899 610 c 1,42,-1
 1454 610 l 1,36,37
735 410 m 2,43,-1
 735 473 l 1,44,-1
 532 461 l 2,45,46
 393 453 393 453 324.5 412 c 128,-1,47
 256 371 256 371 256 276 c 0,48,49
 256 203 256 203 309 158.5 c 128,-1,50
 362 114 362 114 452 114 c 0,51,52
 571 114 571 114 653 198.5 c 128,-1,53
 735 283 735 283 735 410 c 2,43,-1
EndSplineSet
EndChar

StartChar: oslash
Encoding: 248 248 161
Width: 1200
GlyphClass: 2
Flags: W
LayerCount: 2
Fore
SplineSet
1174 1048 m 1,0,-1
 1006 868 l 1,1,2
 1104 730 1104 730 1104 522 c 0,3,4
 1104 270 1104 270 965 123 c 128,-1,5
 826 -24 826 -24 594 -24 c 0,6,7
 402 -24 402 -24 276 78 c 1,8,-1
 131 -82 l 1,9,-1
 49 -4 l 1,10,-1
 198 160 l 1,11,12
 96 297 96 297 96 500 c 0,13,14
 96 758 96 758 238 903 c 128,-1,15
 380 1048 380 1048 620 1048 c 0,16,17
 804 1048 804 1048 928 950 c 1,18,-1
 1090 1126 l 1,19,-1
 1174 1048 l 1,0,-1
821 836 m 1,20,21
 742 910 742 910 606 910 c 0,22,23
 447 910 447 910 355.5 802.5 c 128,-1,24
 264 695 264 695 264 506 c 0,25,26
 264 374 264 374 314 282 c 1,27,-1
 821 836 l 1,20,21
891 742 m 1,28,-1
 383 190 l 1,29,30
 470 114 470 114 604 114 c 0,31,32
 767 114 767 114 852.5 218 c 128,-1,33
 938 322 938 322 938 512 c 0,34,35
 938 646 938 646 891 742 c 1,28,-1
EndSplineSet
EndChar

StartChar: questiondown
Encoding: 191 191 162
Width: 918
GlyphClass: 2
Flags: W
LayerCount: 2
Fore
SplineSet
625 630 m 1,0,1
 634 604 634 604 641 562.5 c 128,-1,2
 648 521 648 521 648 480 c 0,3,4
 648 416 648 416 622.5 364.5 c 128,-1,5
 597 313 597 313 559 268 c 128,-1,6
 521 223 521 223 476 181.5 c 128,-1,7
 431 140 431 140 393 97.5 c 128,-1,8
 355 55 355 55 329.5 8.5 c 128,-1,9
 304 -38 304 -38 304 -94 c 0,10,11
 304 -142 304 -142 322.5 -179 c 128,-1,12
 341 -216 341 -216 373 -241 c 128,-1,13
 405 -266 405 -266 447 -278.5 c 128,-1,14
 489 -291 489 -291 536 -291 c 0,15,16
 705 -291 705 -291 829 -158 c 1,17,-1
 829 -334 l 1,18,19
 676 -430 676 -430 512 -430 c 0,20,21
 436 -430 436 -430 369 -410 c 128,-1,22
 302 -390 302 -390 252 -350.5 c 128,-1,23
 202 -311 202 -311 172.5 -252 c 128,-1,24
 143 -193 143 -193 143 -115 c 0,25,26
 143 -41 143 -41 169 17 c 128,-1,27
 195 75 195 75 234.5 123.5 c 128,-1,28
 274 172 274 172 320 214 c 128,-1,29
 366 256 366 256 405.5 297.5 c 128,-1,30
 445 339 445 339 471 384 c 128,-1,31
 497 429 497 429 497 483 c 0,32,33
 497 529 497 529 486 566.5 c 128,-1,34
 475 604 475 604 464 630 c 1,35,-1
 625 630 l 1,0,1
535 1046 m 256,36,37
 579 1046 579 1046 613 1014 c 0,38,39
 646 983 646 983 646 936 c 0,40,41
 646 890 646 890 613 858 c 0,42,43
 580 825 580 825 535 825 c 256,44,45
 490 825 490 825 457 858 c 0,46,47
 424 890 424 890 424 936 c 0,48,49
 424 983 424 983 457 1014 c 0,50,51
 491 1046 491 1046 535 1046 c 256,36,37
EndSplineSet
EndChar

StartChar: exclamdown
Encoding: 161 161 164
Width: 582
GlyphClass: 2
Flags: W
LayerCount: 2
Fore
SplineSet
291 826 m 0,0,1
 245 826 245 826 212.5 858 c 128,-1,2
 180 890 180 890 180 936 c 256,3,4
 180 982 180 982 212.5 1014 c 128,-1,5
 245 1046 245 1046 291 1046 c 0,6,7
 336 1046 336 1046 369 1014 c 128,-1,8
 402 982 402 982 402 936 c 256,9,10
 402 890 402 890 369 858 c 128,-1,11
 336 826 336 826 291 826 c 0,0,1
379 -406 m 1,12,-1
 207 -406 l 1,13,-1
 226 624 l 1,14,-1
 360 624 l 1,15,-1
 379 -406 l 1,12,-1
EndSplineSet
EndChar

StartChar: logicalnot
Encoding: 172 172 165
Width: 1401
GlyphClass: 2
Flags: W
LayerCount: 2
Fore
SplineSet
1172 254 m 1,0,-1
 1040 254 l 1,1,-1
 1040 684 l 1,2,-1
 232 684 l 1,3,-1
 232 817 l 1,4,-1
 1172 817 l 1,5,-1
 1172 254 l 1,0,-1
EndSplineSet
EndChar

StartChar: radical
Encoding: 8730 8730 166
Width: 1331
GlyphClass: 2
Flags: W
LayerCount: 2
Fore
SplineSet
1114 1516 m 1,0,-1
 725 0 l 1,1,-1
 612 0 l 1,2,-1
 293 750 l 1,3,-1
 123 750 l 1,4,-1
 123 870 l 1,5,-1
 387 870 l 1,6,-1
 662 209 l 1,7,-1
 996 1516 l 1,8,-1
 1114 1516 l 1,0,-1
EndSplineSet
EndChar

StartChar: florin
Encoding: 402 402 167
Width: 1104
GlyphClass: 2
Flags: W
LayerCount: 2
Fore
SplineSet
952 1266 m 1,0,1
 904 1294 904 1294 844 1294 c 0,2,3
 698 1294 698 1294 674 1134 c 2,4,-1
 643 926 l 1,5,-1
 809 926 l 1,6,-1
 809 788 l 1,7,-1
 622 788 l 1,8,-1
 532 140 l 2,9,10
 474 -278 474 -278 184 -278 c 0,11,12
 153 -278 153 -278 94 -262 c 1,13,-1
 94 -119 l 1,14,15
 130 -140 130 -140 180 -140 c 0,16,17
 330 -140 330 -140 370 152 c 2,18,-1
 461 788 l 1,19,-1
 358 788 l 1,20,-1
 358 926 l 1,21,-1
 482 926 l 1,22,-1
 510 1145 l 2,23,24
 527 1276 527 1276 614.5 1355 c 128,-1,25
 702 1434 702 1434 836 1434 c 0,26,27
 900 1434 900 1434 952 1415 c 1,28,-1
 952 1266 l 1,0,1
EndSplineSet
EndChar

StartChar: approxequal
Encoding: 8776 8776 168
Width: 1403
GlyphClass: 2
Flags: W
LayerCount: 2
Fore
SplineSet
1194 960 m 1,0,1
 1187 814 1187 814 1113.5 733 c 128,-1,2
 1040 652 1040 652 914 652 c 0,3,4
 805 652 805 652 649 760 c 0,5,6
 552 828 552 828 490 828 c 0,7,8
 350 828 350 828 344 652 c 1,9,-1
 209 652 l 1,10,11
 214 796 214 796 288.5 878 c 128,-1,12
 363 960 363 960 490 960 c 0,13,14
 596 960 596 960 725 872 c 0,15,16
 857 782 857 782 922 782 c 0,17,18
 983 782 983 782 1020 831 c 128,-1,19
 1057 880 1057 880 1059 960 c 1,20,-1
 1194 960 l 1,0,1
1194 549 m 1,21,22
 1187 402 1187 402 1113.5 321 c 128,-1,23
 1040 240 1040 240 914 240 c 0,24,25
 805 240 805 240 649 348 c 0,26,27
 555 414 555 414 490 414 c 0,28,29
 350 414 350 414 344 240 c 1,30,-1
 209 240 l 1,31,32
 214 383 214 383 288.5 466 c 128,-1,33
 363 549 363 549 490 549 c 0,34,35
 596 549 596 549 725 461 c 0,36,37
 857 370 857 370 922 370 c 0,38,39
 983 370 983 370 1020 420 c 128,-1,40
 1057 470 1057 470 1059 549 c 1,41,-1
 1194 549 l 1,21,22
EndSplineSet
EndChar

StartChar: Delta
Encoding: 8710 8710 169
Width: 1320
GlyphClass: 2
Flags: W
LayerCount: 2
Fore
SplineSet
1272 0 m 1,0,-1
 51 0 l 1,1,-1
 51 76 l 1,2,-1
 572 1434 l 1,3,-1
 746 1434 l 1,4,-1
 1272 76 l 1,5,-1
 1272 0 l 1,0,-1
1057 152 m 1,6,-1
 696 1120 l 2,7,8
 663 1208 663 1208 658 1262 c 1,9,-1
 654 1262 l 1,10,11
 648 1214 648 1214 614 1120 c 2,12,-1
 262 152 l 1,13,-1
 1057 152 l 1,6,-1
EndSplineSet
EndChar

StartChar: guillemotleft
Encoding: 171 171 170
Width: 1036
GlyphClass: 2
Flags: W
LayerCount: 2
Fore
SplineSet
946 200 m 1,0,-1
 778 200 l 1,1,-1
 479 536 l 1,2,-1
 778 880 l 1,3,-1
 948 880 l 1,4,-1
 641 536 l 1,5,-1
 946 200 l 1,0,-1
557 200 m 1,6,-1
 391 200 l 1,7,-1
 92 536 l 1,8,-1
 391 880 l 1,9,-1
 557 880 l 1,10,-1
 254 536 l 1,11,-1
 557 200 l 1,6,-1
EndSplineSet
EndChar

StartChar: guillemotright
Encoding: 187 187 171
Width: 1036
GlyphClass: 2
Flags: W
LayerCount: 2
Fore
SplineSet
948 538 m 1,0,-1
 647 200 l 1,1,-1
 482 200 l 1,2,-1
 784 538 l 1,3,-1
 482 880 l 1,4,-1
 647 880 l 1,5,-1
 948 538 l 1,0,-1
559 538 m 1,6,-1
 260 200 l 1,7,-1
 90 200 l 1,8,-1
 398 538 l 1,9,-1
 90 880 l 1,10,-1
 260 880 l 1,11,-1
 559 538 l 1,6,-1
EndSplineSet
EndChar

StartChar: ellipsis
Encoding: 8230 8230 172
Width: 1501
GlyphClass: 2
Flags: W
LayerCount: 2
Fore
SplineSet
1252 -18 m 0,0,1
 1206 -18 1206 -18 1174.5 14 c 128,-1,2
 1143 46 1143 46 1143 92 c 256,3,4
 1143 138 1143 138 1174.5 171.5 c 128,-1,5
 1206 205 1206 205 1252 205 c 0,6,7
 1297 205 1297 205 1329.5 171.5 c 128,-1,8
 1362 138 1362 138 1362 92 c 256,9,10
 1362 46 1362 46 1329.5 14 c 128,-1,11
 1297 -18 1297 -18 1252 -18 c 0,0,1
750 -18 m 0,12,13
 704 -18 704 -18 671.5 14 c 128,-1,14
 639 46 639 46 639 92 c 256,15,16
 639 138 639 138 671.5 171.5 c 128,-1,17
 704 205 704 205 750 205 c 0,18,19
 795 205 795 205 827.5 171.5 c 128,-1,20
 860 138 860 138 860 92 c 256,21,22
 860 46 860 46 827.5 14 c 128,-1,23
 795 -18 795 -18 750 -18 c 0,12,13
248 -18 m 256,24,25
 202 -18 202 -18 171 14 c 128,-1,26
 140 46 140 46 140 92 c 256,27,28
 140 138 140 138 171 171.5 c 128,-1,29
 202 205 202 205 248 205 c 0,30,31
 293 205 293 205 325.5 171.5 c 128,-1,32
 358 138 358 138 358 92 c 256,33,34
 358 46 358 46 326 14 c 128,-1,35
 294 -18 294 -18 248 -18 c 256,24,25
EndSplineSet
EndChar

StartChar: OE
Encoding: 338 338 176
Width: 1906
GlyphClass: 2
Flags: W
LayerCount: 2
Fore
SplineSet
1810 0 m 1,0,-1
 1090 0 l 2,1,2
 1074 0 1074 0 952 -14 c 0,3,4
 854 -24 854 -24 770 -24 c 0,5,6
 458 -24 458 -24 276 177 c 128,-1,7
 94 378 94 378 94 700 c 0,8,9
 94 1046 94 1046 283.5 1252 c 128,-1,10
 473 1458 473 1458 798 1458 c 0,11,12
 888 1458 888 1458 976 1448 c 0,13,14
 1088 1434 1088 1434 1090 1434 c 2,15,-1
 1778 1434 l 1,16,-1
 1778 1282 l 1,17,-1
 1218 1282 l 1,18,-1
 1218 805 l 1,19,-1
 1736 805 l 1,20,-1
 1736 654 l 1,21,-1
 1218 654 l 1,22,-1
 1218 152 l 1,23,-1
 1810 152 l 1,24,-1
 1810 0 l 1,0,-1
1050 160 m 1,25,-1
 1050 1278 l 1,26,27
 890 1306 890 1306 782 1306 c 0,28,29
 553 1306 553 1306 411.5 1140 c 128,-1,30
 270 974 270 974 270 715 c 0,31,32
 270 457 270 457 409.5 292 c 128,-1,33
 549 127 549 127 776 127 c 0,34,35
 892 127 892 127 1050 160 c 1,25,-1
EndSplineSet
EndChar

StartChar: oe
Encoding: 339 339 177
Width: 1900
GlyphClass: 2
Flags: W
LayerCount: 2
Fore
SplineSet
1825 471 m 1,0,-1
 1100 471 l 1,1,2
 1103 300 1103 300 1191.5 207 c 128,-1,3
 1280 114 1280 114 1434 114 c 0,4,5
 1609 114 1609 114 1753 228 c 1,6,-1
 1753 74 l 1,7,8
 1617 -24 1617 -24 1396 -24 c 0,9,10
 1126 -24 1126 -24 1014 213 c 1,11,-1
 1010 213 l 1,12,13
 879 -24 879 -24 594 -24 c 0,14,15
 365 -24 365 -24 230.5 119 c 128,-1,16
 96 262 96 262 96 498 c 0,17,18
 96 756 96 756 238 902 c 128,-1,19
 380 1048 380 1048 620 1048 c 0,20,21
 914 1048 914 1048 1022 813 c 1,22,-1
 1026 813 l 1,23,24
 1145 1048 1145 1048 1411 1048 c 0,25,26
 1607 1048 1607 1048 1716 916.5 c 128,-1,27
 1825 785 1825 785 1825 559 c 2,28,-1
 1825 471 l 1,0,-1
1657 610 m 1,29,30
 1655 752 1655 752 1588 831 c 128,-1,31
 1521 910 1521 910 1405 910 c 0,32,33
 1285 910 1285 910 1201.5 824.5 c 128,-1,34
 1118 739 1118 739 1102 610 c 1,35,-1
 1657 610 l 1,29,30
606 910 m 0,36,37
 448 910 448 910 356 801.5 c 128,-1,38
 264 693 264 693 264 502 c 0,39,40
 264 322 264 322 356 218 c 128,-1,41
 448 114 448 114 604 114 c 0,42,43
 763 114 763 114 849.5 216.5 c 128,-1,44
 936 319 936 319 936 508 c 0,45,46
 936 702 936 702 849.5 806 c 128,-1,47
 763 910 763 910 606 910 c 0,36,37
EndSplineSet
EndChar

StartChar: endash
Encoding: 8211 8211 178
Width: 1024
GlyphClass: 2
Flags: W
LayerCount: 2
Fore
SplineSet
1024 506 m 1,0,-1
 0 506 l 1,1,-1
 0 635 l 1,2,-1
 1024 635 l 1,3,-1
 1024 506 l 1,0,-1
EndSplineSet
EndChar

StartChar: emdash
Encoding: 8212 8212 179
Width: 2048
GlyphClass: 2
Flags: W
LayerCount: 2
Fore
SplineSet
2048 506 m 1,0,-1
 0 506 l 1,1,-1
 0 635 l 1,2,-1
 2048 635 l 1,3,-1
 2048 506 l 1,0,-1
EndSplineSet
EndChar

StartChar: quotedblleft
Encoding: 8220 8220 180
Width: 772
GlyphClass: 2
Flags: W
LayerCount: 2
Fore
SplineSet
668 1458 m 1,0,-1
 557 1012 l 1,1,-1
 410 1012 l 1,2,-1
 551 1458 l 1,3,-1
 668 1458 l 1,0,-1
364 1458 m 1,4,-1
 256 1012 l 1,5,-1
 106 1012 l 1,6,-1
 246 1458 l 1,7,-1
 364 1458 l 1,4,-1
EndSplineSet
EndChar

StartChar: quotedblright
Encoding: 8221 8221 181
Width: 772
GlyphClass: 2
Flags: W
LayerCount: 2
Fore
SplineSet
672 1458 m 1,0,-1
 532 1012 l 1,1,-1
 414 1012 l 1,2,-1
 522 1458 l 1,3,-1
 672 1458 l 1,0,-1
368 1458 m 1,4,-1
 228 1012 l 1,5,-1
 110 1012 l 1,6,-1
 221 1458 l 1,7,-1
 368 1458 l 1,4,-1
EndSplineSet
EndChar

StartChar: quoteleft
Encoding: 8216 8216 182
Width: 469
GlyphClass: 2
Flags: W
LayerCount: 2
Fore
SplineSet
364 1458 m 1,0,-1
 256 1012 l 1,1,-1
 106 1012 l 1,2,-1
 246 1458 l 1,3,-1
 364 1458 l 1,0,-1
EndSplineSet
EndChar

StartChar: quoteright
Encoding: 8217 8217 183
Width: 469
GlyphClass: 2
Flags: W
LayerCount: 2
Fore
SplineSet
368 1458 m 1,0,-1
 228 1012 l 1,1,-1
 110 1012 l 1,2,-1
 221 1458 l 1,3,-1
 368 1458 l 1,0,-1
EndSplineSet
EndChar

StartChar: divide
Encoding: 247 247 184
Width: 1401
GlyphClass: 2
Flags: W
LayerCount: 2
Fore
SplineSet
708 868 m 0,0,1
 664 868 664 868 634 898.5 c 128,-1,2
 604 929 604 929 604 973 c 0,3,4
 604 1018 604 1018 633 1050 c 128,-1,5
 662 1082 662 1082 708 1082 c 0,6,7
 811 1082 811 1082 811 975 c 0,8,9
 811 928 811 928 780.5 898 c 128,-1,10
 750 868 750 868 708 868 c 0,0,1
1172 530 m 1,11,-1
 232 530 l 1,12,-1
 232 664 l 1,13,-1
 1172 664 l 1,14,-1
 1172 530 l 1,11,-1
704 112 m 0,15,16
 660 112 660 112 629 142 c 128,-1,17
 598 172 598 172 598 215 c 0,18,19
 598 260 598 260 628 293 c 128,-1,20
 658 326 658 326 704 326 c 0,21,22
 805 326 805 326 805 217 c 0,23,24
 805 172 805 172 776 142 c 128,-1,25
 747 112 747 112 704 112 c 0,15,16
EndSplineSet
EndChar

StartChar: lozenge
Encoding: 9674 9674 185
Width: 1195
GlyphClass: 2
Flags: W
LayerCount: 2
Fore
SplineSet
1088 717 m 1,0,-1
 635 0 l 1,1,-1
 559 0 l 1,2,-1
 108 715 l 1,3,-1
 559 1434 l 1,4,-1
 635 1434 l 1,5,-1
 1088 717 l 1,0,-1
954 717 m 1,6,-1
 598 1292 l 1,7,-1
 242 717 l 1,8,-1
 598 140 l 1,9,-1
 954 717 l 1,6,-1
EndSplineSet
EndChar

StartChar: fraction
Encoding: 8260 8260 188
Width: 354
GlyphClass: 2
Flags: W
LayerCount: 2
Fore
SplineSet
690 1434 m 1,0,-1
 -168 0 l 1,1,-1
 -312 0 l 1,2,-1
 547 1434 l 1,3,-1
 690 1434 l 1,0,-1
EndSplineSet
EndChar

StartChar: Euro
Encoding: 8364 8364 189
Width: 1104
GlyphClass: 2
Flags: W
LayerCount: 2
Fore
SplineSet
1014 50 m 1,0,1
 881 -24 881 -24 732 -24 c 0,2,3
 305 -24 305 -24 223 482 c 1,4,-1
 102 482 l 1,5,-1
 102 622 l 1,6,-1
 210 622 l 1,7,8
 206 653 206 653 206 699 c 0,9,10
 206 747 206 747 212 807 c 1,11,-1
 102 807 l 1,12,-1
 102 947 l 1,13,-1
 233 947 l 1,14,15
 284 1187 284 1187 425.5 1322.5 c 128,-1,16
 567 1458 567 1458 769 1458 c 0,17,18
 906 1458 906 1458 1014 1402 c 1,19,-1
 1014 1240 l 1,20,21
 900 1318 900 1318 758 1318 c 0,22,23
 633 1318 633 1318 535.5 1217.5 c 128,-1,24
 438 1117 438 1117 399 947 c 1,25,-1
 896 947 l 1,26,-1
 896 807 l 1,27,-1
 377 807 l 1,28,29
 369 708 369 708 376 622 c 1,30,-1
 896 622 l 1,31,-1
 896 482 l 1,32,-1
 392 482 l 1,33,34
 464 116 464 116 742 116 c 0,35,36
 873 116 873 116 1014 203 c 1,37,-1
 1014 50 l 1,0,1
EndSplineSet
EndChar

StartChar: guilsinglleft
Encoding: 8249 8249 190
Width: 647
GlyphClass: 2
Flags: W
LayerCount: 2
Fore
SplineSet
557 200 m 1,0,-1
 391 200 l 1,1,-1
 92 536 l 1,2,-1
 391 880 l 1,3,-1
 559 880 l 1,4,-1
 254 536 l 1,5,-1
 557 200 l 1,0,-1
EndSplineSet
EndChar

StartChar: guilsinglright
Encoding: 8250 8250 191
Width: 647
GlyphClass: 2
Flags: W
LayerCount: 2
Fore
SplineSet
559 538 m 1,0,-1
 258 200 l 1,1,-1
 92 200 l 1,2,-1
 396 538 l 1,3,-1
 92 880 l 1,4,-1
 258 880 l 1,5,-1
 559 538 l 1,0,-1
EndSplineSet
EndChar

StartChar: uniFB01
Encoding: 64257 64257 192
Width: 1136
GlyphClass: 2
Flags: W
LayerCount: 2
Fore
SplineSet
672 1372 m 1,0,1
 624 1399 624 1399 563 1399 c 0,2,3
 391 1399 391 1399 391 1182 c 2,4,-1
 391 1024 l 1,5,-1
 631 1024 l 1,6,-1
 631 884 l 1,7,-1
 391 884 l 1,8,-1
 391 0 l 1,9,-1
 228 0 l 1,10,-1
 228 884 l 1,11,-1
 53 884 l 1,12,-1
 53 1024 l 1,13,-1
 228 1024 l 1,14,-1
 228 1190 l 2,15,16
 228 1351 228 1351 321 1444.5 c 128,-1,17
 414 1538 414 1538 553 1538 c 0,18,19
 628 1538 628 1538 672 1520 c 1,20,-1
 672 1372 l 1,0,1
893 1284 m 256,21,22
 848 1284 848 1284 817 1314 c 128,-1,23
 786 1344 786 1344 786 1390 c 0,24,25
 786 1435 786 1435 817 1466 c 128,-1,26
 848 1497 848 1497 893 1497 c 256,27,28
 938 1497 938 1497 970 1466.5 c 128,-1,29
 1002 1436 1002 1436 1002 1390 c 0,30,31
 1002 1346 1002 1346 970 1315 c 128,-1,32
 938 1284 938 1284 893 1284 c 256,21,22
973 0 m 1,33,-1
 809 0 l 1,34,-1
 809 1024 l 1,35,-1
 973 1024 l 1,36,-1
 973 0 l 1,33,-1
EndSplineSet
EndChar

StartChar: uniFB02
Encoding: 64258 64258 193
Width: 1136
GlyphClass: 2
Flags: W
LayerCount: 2
Fore
SplineSet
672 1372 m 1,0,1
 624 1399 624 1399 563 1399 c 0,2,3
 391 1399 391 1399 391 1182 c 2,4,-1
 391 1024 l 1,5,-1
 631 1024 l 1,6,-1
 631 884 l 1,7,-1
 391 884 l 1,8,-1
 391 0 l 1,9,-1
 228 0 l 1,10,-1
 228 884 l 1,11,-1
 53 884 l 1,12,-1
 53 1024 l 1,13,-1
 228 1024 l 1,14,-1
 228 1190 l 2,15,16
 228 1351 228 1351 321 1444.5 c 128,-1,17
 414 1538 414 1538 553 1538 c 0,18,19
 628 1538 628 1538 672 1520 c 1,20,-1
 672 1372 l 1,0,1
975 0 m 1,21,-1
 813 0 l 1,22,-1
 813 1516 l 1,23,-1
 975 1516 l 1,24,-1
 975 0 l 1,21,-1
EndSplineSet
EndChar

StartChar: daggerdbl
Encoding: 8225 8225 194
Width: 768
GlyphClass: 2
Flags: W
LayerCount: 2
Fore
SplineSet
728 519 m 1,0,-1
 426 539 l 1,1,-1
 466 229 l 1,2,-1
 310 229 l 1,3,-1
 350 539 l 1,4,-1
 48 519 l 1,5,-1
 48 669 l 1,6,-1
 310 639 l 1,7,-1
 368 831 l 1,8,-1
 310 1023 l 1,9,-1
 48 993 l 1,10,-1
 48 1143 l 1,11,-1
 350 1123 l 1,12,-1
 310 1433 l 1,13,-1
 466 1433 l 1,14,-1
 426 1123 l 1,15,-1
 728 1143 l 1,16,-1
 728 993 l 1,17,-1
 466 1023 l 1,18,-1
 408 831 l 1,19,-1
 466 639 l 1,20,-1
 728 669 l 1,21,-1
 728 519 l 1,0,-1
EndSplineSet
EndChar

StartChar: periodcentered
Encoding: 183 183 195
AltUni2: 002219.ffffffff.0 002219.ffffffff.0
Width: 444
GlyphClass: 2
Flags: W
LayerCount: 2
Fore
SplineSet
223 510 m 0,0,1
 177 510 177 510 144.5 543 c 128,-1,2
 112 576 112 576 112 622 c 0,3,4
 112 669 112 669 144.5 702 c 128,-1,5
 177 735 177 735 223 735 c 0,6,7
 270 735 270 735 303 702 c 128,-1,8
 336 669 336 669 336 622 c 0,9,10
 336 576 336 576 303 543 c 128,-1,11
 270 510 270 510 223 510 c 0,0,1
EndSplineSet
EndChar

StartChar: quotesinglbase
Encoding: 8218 8218 196
Width: 469
GlyphClass: 2
Flags: W
LayerCount: 2
Fore
SplineSet
346 217 m 1,0,-1
 205 -228 l 1,1,-1
 88 -228 l 1,2,-1
 198 217 l 1,3,-1
 346 217 l 1,0,-1
EndSplineSet
EndChar

StartChar: quotedblbase
Encoding: 8222 8222 197
Width: 772
GlyphClass: 2
Flags: W
LayerCount: 2
Fore
SplineSet
649 217 m 1,0,-1
 510 -228 l 1,1,-1
 391 -228 l 1,2,-1
 500 217 l 1,3,-1
 649 217 l 1,0,-1
346 217 m 1,4,-1
 205 -228 l 1,5,-1
 88 -228 l 1,6,-1
 198 217 l 1,7,-1
 346 217 l 1,4,-1
EndSplineSet
EndChar

StartChar: perthousand
Encoding: 8240 8240 198
Width: 2478
GlyphClass: 2
Flags: W
LayerCount: 2
Fore
SplineSet
404 715 m 0,0,1
 256 715 256 715 168 812.5 c 128,-1,2
 80 910 80 910 80 1073 c 0,3,4
 80 1251 80 1251 173 1353.5 c 128,-1,5
 266 1456 266 1456 424 1456 c 0,6,7
 577 1456 577 1456 661.5 1361 c 128,-1,8
 746 1266 746 1266 746 1094 c 256,9,10
 746 922 746 922 651.5 818.5 c 128,-1,11
 557 715 557 715 404 715 c 0,0,1
418 1346 m 0,12,13
 323 1346 323 1346 268 1275.5 c 128,-1,14
 213 1205 213 1205 213 1082 c 0,15,16
 213 961 213 961 267 893.5 c 128,-1,17
 321 826 321 826 414 826 c 0,18,19
 508 826 508 826 561 896 c 128,-1,20
 614 966 614 966 614 1090 c 0,21,22
 614 1211 614 1211 561.5 1278.5 c 128,-1,23
 509 1346 509 1346 418 1346 c 0,12,13
1366 1434 m 1,24,-1
 444 -10 l 1,25,-1
 301 -10 l 1,26,-1
 1222 1434 l 1,27,-1
 1366 1434 l 1,24,-1
2056 -22 m 0,28,29
 1908 -22 1908 -22 1820 76 c 128,-1,30
 1732 174 1732 174 1732 336 c 0,31,32
 1732 513 1732 513 1826.5 617 c 128,-1,33
 1921 721 1921 721 2076 721 c 0,34,35
 2229 721 2229 721 2313.5 625.5 c 128,-1,36
 2398 530 2398 530 2398 356 c 0,37,38
 2398 185 2398 185 2304 81.5 c 128,-1,39
 2210 -22 2210 -22 2056 -22 c 0,28,29
2070 608 m 0,40,41
 1974 608 1974 608 1920 537.5 c 128,-1,42
 1866 467 1866 467 1866 344 c 0,43,44
 1866 224 1866 224 1919.5 157 c 128,-1,45
 1973 90 1973 90 2066 90 c 0,46,47
 2161 90 2161 90 2214 160.5 c 128,-1,48
 2267 231 2267 231 2267 354 c 0,49,50
 2267 475 2267 475 2214 541.5 c 128,-1,51
 2161 608 2161 608 2070 608 c 0,40,41
1258 -22 m 0,52,53
 1110 -22 1110 -22 1022 76 c 128,-1,54
 934 174 934 174 934 336 c 0,55,56
 934 514 934 514 1028 617.5 c 128,-1,57
 1122 721 1122 721 1278 721 c 0,58,59
 1430 721 1430 721 1515 625 c 128,-1,60
 1600 529 1600 529 1600 356 c 0,61,62
 1600 185 1600 185 1505.5 81.5 c 128,-1,63
 1411 -22 1411 -22 1258 -22 c 0,52,53
1272 608 m 0,64,65
 1176 608 1176 608 1121.5 538 c 128,-1,66
 1067 468 1067 468 1067 344 c 0,67,68
 1067 225 1067 225 1121 157.5 c 128,-1,69
 1175 90 1175 90 1268 90 c 0,70,71
 1362 90 1362 90 1415 160.5 c 128,-1,72
 1468 231 1468 231 1468 354 c 0,73,74
 1468 476 1468 476 1415.5 542 c 128,-1,75
 1363 608 1363 608 1272 608 c 0,64,65
EndSplineSet
EndChar

StartChar: dotlessi
Encoding: 305 305 214
Width: 496
GlyphClass: 2
Flags: W
AnchorPoint: "Ancre-3" 230 0 basechar 0
AnchorPoint: "Ancre-1" -480 -400 basechar 0
AnchorPoint: "Ancre-0" -360 -400 basechar 0
LayerCount: 2
Fore
SplineSet
330 0 m 1,0,-1
 166 0 l 1,1,-1
 166 1024 l 1,2,-1
 330 1024 l 1,3,-1
 330 0 l 1,0,-1
EndSplineSet
EndChar

StartChar: circumflex
Encoding: 710 710 215
Width: 760
GlyphClass: 2
Flags: W
LayerCount: 2
Fore
SplineSet
656 1218 m 1,0,-1
 534 1218 l 1,1,-1
 370 1448 l 1,2,-1
 205 1218 l 1,3,-1
 92 1218 l 1,4,-1
 307 1550 l 1,5,-1
 440 1550 l 1,6,-1
 656 1218 l 1,0,-1
EndSplineSet
EndChar

StartChar: tilde
Encoding: 732 732 216
Width: 690
GlyphClass: 2
Flags: W
LayerCount: 2
Fore
SplineSet
676 1458 m 1,0,1
 676 1353 676 1353 628 1286.5 c 128,-1,2
 580 1220 580 1220 498 1220 c 0,3,4
 427 1220 427 1220 336 1272 c 0,5,6
 259 1315 259 1315 217 1315 c 0,7,8
 129 1315 129 1315 129 1202 c 1,9,-1
 35 1202 l 1,10,11
 35 1309 35 1309 83 1373.5 c 128,-1,12
 131 1438 131 1438 217 1438 c 0,13,14
 282 1438 282 1438 366 1386 c 0,15,16
 440 1342 440 1342 494 1342 c 0,17,18
 578 1342 578 1342 578 1458 c 1,19,-1
 676 1458 l 1,0,1
EndSplineSet
EndChar

StartChar: macron
Encoding: 175 175 217
AltUni2: 0002c9.ffffffff.0 0002c9.ffffffff.0
Width: 635
GlyphClass: 2
Flags: W
LayerCount: 2
Fore
SplineSet
570 1218 m 1,0,-1
 62 1218 l 1,1,-1
 62 1327 l 1,2,-1
 570 1327 l 1,3,-1
 570 1218 l 1,0,-1
EndSplineSet
EndChar

StartChar: breve
Encoding: 728 728 218
Width: 622
GlyphClass: 2
Flags: W
LayerCount: 2
Fore
SplineSet
586 1470 m 1,0,1
 576 1357 576 1357 497.5 1287.5 c 128,-1,2
 419 1218 419 1218 307 1218 c 0,3,4
 190 1218 190 1218 116 1287 c 128,-1,5
 42 1356 42 1356 37 1470 c 1,6,-1
 137 1470 l 1,7,8
 149 1315 149 1315 309 1315 c 0,9,10
 377 1315 377 1315 425.5 1357 c 128,-1,11
 474 1399 474 1399 484 1470 c 1,12,-1
 586 1470 l 1,0,1
EndSplineSet
EndChar

StartChar: dotaccent
Encoding: 729 729 219
Width: 412
GlyphClass: 2
Flags: W
LayerCount: 2
Fore
SplineSet
207 1218 m 0,0,1
 167 1218 167 1218 137.5 1246.5 c 128,-1,2
 108 1275 108 1275 108 1317 c 0,3,4
 108 1357 108 1357 137 1385 c 128,-1,5
 166 1413 166 1413 207 1413 c 256,6,7
 248 1413 248 1413 276.5 1385.5 c 128,-1,8
 305 1358 305 1358 305 1317 c 256,9,10
 305 1276 305 1276 276.5 1247 c 128,-1,11
 248 1218 248 1218 207 1218 c 0,0,1
EndSplineSet
EndChar

StartChar: ring
Encoding: 730 730 220
Width: 574
GlyphClass: 2
Flags: W
LayerCount: 2
Fore
SplineSet
284 1176 m 0,0,1
 197 1176 197 1176 139.5 1228.5 c 128,-1,2
 82 1281 82 1281 82 1366 c 0,3,4
 82 1456 82 1456 141 1510 c 128,-1,5
 200 1564 200 1564 291 1564 c 0,6,7
 380 1564 380 1564 437 1510 c 128,-1,8
 494 1456 494 1456 494 1372 c 256,9,10
 494 1288 494 1288 433 1232 c 128,-1,11
 372 1176 372 1176 284 1176 c 0,0,1
284 1483 m 0,12,13
 236 1483 236 1483 204 1450.5 c 128,-1,14
 172 1418 172 1418 172 1370 c 0,15,16
 172 1258 172 1258 284 1258 c 0,17,18
 334 1258 334 1258 367 1290 c 128,-1,19
 400 1322 400 1322 400 1370 c 0,20,21
 400 1419 400 1419 367 1451 c 128,-1,22
 334 1483 334 1483 284 1483 c 0,12,13
EndSplineSet
EndChar

StartChar: cedilla
Encoding: 184 184 221
Width: 420
GlyphClass: 2
Flags: W
LayerCount: 2
Fore
SplineSet
391 -256 m 0,0,1
 391 -432 391 -432 116 -432 c 0,2,3
 78 -432 78 -432 51 -430 c 1,4,-1
 51 -340 l 1,5,6
 94 -346 94 -346 121 -346 c 0,7,8
 262 -346 262 -346 262 -256 c 0,9,10
 262 -178 262 -178 133 -178 c 0,11,12
 123 -178 123 -178 92 -182 c 1,13,-1
 92 0 l 1,14,-1
 200 0 l 1,15,-1
 200 -104 l 1,16,17
 288 -104 288 -104 339.5 -144 c 128,-1,18
 391 -184 391 -184 391 -256 c 0,0,1
EndSplineSet
EndChar

StartChar: hungarumlaut
Encoding: 733 733 222
Width: 664
GlyphClass: 2
Flags: W
LayerCount: 2
Fore
SplineSet
647 1536 m 1,0,-1
 402 1218 l 1,1,-1
 305 1218 l 1,2,-1
 514 1536 l 1,3,-1
 647 1536 l 1,0,-1
400 1536 m 1,4,-1
 160 1218 l 1,5,-1
 64 1218 l 1,6,-1
 270 1536 l 1,7,-1
 400 1536 l 1,4,-1
EndSplineSet
EndChar

StartChar: ogonek
Encoding: 731 731 223
Width: 379
GlyphClass: 2
Flags: W
LayerCount: 2
Fore
SplineSet
338 0 m 1,0,1
 188 -141 188 -141 188 -223 c 0,2,3
 188 -293 188 -293 256 -293 c 0,4,5
 286 -293 286 -293 312 -280 c 1,6,-1
 312 -387 l 1,7,8
 282 -400 282 -400 230 -400 c 0,9,10
 154 -400 154 -400 108 -360 c 128,-1,11
 62 -320 62 -320 62 -250 c 0,12,13
 62 -128 62 -128 219 0 c 1,14,-1
 338 0 l 1,0,1
EndSplineSet
EndChar

StartChar: caron
Encoding: 711 711 224
Width: 760
GlyphClass: 2
Flags: W
LayerCount: 2
Fore
SplineSet
664 1548 m 1,0,-1
 450 1218 l 1,1,-1
 318 1218 l 1,2,-1
 102 1548 l 1,3,-1
 217 1548 l 1,4,-1
 381 1319 l 1,5,-1
 545 1548 l 1,6,-1
 664 1548 l 1,0,-1
EndSplineSet
EndChar

StartChar: Lslash
Encoding: 321 321 225
Width: 964
GlyphClass: 2
Flags: W
LayerCount: 2
Fore
SplineSet
932 0 m 1,0,-1
 188 0 l 1,1,-1
 188 547 l 1,2,-1
 33 450 l 1,3,-1
 33 602 l 1,4,-1
 188 698 l 1,5,-1
 188 1434 l 1,6,-1
 356 1434 l 1,7,-1
 356 803 l 1,8,-1
 684 1006 l 1,9,-1
 684 852 l 1,10,-1
 356 652 l 1,11,-1
 356 152 l 1,12,-1
 932 152 l 1,13,-1
 932 0 l 1,0,-1
EndSplineSet
EndChar

StartChar: lslash
Encoding: 322 322 226
Width: 561
GlyphClass: 2
Flags: W
LayerCount: 2
Fore
SplineSet
530 811 m 1,0,-1
 356 688 l 1,1,-1
 356 0 l 1,2,-1
 192 0 l 1,3,-1
 192 578 l 1,4,-1
 22 459 l 1,5,-1
 22 616 l 1,6,-1
 192 735 l 1,7,-1
 192 1516 l 1,8,-1
 356 1516 l 1,9,-1
 356 846 l 1,10,-1
 530 968 l 1,11,-1
 530 811 l 1,0,-1
EndSplineSet
EndChar

StartChar: brokenbar
Encoding: 166 166 231
Width: 490
GlyphClass: 2
Flags: W
LayerCount: 2
Fore
SplineSet
320 715 m 1,0,-1
 172 715 l 1,1,-1
 172 1566 l 1,2,-1
 320 1566 l 1,3,-1
 320 715 l 1,0,-1
320 -482 m 1,4,-1
 172 -482 l 1,5,-1
 172 370 l 1,6,-1
 320 370 l 1,7,-1
 320 -482 l 1,4,-1
EndSplineSet
EndChar

StartChar: Eth
Encoding: 208 208 232
Width: 1436
GlyphClass: 2
Flags: W
LayerCount: 2
Fore
SplineSet
188 0 m 1,0,-1
 188 641 l 1,1,-1
 28 641 l 1,2,-1
 28 796 l 1,3,-1
 188 796 l 1,4,-1
 188 1434 l 1,5,-1
 584 1434 l 2,6,7
 1342 1434 1342 1434 1342 735 c 0,8,9
 1342 401 1342 401 1131.5 200.5 c 128,-1,10
 921 0 921 0 568 0 c 2,11,-1
 188 0 l 1,0,-1
356 1282 m 1,12,-1
 356 796 l 1,13,-1
 692 796 l 1,14,-1
 692 641 l 1,15,-1
 356 641 l 1,16,-1
 356 152 l 1,17,-1
 570 152 l 2,18,19
 852 152 852 152 1009 303 c 128,-1,20
 1166 454 1166 454 1166 731 c 0,21,22
 1166 1282 1166 1282 580 1282 c 2,23,-1
 356 1282 l 1,12,-1
EndSplineSet
EndChar

StartChar: eth
Encoding: 240 240 233
Width: 1145
GlyphClass: 2
Flags: W
LayerCount: 2
Fore
SplineSet
786 968 m 1,0,-1
 790 971 l 1,1,2
 700 1133 700 1133 592 1237 c 1,3,-1
 293 1086 l 1,4,-1
 242 1184 l 1,5,-1
 512 1315 l 1,6,7
 394 1420 394 1420 248 1516 c 1,8,-1
 469 1516 l 1,9,10
 544 1464 544 1464 641 1380 c 1,11,-1
 930 1524 l 1,12,-1
 985 1430 l 1,13,-1
 721 1300 l 1,14,15
 1048 993 1048 993 1048 526 c 0,16,17
 1048 286 1048 286 919 132 c 128,-1,18
 790 -22 790 -22 568 -22 c 256,19,20
 346 -22 346 -22 221 118 c 128,-1,21
 96 258 96 258 96 500 c 0,22,23
 96 743 96 743 226 894.5 c 128,-1,24
 356 1046 356 1046 576 1046 c 0,25,26
 699 1046 699 1046 786 968 c 1,0,-1
582 910 m 0,27,28
 434 910 434 910 349 801.5 c 128,-1,29
 264 693 264 693 264 506 c 0,30,31
 264 325 264 325 347 219.5 c 128,-1,32
 430 114 430 114 578 114 c 0,33,34
 717 114 717 114 798.5 222 c 128,-1,35
 880 330 880 330 880 510 c 0,36,37
 880 910 880 910 582 910 c 0,27,28
EndSplineSet
EndChar

StartChar: Thorn
Encoding: 222 222 236
Width: 1147
GlyphClass: 2
Flags: W
LayerCount: 2
Fore
SplineSet
356 318 m 1,0,-1
 356 0 l 1,1,-1
 188 0 l 1,2,-1
 188 1434 l 1,3,-1
 356 1434 l 1,4,-1
 356 1208 l 1,5,-1
 582 1208 l 2,6,7
 814 1208 814 1208 939.5 1096.5 c 128,-1,8
 1065 985 1065 985 1065 780 c 0,9,10
 1065 576 1065 576 923.5 447 c 128,-1,11
 782 318 782 318 542 318 c 2,12,-1
 356 318 l 1,0,-1
356 1057 m 1,13,-1
 356 469 l 1,14,-1
 532 469 l 2,15,16
 705 469 705 469 797 547 c 128,-1,17
 889 625 889 625 889 770 c 0,18,19
 889 1057 889 1057 553 1057 c 2,20,-1
 356 1057 l 1,13,-1
EndSplineSet
EndChar

StartChar: thorn
Encoding: 254 254 237
Width: 1204
GlyphClass: 2
Flags: W
LayerCount: 2
Fore
SplineSet
334 148 m 1,0,-1
 330 148 l 1,1,-1
 330 -471 l 1,2,-1
 166 -471 l 1,3,-1
 166 1516 l 1,4,-1
 330 1516 l 1,5,-1
 330 844 l 1,6,-1
 334 844 l 1,7,8
 455 1048 455 1048 688 1048 c 0,9,10
 886 1048 886 1048 997 910.5 c 128,-1,11
 1108 773 1108 773 1108 542 c 0,12,13
 1108 285 1108 285 983 130.5 c 128,-1,14
 858 -24 858 -24 641 -24 c 0,15,16
 442 -24 442 -24 334 148 c 1,0,-1
330 561 m 2,17,-1
 330 418 l 2,18,19
 330 291 330 291 412.5 202.5 c 128,-1,20
 495 114 495 114 622 114 c 0,21,22
 771 114 771 114 855.5 228 c 128,-1,23
 940 342 940 342 940 545 c 0,24,25
 940 716 940 716 861 813 c 128,-1,26
 782 910 782 910 647 910 c 0,27,28
 504 910 504 910 417 810.5 c 128,-1,29
 330 711 330 711 330 561 c 2,17,-1
EndSplineSet
EndChar

StartChar: minus
Encoding: 8722 8722 238
Width: 1401
GlyphClass: 2
Flags: W
LayerCount: 2
Fore
SplineSet
1172 530 m 1,0,-1
 232 530 l 1,1,-1
 232 664 l 1,2,-1
 1172 664 l 1,3,-1
 1172 530 l 1,0,-1
EndSplineSet
EndChar

StartChar: multiply
Encoding: 215 215 239
Width: 1401
GlyphClass: 2
Flags: W
LayerCount: 2
Fore
SplineSet
1134 258 m 1,0,-1
 1040 164 l 1,1,-1
 700 504 l 1,2,-1
 362 164 l 1,3,-1
 268 258 l 1,4,-1
 608 596 l 1,5,-1
 268 936 l 1,6,-1
 362 1030 l 1,7,-1
 700 690 l 1,8,-1
 1040 1030 l 1,9,-1
 1134 936 l 1,10,-1
 794 596 l 1,11,-1
 1134 258 l 1,0,-1
EndSplineSet
EndChar

StartChar: uni00B9
Encoding: 185 185 240
Width: 719
GlyphClass: 2
Flags: W
LayerCount: 2
Fore
SplineSet
639 584 m 1,0,-1
 135 584 l 1,1,-1
 135 696 l 1,2,-1
 320 696 l 1,3,-1
 320 1290 l 1,4,-1
 127 1235 l 1,5,-1
 127 1360 l 1,6,-1
 450 1456 l 1,7,-1
 450 696 l 1,8,-1
 639 696 l 1,9,-1
 639 584 l 1,0,-1
EndSplineSet
EndChar

StartChar: uni00B2
Encoding: 178 178 241
Width: 750
GlyphClass: 2
Flags: W
LayerCount: 2
Fore
SplineSet
658 584 m 1,0,-1
 104 584 l 1,1,-1
 104 698 l 1,2,-1
 344 934 l 2,3,4
 448 1036 448 1036 476 1090.5 c 128,-1,5
 504 1145 504 1145 504 1200 c 0,6,7
 504 1258 504 1258 466 1294.5 c 128,-1,8
 428 1331 428 1331 366 1331 c 0,9,10
 248 1331 248 1331 150 1229 c 1,11,-1
 150 1378 l 1,12,13
 234 1454 234 1454 385 1454 c 0,14,15
 503 1454 503 1454 572 1388 c 128,-1,16
 641 1322 641 1322 641 1214 c 0,17,18
 641 1061 641 1061 436 866 c 2,19,-1
 272 710 l 1,20,-1
 272 706 l 1,21,-1
 658 706 l 1,22,-1
 658 584 l 1,0,-1
EndSplineSet
EndChar

StartChar: uni00B3
Encoding: 179 179 242
Width: 750
GlyphClass: 2
Flags: W
LayerCount: 2
Fore
SplineSet
129 616 m 1,0,-1
 129 758 l 1,1,2
 232 682 232 682 346 682 c 0,3,4
 426 682 426 682 472 719.5 c 128,-1,5
 518 757 518 757 518 821 c 0,6,7
 518 962 518 962 299 962 c 2,8,-1
 215 962 l 1,9,-1
 215 1080 l 1,10,-1
 295 1080 l 2,11,12
 492 1080 492 1080 492 1214 c 0,13,14
 492 1333 492 1333 348 1333 c 0,15,16
 254 1333 254 1333 162 1264 c 1,17,-1
 162 1403 l 1,18,19
 249 1454 249 1454 375 1454 c 0,20,21
 488 1454 488 1454 555 1394.5 c 128,-1,22
 622 1335 622 1335 622 1239 c 0,23,24
 622 1088 622 1088 477 1034 c 1,25,-1
 477 1030 l 1,26,27
 654 988 654 988 654 828 c 0,28,29
 654 711 654 711 569 637 c 128,-1,30
 484 563 484 563 342 563 c 0,31,32
 205 563 205 563 129 616 c 1,0,-1
EndSplineSet
EndChar

StartChar: uni2074
Encoding: 8308 8308 246
Width: 719
GlyphClass: 2
Flags: W
LayerCount: 2
Fore
SplineSet
682 788 m 1,0,-1
 572 788 l 1,1,-1
 572 584 l 1,2,-1
 440 584 l 1,3,-1
 440 788 l 1,4,-1
 47 788 l 1,5,-1
 47 880 l 1,6,-1
 416 1434 l 1,7,-1
 572 1434 l 1,8,-1
 572 897 l 1,9,-1
 682 897 l 1,10,-1
 682 788 l 1,0,-1
444 1308 m 1,11,-1
 440 1308 l 1,12,13
 428 1277 428 1277 402 1235 c 2,14,-1
 184 897 l 1,15,-1
 440 897 l 1,16,-1
 440 1220 l 2,17,18
 440 1252 440 1252 444 1308 c 1,11,-1
EndSplineSet
EndChar

StartChar: currency
Encoding: 164 164 247
Width: 1138
GlyphClass: 2
Flags: W
LayerCount: 2
Fore
SplineSet
1038 354 m 1,0,-1
 946 258 l 1,1,-1
 809 396 l 1,2,3
 704 320 704 320 570 320 c 0,4,5
 434 320 434 320 330 396 c 1,6,-1
 192 258 l 1,7,-1
 100 354 l 1,8,-1
 238 488 l 1,9,10
 162 601 162 601 162 725 c 0,11,12
 162 854 162 854 238 962 c 1,13,-1
 100 1098 l 1,14,-1
 192 1194 l 1,15,-1
 330 1057 l 1,16,17
 440 1134 440 1134 570 1134 c 0,18,19
 699 1134 699 1134 807 1057 c 1,20,-1
 946 1194 l 1,21,-1
 1038 1098 l 1,22,-1
 901 962 l 1,23,24
 979 850 979 850 979 725 c 0,25,26
 979 604 979 604 901 488 c 1,27,-1
 1038 354 l 1,0,-1
570 1002 m 0,28,29
 454 1002 454 1002 374.5 921 c 128,-1,30
 295 840 295 840 295 727 c 256,31,32
 295 614 295 614 375.5 533 c 128,-1,33
 456 452 456 452 570 452 c 0,34,35
 683 452 683 452 764.5 533 c 128,-1,36
 846 614 846 614 846 727 c 256,37,38
 846 840 846 840 763 921 c 128,-1,39
 680 1002 680 1002 570 1002 c 0,28,29
EndSplineSet
EndChar

StartChar: uni25CC
Encoding: 9676 9676 248
Width: 1217
GlyphClass: 2
Flags: W
LayerCount: 2
Fore
SplineSet
980 918 m 256,0,1
 980 868 980 868 932 868 c 0,2,3
 880 868 880 868 880 918 c 256,4,5
 880 968 880 968 932 968 c 0,6,7
 980 968 980 968 980 918 c 256,0,1
832 1016 m 0,8,9
 832 967 832 967 784 967 c 0,10,11
 732 967 732 967 732 1016 c 0,12,13
 732 1067 732 1067 784 1067 c 0,14,15
 832 1067 832 1067 832 1016 c 0,8,9
1079 770 m 0,16,17
 1079 719 1079 719 1028 719 c 0,18,19
 979 719 979 719 979 770 c 0,20,21
 979 819 979 819 1030 819 c 0,22,23
 1079 819 1079 819 1079 770 c 0,16,17
1115 596 m 256,24,25
 1115 546 1115 546 1067 546 c 0,26,27
 1015 546 1015 546 1015 596 c 256,28,29
 1015 646 1015 646 1067 646 c 0,30,31
 1115 646 1115 646 1115 596 c 256,24,25
658 1053 m 0,32,33
 658 1002 658 1002 608 1002 c 256,34,35
 558 1002 558 1002 558 1053 c 0,36,37
 558 1102 558 1102 608 1102 c 256,38,39
 658 1102 658 1102 658 1053 c 0,32,33
485 1016 m 0,40,41
 485 967 485 967 434 967 c 0,42,43
 385 967 385 967 385 1016 c 0,44,45
 385 1067 385 1067 434 1067 c 0,46,47
 485 1067 485 1067 485 1016 c 0,40,41
1079 422 m 0,48,49
 1079 373 1079 373 1028 373 c 0,50,51
 979 373 979 373 979 422 c 0,52,53
 979 473 979 473 1028 473 c 0,54,55
 1079 473 1079 473 1079 422 c 0,48,49
337 918 m 256,56,57
 337 868 337 868 287 868 c 256,58,59
 237 868 237 868 237 915 c 0,60,61
 237 968 237 968 287 968 c 256,62,63
 337 968 337 968 337 918 c 256,56,57
980 272 m 0,64,65
 980 223 980 223 932 223 c 0,66,67
 880 223 880 223 880 272 c 0,68,69
 880 323 880 323 932 323 c 0,70,71
 980 323 980 323 980 272 c 0,64,65
832 174 m 0,72,73
 832 126 832 126 784 126 c 0,74,75
 732 126 732 126 732 174 c 0,76,77
 732 226 732 226 784 226 c 0,78,79
 832 226 832 226 832 174 c 0,72,73
238 770 m 0,80,81
 238 719 238 719 190 719 c 0,82,83
 138 719 138 719 138 770 c 0,84,85
 138 819 138 819 188 819 c 256,86,87
 238 819 238 819 238 770 c 0,80,81
202 596 m 256,88,89
 202 546 202 546 154 546 c 0,90,91
 102 546 102 546 102 596 c 256,92,93
 102 646 102 646 154 646 c 0,94,95
 202 646 202 646 202 596 c 256,88,89
658 141 m 0,96,97
 658 90 658 90 608 90 c 256,98,99
 558 90 558 90 558 141 c 0,100,101
 558 190 558 190 608 190 c 256,102,103
 658 190 658 190 658 141 c 0,96,97
238 422 m 0,104,105
 238 373 238 373 188 373 c 256,106,107
 138 373 138 373 138 422 c 0,108,109
 138 473 138 473 188 473 c 256,110,111
 238 473 238 473 238 422 c 0,104,105
485 178 m 0,112,113
 485 126 485 126 434 126 c 0,114,115
 385 126 385 126 385 174 c 0,116,117
 385 226 385 226 434 226 c 0,118,119
 485 226 485 226 485 178 c 0,112,113
337 272 m 0,120,121
 337 223 337 223 287 223 c 256,122,123
 237 223 237 223 237 272 c 0,124,125
 237 323 237 323 287 323 c 256,126,127
 337 323 337 323 337 272 c 0,120,121
EndSplineSet
EndChar

StartChar: uni13A0
Encoding: 5024 5024 249
Width: 1436
GlyphClass: 2
Flags: W
LayerCount: 2
Fore
SplineSet
188 0 m 1,0,-1
 188 1434 l 1,1,-1
 584 1434 l 2,2,3
 1342 1434 1342 1434 1342 735 c 0,4,5
 1342 403 1342 403 1131.5 201.5 c 128,-1,6
 921 0 921 0 568 0 c 2,7,-1
 188 0 l 1,0,-1
356 1282 m 1,8,-1
 356 152 l 1,9,-1
 570 152 l 2,10,11
 852 152 852 152 1009 303 c 128,-1,12
 1166 454 1166 454 1166 731 c 0,13,14
 1166 1282 1166 1282 580 1282 c 2,15,-1
 356 1282 l 1,8,-1
EndSplineSet
EndChar

StartChar: uni13A1
Encoding: 5025 5025 250
Width: 1404
GlyphClass: 2
Flags: W
LayerCount: 2
Fore
SplineSet
1394 230 m 1,0,1
 1389 158 1389 158 1359 103 c 0,2,3
 1346 79 1346 79 1326 56 c 128,-1,4
 1306 33 1306 33 1277.5 15.5 c 128,-1,5
 1249 -2 1249 -2 1210 -13 c 128,-1,6
 1171 -24 1171 -24 1120 -24 c 256,7,8
 1069 -24 1069 -24 1029.5 -13 c 128,-1,9
 990 -2 990 -2 961 15.5 c 128,-1,10
 932 33 932 33 912.5 56 c 128,-1,11
 893 79 893 79 880 103 c 0,12,13
 850 158 850 158 846 230 c 1,14,-1
 846 402 l 2,15,16
 846 457 846 457 827 496 c 128,-1,17
 808 535 808 535 775 560.5 c 128,-1,18
 742 586 742 586 698 598 c 128,-1,19
 654 610 654 610 604 610 c 2,20,-1
 356 610 l 1,21,-1
 356 0 l 1,22,-1
 188 0 l 1,23,-1
 188 1434 l 1,24,-1
 616 1434 l 2,25,26
 710 1434 710 1434 789.5 1410.5 c 128,-1,27
 869 1387 869 1387 927.5 1339 c 128,-1,28
 986 1291 986 1291 1019 1219.5 c 128,-1,29
 1052 1148 1052 1148 1052 1052 c 0,30,31
 1052 977 1052 977 1027.5 916.5 c 128,-1,32
 1003 856 1003 856 964.5 810 c 128,-1,33
 926 764 926 764 878 732.5 c 128,-1,34
 830 701 830 701 783 685 c 1,35,36
 841 685 841 685 885.5 662.5 c 128,-1,37
 930 640 930 640 960.5 602.5 c 128,-1,38
 991 565 991 565 1006.5 515.5 c 128,-1,39
 1022 466 1022 466 1022 411 c 2,40,-1
 1022 232 l 2,41,42
 1022 227 1022 227 1025 211 c 128,-1,43
 1028 195 1028 195 1038 178 c 128,-1,44
 1048 161 1048 161 1067.5 147.5 c 128,-1,45
 1087 134 1087 134 1120 134 c 0,46,47
 1156 134 1156 134 1176 149 c 128,-1,48
 1196 164 1196 164 1206 182 c 0,49,50
 1217 203 1217 203 1219 230 c 1,51,-1
 1394 230 l 1,0,1
356 1282 m 1,52,-1
 356 762 l 1,53,-1
 584 762 l 2,54,55
 647 762 647 762 700.5 781 c 128,-1,56
 754 800 754 800 793 835.5 c 128,-1,57
 832 871 832 871 854 922 c 128,-1,58
 876 973 876 973 876 1038 c 0,59,60
 876 1153 876 1153 802 1217.5 c 128,-1,61
 728 1282 728 1282 586 1282 c 2,62,-1
 356 1282 l 1,52,-1
EndSplineSet
EndChar

StartChar: uni13A2
Encoding: 5026 5026 251
Width: 1073
GlyphClass: 2
Flags: W
LayerCount: 2
Fore
SplineSet
1036 1282 m 1,0,-1
 622 1282 l 1,1,-1
 622 0 l 1,2,-1
 454 0 l 1,3,-1
 454 1282 l 1,4,-1
 41 1282 l 1,5,-1
 41 1434 l 1,6,-1
 1036 1434 l 1,7,-1
 1036 1282 l 1,0,-1
EndSplineSet
EndChar

StartChar: uni13A3
Encoding: 5027 5027 252
Width: 1529
GlyphClass: 2
Flags: W
LayerCount: 2
Fore
SplineSet
64 347 m 0,0,1
 64 414 64 414 78.5 473.5 c 128,-1,2
 93 533 93 533 124 580 c 128,-1,3
 155 627 155 627 202.5 659.5 c 128,-1,4
 250 692 250 692 315 705 c 1,5,6
 344 783 344 783 391 843 c 128,-1,7
 438 903 438 903 498 945.5 c 128,-1,8
 558 988 558 988 627 1012.5 c 128,-1,9
 696 1037 696 1037 769 1044 c 1,10,-1
 769 1290 l 1,11,-1
 629 1290 l 1,12,-1
 629 1434 l 1,13,-1
 1077 1434 l 1,14,-1
 1077 1290 l 1,15,-1
 937 1290 l 1,16,-1
 937 1044 l 1,17,18
 1069 1034 1069 1034 1163 987 c 128,-1,19
 1257 940 1257 940 1317.5 866 c 128,-1,20
 1378 792 1378 792 1406.5 695 c 128,-1,21
 1435 598 1435 598 1435 488 c 0,22,23
 1435 371 1435 371 1403.5 276.5 c 128,-1,24
 1372 182 1372 182 1309.5 115 c 128,-1,25
 1247 48 1247 48 1153.5 12 c 128,-1,26
 1060 -24 1060 -24 937 -24 c 1,27,-1
 937 114 l 1,28,29
 1022 114 1022 114 1084 143.5 c 128,-1,30
 1146 173 1146 173 1186.5 225 c 128,-1,31
 1227 277 1227 277 1247 348 c 128,-1,32
 1267 419 1267 419 1267 502 c 256,33,34
 1267 585 1267 585 1244 659 c 128,-1,35
 1221 733 1221 733 1171 789 c 128,-1,36
 1121 845 1121 845 1042.5 877.5 c 128,-1,37
 964 910 964 910 853 910 c 0,38,39
 717 910 717 910 629 854.5 c 128,-1,40
 541 799 541 799 493 703 c 1,41,42
 557 689 557 689 603.5 656.5 c 128,-1,43
 650 624 650 624 680 577 c 128,-1,44
 710 530 710 530 724.5 471 c 128,-1,45
 739 412 739 412 739 346 c 0,46,47
 739 267 739 267 719 199.5 c 128,-1,48
 699 132 699 132 658 82.5 c 128,-1,49
 617 33 617 33 553 4.5 c 128,-1,50
 489 -24 489 -24 401 -24 c 256,51,52
 313 -24 313 -24 249.5 5 c 128,-1,53
 186 34 186 34 144.5 84 c 128,-1,54
 103 134 103 134 83.5 201.5 c 128,-1,55
 64 269 64 269 64 347 c 0,0,1
581 343 m 256,56,57
 581 456 581 456 537.5 521 c 128,-1,58
 494 586 494 586 402 586 c 0,59,60
 309 586 309 586 265.5 522.5 c 128,-1,61
 222 459 222 459 222 346 c 0,62,63
 222 231 222 231 265.5 167 c 128,-1,64
 309 103 309 103 402 103 c 0,65,66
 494 103 494 103 537.5 166.5 c 128,-1,67
 581 230 581 230 581 343 c 256,56,57
EndSplineSet
EndChar

StartChar: uni13A4
Encoding: 5028 5028 253
Width: 1837
GlyphClass: 2
Flags: W
LayerCount: 2
Fore
SplineSet
696 -24 m 0,0,1
 553 -24 553 -24 441.5 31 c 128,-1,2
 330 86 330 86 252.5 183.5 c 128,-1,3
 175 281 175 281 134.5 413 c 128,-1,4
 94 545 94 545 94 700 c 0,5,6
 94 864 94 864 132 1003 c 128,-1,7
 170 1142 170 1142 247.5 1243 c 128,-1,8
 325 1344 325 1344 443 1401 c 128,-1,9
 561 1458 561 1458 720 1458 c 0,10,11
 865 1458 865 1458 975.5 1402 c 128,-1,12
 1086 1346 1086 1346 1160.5 1248.5 c 128,-1,13
 1235 1151 1235 1151 1272.5 1019 c 128,-1,14
 1310 887 1310 887 1310 732 c 1,15,16
 1376 733 1376 733 1437.5 741 c 128,-1,17
 1499 749 1499 749 1546.5 771 c 128,-1,18
 1594 793 1594 793 1622.5 834.5 c 128,-1,19
 1651 876 1651 876 1651 945 c 0,20,21
 1651 976 1651 976 1642.5 1004 c 128,-1,22
 1634 1032 1634 1032 1617.5 1053 c 128,-1,23
 1601 1074 1601 1074 1576.5 1086 c 128,-1,24
 1552 1098 1552 1098 1520 1098 c 0,25,26
 1496 1098 1496 1098 1474.5 1094 c 128,-1,27
 1453 1090 1453 1090 1436 1085 c 0,28,29
 1417 1080 1417 1080 1399 1073 c 1,30,-1
 1392 1212 l 1,31,32
 1414 1219 1414 1219 1439 1224 c 0,33,34
 1460 1229 1460 1229 1487.5 1232.5 c 128,-1,35
 1515 1236 1515 1236 1546 1236 c 0,36,37
 1607 1236 1607 1236 1656.5 1214 c 128,-1,38
 1706 1192 1706 1192 1740.5 1155 c 128,-1,39
 1775 1118 1775 1118 1794 1069.5 c 128,-1,40
 1813 1021 1813 1021 1813 968 c 0,41,42
 1813 864 1813 864 1775.5 793 c 128,-1,43
 1738 722 1738 722 1670.5 678 c 128,-1,44
 1603 634 1603 634 1509 613.5 c 128,-1,45
 1415 593 1415 593 1302 589 c 1,46,47
 1286 454 1286 454 1240.5 341.5 c 128,-1,48
 1195 229 1195 229 1119.5 147.5 c 128,-1,49
 1044 66 1044 66 938 21 c 128,-1,50
 832 -24 832 -24 696 -24 c 0,0,1
708 1306 m 0,51,52
 595 1306 595 1306 512.5 1258.5 c 128,-1,53
 430 1211 430 1211 376 1130 c 128,-1,54
 322 1049 322 1049 296 942 c 128,-1,55
 270 835 270 835 270 715 c 0,56,57
 270 597 270 597 294 490.5 c 128,-1,58
 318 384 318 384 370 303 c 128,-1,59
 422 222 422 222 502.5 174.5 c 128,-1,60
 583 127 583 127 696 127 c 0,61,62
 813 127 813 127 896 171 c 128,-1,63
 979 215 979 215 1032 293.5 c 128,-1,64
 1085 372 1085 372 1109.5 479 c 128,-1,65
 1134 586 1134 586 1134 712 c 256,66,67
 1134 838 1134 838 1111 946.5 c 128,-1,68
 1088 1055 1088 1055 1037 1135 c 128,-1,69
 986 1215 986 1215 905 1260.5 c 128,-1,70
 824 1306 824 1306 708 1306 c 0,51,52
EndSplineSet
EndChar

StartChar: uni13A5
Encoding: 5029 5029 254
Width: 545
GlyphClass: 2
Flags: W
LayerCount: 2
Fore
SplineSet
356 1024 m 1,0,-1
 356 144 l 1,1,-1
 496 144 l 1,2,-1
 496 0 l 1,3,-1
 48 0 l 1,4,-1
 48 144 l 1,5,-1
 188 144 l 1,6,-1
 188 1024 l 1,7,-1
 356 1024 l 1,0,-1
274 1284 m 256,8,9
 252 1284 252 1284 232.5 1292 c 128,-1,10
 213 1300 213 1300 199 1314 c 128,-1,11
 185 1328 185 1328 176.5 1347.5 c 128,-1,12
 168 1367 168 1367 168 1390 c 256,13,14
 168 1413 168 1413 176.5 1432.5 c 128,-1,15
 185 1452 185 1452 199 1466.5 c 128,-1,16
 213 1481 213 1481 232.5 1489 c 128,-1,17
 252 1497 252 1497 274 1497 c 256,18,19
 296 1497 296 1497 316 1489 c 128,-1,20
 336 1481 336 1481 350.5 1466.5 c 128,-1,21
 365 1452 365 1452 373.5 1432.5 c 128,-1,22
 382 1413 382 1413 382 1390 c 0,23,24
 382 1368 382 1368 373.5 1348.5 c 128,-1,25
 365 1329 365 1329 350.5 1315 c 128,-1,26
 336 1301 336 1301 316 1292.5 c 128,-1,27
 296 1284 296 1284 274 1284 c 256,8,9
EndSplineSet
EndChar

StartChar: uni13A6
Encoding: 5030 5030 255
Width: 1088
GlyphClass: 2
Flags: W
LayerCount: 2
Fore
SplineSet
1078 796 m 1,0,-1
 1078 641 l 1,1,-1
 853 641 l 1,2,3
 916 586 916 586 953 518 c 128,-1,4
 990 450 990 450 990 362 c 0,5,6
 990 256 990 256 948.5 182.5 c 128,-1,7
 907 109 907 109 836.5 63 c 128,-1,8
 766 17 766 17 674 -3.5 c 128,-1,9
 582 -24 582 -24 480 -24 c 0,10,11
 445 -24 445 -24 395.5 -18.5 c 128,-1,12
 346 -13 346 -13 294 -2.5 c 128,-1,13
 242 8 242 8 195.5 23.5 c 128,-1,14
 149 39 149 39 121 58 c 1,15,-1
 121 256 l 1,16,17
 155 226 155 226 202.5 202 c 128,-1,18
 250 178 250 178 302.5 161.5 c 128,-1,19
 355 145 355 145 408 136 c 128,-1,20
 461 127 461 127 506 127 c 0,21,22
 662 127 662 127 738 184 c 128,-1,23
 814 241 814 241 814 350 c 0,24,25
 814 402 814 402 792 443 c 128,-1,26
 770 484 770 484 731.5 518.5 c 128,-1,27
 693 553 693 553 641.5 582.5 c 128,-1,28
 590 612 590 612 530 641 c 1,29,-1
 23 641 l 1,30,-1
 23 796 l 1,31,-1
 260 796 l 1,32,33
 197 848 197 848 160 914.5 c 128,-1,34
 123 981 123 981 123 1075 c 0,35,36
 123 1173 123 1173 166 1245 c 128,-1,37
 209 1317 209 1317 279 1364.5 c 128,-1,38
 349 1412 349 1412 438.5 1435 c 128,-1,39
 528 1458 528 1458 621 1458 c 0,40,41
 832 1458 832 1458 930 1407 c 1,42,-1
 930 1218 l 1,43,44
 803 1306 803 1306 604 1306 c 0,45,46
 548 1306 548 1306 493.5 1294.5 c 128,-1,47
 439 1283 439 1283 396 1257 c 128,-1,48
 353 1231 353 1231 326 1190 c 128,-1,49
 299 1149 299 1149 299 1090 c 0,50,51
 299 1036 299 1036 319 996 c 128,-1,52
 339 956 339 956 377 923 c 128,-1,53
 415 890 415 890 470.5 860 c 128,-1,54
 526 830 526 830 597 796 c 1,55,-1
 1078 796 l 1,0,-1
EndSplineSet
EndChar

StartChar: uni13A7
Encoding: 5031 5031 256
Width: 1529
GlyphClass: 2
Flags: W
LayerCount: 2
Fore
SplineSet
84 650 m 0,0,1
 84 725 84 725 99.5 802.5 c 128,-1,2
 115 880 115 880 154 942.5 c 128,-1,3
 193 1005 193 1005 259.5 1044.5 c 128,-1,4
 326 1084 326 1084 428 1084 c 0,5,6
 511 1084 511 1084 574.5 1056 c 128,-1,7
 638 1028 638 1028 680.5 977.5 c 128,-1,8
 723 927 723 927 744.5 857 c 128,-1,9
 766 787 766 787 766 704 c 0,10,11
 766 608 766 608 732.5 530.5 c 128,-1,12
 699 453 699 453 650 393 c 128,-1,13
 601 333 601 333 545.5 291 c 128,-1,14
 490 249 490 249 445 223 c 1,15,16
 504 177 504 177 580 152 c 128,-1,17
 656 127 656 127 751 127 c 0,18,19
 880 127 880 127 975.5 171 c 128,-1,20
 1071 215 1071 215 1134 293.5 c 128,-1,21
 1197 372 1197 372 1228 479 c 128,-1,22
 1259 586 1259 586 1259 712 c 256,23,24
 1259 838 1259 838 1230 946.5 c 128,-1,25
 1201 1055 1201 1055 1140.5 1135 c 128,-1,26
 1080 1215 1080 1215 986 1260.5 c 128,-1,27
 892 1306 892 1306 763 1306 c 0,28,29
 679 1306 679 1306 597 1284.5 c 128,-1,30
 515 1263 515 1263 437 1220 c 1,31,-1
 437 1399 l 1,32,33
 504 1428 504 1428 591 1443 c 128,-1,34
 678 1458 678 1458 775 1458 c 0,35,36
 931 1458 931 1458 1053.5 1402 c 128,-1,37
 1176 1346 1176 1346 1260.5 1248.5 c 128,-1,38
 1345 1151 1345 1151 1390 1019 c 128,-1,39
 1435 887 1435 887 1435 735 c 0,40,41
 1435 572 1435 572 1390.5 433 c 128,-1,42
 1346 294 1346 294 1259 192.5 c 128,-1,43
 1172 91 1172 91 1044.5 33.5 c 128,-1,44
 917 -24 917 -24 751 -24 c 0,45,46
 593 -24 593 -24 469.5 29 c 128,-1,47
 346 82 346 82 260 173.5 c 128,-1,48
 174 265 174 265 129 387.5 c 128,-1,49
 84 510 84 510 84 650 c 0,0,1
255 665 m 0,50,51
 255 564 255 564 281 475 c 128,-1,52
 307 386 307 386 358 314 c 1,53,54
 391 330 391 330 433.5 359 c 128,-1,55
 476 388 476 388 513.5 434.5 c 128,-1,56
 551 481 551 481 577 546.5 c 128,-1,57
 603 612 603 612 603 702 c 0,58,59
 603 744 603 744 594 789.5 c 128,-1,60
 585 835 585 835 564.5 873 c 128,-1,61
 544 911 544 911 511.5 936 c 128,-1,62
 479 961 479 961 432 961 c 0,63,64
 376 961 376 961 341 933 c 128,-1,65
 306 905 306 905 287 861.5 c 128,-1,66
 268 818 268 818 261.5 765.5 c 128,-1,67
 255 713 255 713 255 665 c 0,50,51
EndSplineSet
EndChar

StartChar: uni13A8
Encoding: 5032 5032 257
Width: 1071
GlyphClass: 2
Flags: W
LayerCount: 2
Fore
SplineSet
496 1434 m 1,0,-1
 496 1290 l 1,1,-1
 356 1290 l 1,2,-1
 356 989 l 1,3,4
 398 1021 398 1021 438 1034.5 c 128,-1,5
 478 1048 478 1048 507 1048 c 0,6,7
 561 1048 561 1048 595.5 1032.5 c 128,-1,8
 630 1017 630 1017 649.5 990.5 c 128,-1,9
 669 964 669 964 676 929 c 128,-1,10
 683 894 683 894 683 855 c 0,11,12
 683 825 683 825 680 794 c 128,-1,13
 677 763 677 763 673.5 733 c 128,-1,14
 670 703 670 703 667 675 c 128,-1,15
 664 647 664 647 664 623 c 0,16,17
 664 583 664 583 676.5 558.5 c 128,-1,18
 689 534 689 534 724 534 c 0,19,20
 769 534 769 534 799 554 c 128,-1,21
 829 574 829 574 847.5 605 c 128,-1,22
 866 636 866 636 873.5 674 c 128,-1,23
 881 712 881 712 881 748 c 0,24,25
 881 813 881 813 862 856.5 c 128,-1,26
 843 900 843 900 820 926 c 0,27,28
 794 957 794 957 760 975 c 1,29,-1
 821 1076 l 1,30,31
 881 1055 881 1055 929 1012 c 0,32,33
 949 994 949 994 968.5 969 c 128,-1,34
 988 944 988 944 1003 911.5 c 128,-1,35
 1018 879 1018 879 1027.5 839 c 128,-1,36
 1037 799 1037 799 1037 750 c 0,37,38
 1037 669 1037 669 1010 603 c 128,-1,39
 983 537 983 537 938 490 c 128,-1,40
 893 443 893 443 835.5 417.5 c 128,-1,41
 778 392 778 392 717 392 c 0,42,43
 653 392 653 392 612.5 409.5 c 128,-1,44
 572 427 572 427 549.5 456 c 128,-1,45
 527 485 527 485 519 524 c 128,-1,46
 511 563 511 563 511 605 c 0,47,48
 511 635 511 635 514 665.5 c 128,-1,49
 517 696 517 696 520 725 c 128,-1,50
 523 754 523 754 526 780.5 c 128,-1,51
 529 807 529 807 529 830 c 0,52,53
 529 866 529 866 518 888 c 128,-1,54
 507 910 507 910 477 910 c 0,55,56
 438 910 438 910 414 875.5 c 128,-1,57
 390 841 390 841 377.5 787 c 128,-1,58
 365 733 365 733 360.5 668 c 128,-1,59
 356 603 356 603 356 542 c 2,60,-1
 356 144 l 1,61,-1
 496 144 l 1,62,-1
 496 0 l 1,63,-1
 48 0 l 1,64,-1
 48 144 l 1,65,-1
 188 144 l 1,66,-1
 188 1290 l 1,67,-1
 48 1290 l 1,68,-1
 48 1434 l 1,69,-1
 496 1434 l 1,0,-1
EndSplineSet
EndChar

StartChar: uni13A9
Encoding: 5033 5033 258
Width: 1174
GlyphClass: 2
Flags: W
LayerCount: 2
Fore
SplineSet
1162 1434 m 1,0,-1
 719 433 l 2,1,2
 675 334 675 334 631.5 250.5 c 128,-1,3
 588 167 588 167 534.5 105.5 c 128,-1,4
 481 44 481 44 412.5 9.5 c 128,-1,5
 344 -25 344 -25 251 -25 c 0,6,7
 143 -25 143 -25 72 6 c 1,8,-1
 72 176 l 1,9,10
 157 125 157 125 238 125 c 0,11,12
 299 125 299 125 340 148.5 c 128,-1,13
 381 172 381 172 412.5 211.5 c 128,-1,14
 444 251 444 251 471.5 302 c 128,-1,15
 499 353 499 353 534 408 c 1,16,-1
 48 1434 l 1,17,-1
 239 1434 l 1,18,-1
 620 575 l 1,19,-1
 622 575 l 1,20,-1
 982 1434 l 1,21,-1
 1162 1434 l 1,0,-1
EndSplineSet
EndChar

StartChar: uni13AA
Encoding: 5034 5034 259
Width: 1321
GlyphClass: 2
Flags: W
LayerCount: 2
Fore
SplineSet
1298 0 m 1,0,-1
 1112 0 l 1,1,-1
 960 402 l 1,2,-1
 352 402 l 1,3,-1
 209 0 l 1,4,-1
 22 0 l 1,5,-1
 572 1434 l 1,6,-1
 746 1434 l 1,7,-1
 1298 0 l 1,0,-1
905 553 m 1,8,-1
 680 1164 l 2,9,10
 669 1194 669 1194 658 1260 c 1,11,-1
 654 1260 l 1,12,13
 644 1199 644 1199 631 1164 c 2,14,-1
 408 553 l 1,15,-1
 905 553 l 1,8,-1
EndSplineSet
EndChar

StartChar: uni13AB
Encoding: 5035 5035 260
Width: 1097
GlyphClass: 2
Flags: W
LayerCount: 2
Fore
SplineSet
921 422 m 2,0,1
 921 329 921 329 896 248 c 128,-1,2
 871 167 871 167 819 106.5 c 128,-1,3
 767 46 767 46 686.5 11 c 128,-1,4
 606 -24 606 -24 494 -24 c 0,5,6
 384 -24 384 -24 303.5 13 c 128,-1,7
 223 50 223 50 169.5 110.5 c 128,-1,8
 116 171 116 171 90 247.5 c 128,-1,9
 64 324 64 324 64 403 c 1,10,-1
 247 403 l 1,11,12
 247 351 247 351 260 301.5 c 128,-1,13
 273 252 273 252 303 213 c 128,-1,14
 333 174 333 174 381 150.5 c 128,-1,15
 429 127 429 127 498 127 c 256,16,17
 567 127 567 127 615.5 150.5 c 128,-1,18
 664 174 664 174 694.5 213.5 c 128,-1,19
 725 253 725 253 738.5 306 c 128,-1,20
 752 359 752 359 752 419 c 2,21,-1
 752 1434 l 1,22,-1
 921 1434 l 1,23,-1
 921 422 l 2,0,1
EndSplineSet
EndChar

StartChar: uni13AC
Encoding: 5036 5036 261
Width: 1036
GlyphClass: 2
Flags: W
LayerCount: 2
Fore
SplineSet
948 0 m 1,0,-1
 188 0 l 1,1,-1
 188 1434 l 1,2,-1
 916 1434 l 1,3,-1
 916 1282 l 1,4,-1
 356 1282 l 1,5,-1
 356 805 l 1,6,-1
 874 805 l 1,7,-1
 874 654 l 1,8,-1
 356 654 l 1,9,-1
 356 152 l 1,10,-1
 948 152 l 1,11,-1
 948 0 l 1,0,-1
EndSplineSet
EndChar

StartChar: uni13AD
Encoding: 5037 5037 262
Width: 1466
GlyphClass: 2
Flags: W
LayerCount: 2
Fore
SplineSet
550 1290 m 1,0,-1
 550 1434 l 1,1,-1
 992 1434 l 1,2,-1
 992 1290 l 1,3,-1
 852 1290 l 1,4,-1
 852 853 l 1,5,-1
 1446 853 l 1,6,-1
 1446 746 l 1,7,-1
 888 0 l 1,8,-1
 690 0 l 1,9,-1
 690 720 l 1,10,-1
 577 720 l 1,11,12
 569 664 569 664 548.5 616.5 c 128,-1,13
 528 569 528 569 493.5 534 c 128,-1,14
 459 499 459 499 410 479 c 128,-1,15
 361 459 361 459 296 459 c 0,16,17
 223 459 223 459 171.5 484.5 c 128,-1,18
 120 510 120 510 87 553 c 128,-1,19
 54 596 54 596 39 653.5 c 128,-1,20
 24 711 24 711 24 774 c 0,21,22
 24 840 24 840 40.5 899.5 c 128,-1,23
 57 959 57 959 92 1004 c 128,-1,24
 127 1049 127 1049 180.5 1075 c 128,-1,25
 234 1101 234 1101 308 1101 c 0,26,27
 368 1101 368 1101 414.5 1081.5 c 128,-1,28
 461 1062 461 1062 494 1028.5 c 128,-1,29
 527 995 527 995 547.5 949.5 c 128,-1,30
 568 904 568 904 576 853 c 1,31,-1
 690 853 l 1,32,-1
 690 1290 l 1,33,-1
 550 1290 l 1,0,-1
852 720 m 1,34,-1
 852 182 l 1,35,-1
 1254 720 l 1,36,-1
 852 720 l 1,34,-1
302 984 m 256,37,38
 266 984 266 984 239.5 968.5 c 128,-1,39
 213 953 213 953 195.5 925.5 c 128,-1,40
 178 898 178 898 170 860.5 c 128,-1,41
 162 823 162 823 162 780 c 256,42,43
 162 737 162 737 170.5 699.5 c 128,-1,44
 179 662 179 662 196 634.5 c 128,-1,45
 213 607 213 607 239.5 591.5 c 128,-1,46
 266 576 266 576 302 576 c 256,47,48
 338 576 338 576 364.5 591.5 c 128,-1,49
 391 607 391 607 408.5 634.5 c 128,-1,50
 426 662 426 662 434 699.5 c 128,-1,51
 442 737 442 737 442 780 c 0,52,53
 442 824 442 824 434 861.5 c 128,-1,54
 426 899 426 899 408.5 926 c 128,-1,55
 391 953 391 953 364.5 968.5 c 128,-1,56
 338 984 338 984 302 984 c 256,37,38
EndSplineSet
EndChar

StartChar: uni13AE
Encoding: 5038 5038 263
Width: 1206
GlyphClass: 2
Flags: W
LayerCount: 2
Fore
SplineSet
612 798 m 1,0,-1
 612 654 l 1,1,-1
 472 654 l 1,2,-1
 472 544 l 1,3,4
 502 533 502 533 533 528.5 c 128,-1,5
 564 524 564 524 596 524 c 0,6,7
 681 524 681 524 746 553.5 c 128,-1,8
 811 583 811 583 855 635 c 128,-1,9
 899 687 899 687 921.5 758 c 128,-1,10
 944 829 944 829 944 912 c 256,11,12
 944 995 944 995 923.5 1069 c 128,-1,13
 903 1143 903 1143 859.5 1199 c 128,-1,14
 816 1255 816 1255 748 1287.5 c 128,-1,15
 680 1320 680 1320 585 1320 c 0,16,17
 535 1320 535 1320 490.5 1312 c 128,-1,18
 446 1304 446 1304 407 1290.5 c 128,-1,19
 368 1277 368 1277 335 1260 c 128,-1,20
 302 1243 302 1243 275 1225 c 0,21,22
 212 1183 212 1183 164 1130 c 1,23,-1
 164 1298 l 1,24,25
 211 1343 211 1343 273 1378 c 0,26,27
 327 1408 327 1408 403 1433 c 128,-1,28
 479 1458 479 1458 579 1458 c 0,29,30
 715 1458 715 1458 815 1416.5 c 128,-1,31
 915 1375 915 1375 981 1300.5 c 128,-1,32
 1047 1226 1047 1226 1079.5 1123 c 128,-1,33
 1112 1020 1112 1020 1112 898 c 0,34,35
 1112 788 1112 788 1077.5 694 c 128,-1,36
 1043 600 1043 600 979.5 531.5 c 128,-1,37
 916 463 916 463 826 424.5 c 128,-1,38
 736 386 736 386 624 386 c 0,39,40
 542 386 542 386 472 404 c 1,41,-1
 472 144 l 1,42,-1
 612 144 l 1,43,-1
 612 0 l 1,44,-1
 164 0 l 1,45,-1
 164 144 l 1,46,-1
 304 144 l 1,47,-1
 304 654 l 1,48,-1
 164 654 l 1,49,-1
 164 798 l 1,50,-1
 612 798 l 1,0,-1
EndSplineSet
EndChar

StartChar: uni13AF
Encoding: 5039 5039 264
Width: 1441
GlyphClass: 2
Flags: W
LayerCount: 2
Fore
SplineSet
2 156 m 1,0,1
 54 127 54 127 115 127 c 0,2,3
 173 127 173 127 213.5 167.5 c 128,-1,4
 254 208 254 208 282 276 c 128,-1,5
 310 344 310 344 328 434 c 128,-1,6
 346 524 346 524 359.5 623.5 c 128,-1,7
 373 723 373 723 385.5 826 c 128,-1,8
 398 929 398 929 415 1022 c 0,9,10
 434 1128 434 1128 474 1209.5 c 128,-1,11
 514 1291 514 1291 572 1346.5 c 128,-1,12
 630 1402 630 1402 704.5 1430 c 128,-1,13
 779 1458 779 1458 867 1458 c 0,14,15
 1317 1458 1317 1458 1317 723 c 0,16,17
 1317 663 1317 663 1314 584.5 c 128,-1,18
 1311 506 1311 506 1299 423 c 128,-1,19
 1287 340 1287 340 1262 260 c 128,-1,20
 1237 180 1237 180 1192.5 117 c 128,-1,21
 1148 54 1148 54 1081.5 15.5 c 128,-1,22
 1015 -23 1015 -23 919 -23 c 0,23,24
 840 -23 840 -23 782 -2 c 1,25,-1
 782 156 l 1,26,27
 834 127 834 127 895 127 c 0,28,29
 976 127 976 127 1025.5 168 c 128,-1,30
 1075 209 1075 209 1102 279 c 128,-1,31
 1129 349 1129 349 1138 442.5 c 128,-1,32
 1147 536 1147 536 1148 641 c 1,33,-1
 523 641 l 1,34,35
 512 563 512 563 498.5 483.5 c 128,-1,36
 485 404 485 404 464.5 330 c 128,-1,37
 444 256 444 256 415.5 192 c 128,-1,38
 387 128 387 128 348 80 c 128,-1,39
 309 32 309 32 257.5 4.5 c 128,-1,40
 206 -23 206 -23 139 -23 c 0,41,42
 60 -23 60 -23 2 -2 c 1,43,-1
 2 156 l 1,0,1
858 1319 m 0,44,45
 747 1319 747 1319 677.5 1235.5 c 128,-1,46
 608 1152 608 1152 573 991 c 0,47,48
 564 951 564 951 557.5 901.5 c 128,-1,49
 551 852 551 852 543 796 c 1,50,-1
 1147 796 l 1,51,52
 1128 1319 1128 1319 858 1319 c 0,44,45
EndSplineSet
EndChar

StartChar: uni13B0
Encoding: 5040 5040 265
Width: 938
GlyphClass: 2
Flags: W
LayerCount: 2
Fore
SplineSet
356 1434 m 1,0,-1
 356 786 l 1,1,-1
 874 786 l 1,2,-1
 874 635 l 1,3,-1
 356 635 l 1,4,-1
 356 0 l 1,5,-1
 188 0 l 1,6,-1
 188 1434 l 1,7,-1
 356 1434 l 1,0,-1
EndSplineSet
EndChar

StartChar: uni13B1
Encoding: 5041 5041 266
Width: 966
GlyphClass: 2
Flags: W
LayerCount: 2
Fore
SplineSet
932 1278 m 1,0,-1
 357 1278 l 1,1,-1
 357 0 l 1,2,-1
 188 0 l 1,3,-1
 188 1434 l 1,4,-1
 932 1434 l 1,5,-1
 932 1278 l 1,0,-1
EndSplineSet
EndChar

StartChar: uni13B2
Encoding: 5042 5042 267
Width: 1758
GlyphClass: 2
Flags: W
LayerCount: 2
Fore
SplineSet
482 114 m 0,0,1
 600 114 600 114 714 184 c 1,2,3
 649 246 649 246 593 325.5 c 128,-1,4
 537 405 537 405 496 501 c 128,-1,5
 455 597 455 597 431.5 709.5 c 128,-1,6
 408 822 408 822 408 950 c 0,7,8
 408 1052 408 1052 437.5 1144 c 128,-1,9
 467 1236 467 1236 521.5 1305.5 c 128,-1,10
 576 1375 576 1375 653.5 1416.5 c 128,-1,11
 731 1458 731 1458 828 1458 c 256,12,13
 925 1458 925 1458 1002.5 1416.5 c 128,-1,14
 1080 1375 1080 1375 1134.5 1305.5 c 128,-1,15
 1189 1236 1189 1236 1218.5 1144 c 128,-1,16
 1248 1052 1248 1052 1248 950 c 0,17,18
 1248 821 1248 821 1225 708.5 c 128,-1,19
 1202 596 1202 596 1162 500 c 128,-1,20
 1122 404 1122 404 1066.5 324.5 c 128,-1,21
 1011 245 1011 245 947 183 c 1,22,23
 1060 114 1060 114 1174 114 c 0,24,25
 1238 114 1238 114 1285.5 138.5 c 128,-1,26
 1333 163 1333 163 1364.5 206 c 128,-1,27
 1396 249 1396 249 1411 308 c 128,-1,28
 1426 367 1426 367 1426 436 c 1,29,-1
 1286 436 l 1,30,-1
 1286 580 l 1,31,-1
 1734 580 l 1,32,-1
 1734 436 l 1,33,-1
 1594 436 l 1,34,35
 1594 382 1594 382 1584.5 326.5 c 128,-1,36
 1575 271 1575 271 1554 220 c 128,-1,37
 1533 169 1533 169 1500 124.5 c 128,-1,38
 1467 80 1467 80 1420 47 c 128,-1,39
 1373 14 1373 14 1311.5 -5 c 128,-1,40
 1250 -24 1250 -24 1172 -24 c 0,41,42
 1091 -24 1091 -24 1004 4.5 c 128,-1,43
 917 33 917 33 832 90 c 1,44,45
 747 33 747 33 658 4.5 c 128,-1,46
 569 -24 569 -24 484 -24 c 0,47,48
 406 -24 406 -24 345 -5 c 128,-1,49
 284 14 284 14 237.5 47 c 128,-1,50
 191 80 191 80 158 124.5 c 128,-1,51
 125 169 125 169 104 220 c 128,-1,52
 83 271 83 271 73.5 326.5 c 128,-1,53
 64 382 64 382 64 436 c 1,54,-1
 232 436 l 1,55,56
 232 367 232 367 247 308 c 128,-1,57
 262 249 262 249 292.5 206 c 128,-1,58
 323 163 323 163 370 138.5 c 128,-1,59
 417 114 417 114 482 114 c 0,0,1
1072 960 m 0,60,61
 1072 1012 1072 1012 1058.5 1072.5 c 128,-1,62
 1045 1133 1045 1133 1015.5 1185 c 128,-1,63
 986 1237 986 1237 940 1271.5 c 128,-1,64
 894 1306 894 1306 828 1306 c 256,65,66
 762 1306 762 1306 716 1271.5 c 128,-1,67
 670 1237 670 1237 640.5 1185 c 128,-1,68
 611 1133 611 1133 597.5 1072.5 c 128,-1,69
 584 1012 584 1012 584 960 c 0,70,71
 584 846 584 846 602.5 745 c 128,-1,72
 621 644 621 644 654 558 c 128,-1,73
 687 472 687 472 731.5 401.5 c 128,-1,74
 776 331 776 331 829 277 c 1,75,76
 881 331 881 331 926 401.5 c 128,-1,77
 971 472 971 472 1003 558 c 128,-1,78
 1035 644 1035 644 1053.5 745 c 128,-1,79
 1072 846 1072 846 1072 960 c 0,60,61
EndSplineSet
EndChar

StartChar: uni13B3
Encoding: 5043 5043 268
Width: 1913
GlyphClass: 2
Flags: W
LayerCount: 2
Fore
SplineSet
1888 1434 m 1,0,-1
 1483 0 l 1,1,-1
 1286 0 l 1,2,-1
 991 1048 l 2,3,4
 972 1115 972 1115 968 1194 c 1,5,-1
 964 1194 l 1,6,7
 958 1120 958 1120 938 1050 c 2,8,-1
 641 0 l 1,9,-1
 446 0 l 1,10,-1
 26 1434 l 1,11,-1
 211 1434 l 1,12,-1
 516 334 l 2,13,14
 535 265 535 265 540 190 c 1,15,-1
 545 190 l 1,16,17
 550 243 550 243 576 334 c 2,18,-1
 893 1434 l 1,19,-1
 1054 1434 l 1,20,-1
 1358 326 l 2,21,22
 1374 269 1374 269 1382 192 c 1,23,-1
 1386 192 l 1,24,25
 1390 244 1390 244 1413 330 c 2,26,-1
 1706 1434 l 1,27,-1
 1888 1434 l 1,0,-1
EndSplineSet
EndChar

StartChar: uni13B4
Encoding: 5044 5044 269
Width: 1228
GlyphClass: 2
Flags: W
LayerCount: 2
Fore
SplineSet
984 434 m 0,0,1
 984 333 984 333 953 249 c 128,-1,2
 922 165 922 165 864 104 c 128,-1,3
 806 43 806 43 724 9.5 c 128,-1,4
 642 -24 642 -24 540 -24 c 0,5,6
 437 -24 437 -24 354.5 9.5 c 128,-1,7
 272 43 272 43 214 104 c 128,-1,8
 156 165 156 165 125 249 c 128,-1,9
 94 333 94 333 94 434 c 256,10,11
 94 535 94 535 125 619 c 128,-1,12
 156 703 156 703 214 764 c 128,-1,13
 272 825 272 825 354.5 858.5 c 128,-1,14
 437 892 437 892 540 892 c 0,15,16
 633 892 633 892 711 863 c 1,17,18
 683 963 683 963 665.5 1060 c 128,-1,19
 648 1157 648 1157 648 1238 c 0,20,21
 648 1310 648 1310 675 1365.5 c 128,-1,22
 702 1421 702 1421 749 1458.5 c 128,-1,23
 796 1496 796 1496 860.5 1515 c 128,-1,24
 925 1534 925 1534 1000 1534 c 0,25,26
 1042 1534 1042 1534 1079.5 1526.5 c 128,-1,27
 1117 1519 1117 1519 1146 1511 c 0,28,29
 1179 1500 1179 1500 1208 1488 c 1,30,-1
 1208 1322 l 1,31,32
 1175 1342 1175 1342 1138 1359 c 0,33,34
 1106 1373 1106 1373 1064.5 1384.5 c 128,-1,35
 1023 1396 1023 1396 978 1396 c 0,36,37
 932 1396 932 1396 901 1382.5 c 128,-1,38
 870 1369 870 1369 851 1346 c 128,-1,39
 832 1323 832 1323 824 1293.5 c 128,-1,40
 816 1264 816 1264 816 1232 c 0,41,42
 816 1176 816 1176 825 1115.5 c 128,-1,43
 834 1055 834 1055 847.5 993.5 c 128,-1,44
 861 932 861 932 878.5 872.5 c 128,-1,45
 896 813 896 813 912.5 759.5 c 128,-1,46
 929 706 929 706 943 661 c 128,-1,47
 957 616 957 616 965 584 c 0,48,49
 974 549 974 549 979 511.5 c 128,-1,50
 984 474 984 474 984 434 c 0,0,1
816 434 m 256,51,52
 816 498 816 498 798 556 c 128,-1,53
 780 614 780 614 744.5 658 c 128,-1,54
 709 702 709 702 657 728 c 128,-1,55
 605 754 605 754 538 754 c 256,56,57
 471 754 471 754 419.5 728 c 128,-1,58
 368 702 368 702 333 658 c 128,-1,59
 298 614 298 614 280 556 c 128,-1,60
 262 498 262 498 262 434 c 256,61,62
 262 370 262 370 280 312 c 128,-1,63
 298 254 298 254 333 210 c 128,-1,64
 368 166 368 166 419.5 140 c 128,-1,65
 471 114 471 114 538 114 c 256,66,67
 605 114 605 114 657 140 c 128,-1,68
 709 166 709 166 744.5 210 c 128,-1,69
 780 254 780 254 798 312 c 128,-1,70
 816 370 816 370 816 434 c 256,51,52
EndSplineSet
EndChar

StartChar: uni13B5
Encoding: 5045 5045 270
Width: 1228
GlyphClass: 2
Flags: W
LayerCount: 2
Fore
SplineSet
925 796 m 1,0,1
 948 834 948 834 959 884.5 c 128,-1,2
 970 935 970 935 970 998 c 0,3,4
 970 1069 970 1069 949.5 1122 c 128,-1,5
 929 1175 929 1175 891 1210.5 c 128,-1,6
 853 1246 853 1246 800 1264 c 128,-1,7
 747 1282 747 1282 683 1282 c 0,8,9
 599 1282 599 1282 537.5 1250 c 128,-1,10
 476 1218 476 1218 435.5 1165 c 128,-1,11
 395 1112 395 1112 375.5 1044.5 c 128,-1,12
 356 977 356 977 356 906 c 2,13,-1
 356 0 l 1,14,-1
 188 0 l 1,15,-1
 188 914 l 2,16,17
 188 1036 188 1036 225.5 1132.5 c 128,-1,18
 263 1229 263 1229 329 1296 c 128,-1,19
 395 1363 395 1363 485.5 1398.5 c 128,-1,20
 576 1434 576 1434 683 1434 c 0,21,22
 778 1434 778 1434 862.5 1408 c 128,-1,23
 947 1382 947 1382 1010 1329 c 128,-1,24
 1073 1276 1073 1276 1109.5 1195.5 c 128,-1,25
 1146 1115 1146 1115 1146 1006 c 0,26,27
 1146 961 1146 961 1139 919 c 128,-1,28
 1132 877 1132 877 1120.5 839.5 c 128,-1,29
 1109 802 1109 802 1095 770 c 128,-1,30
 1081 738 1081 738 1067 713 c 1,31,-1
 925 796 l 1,0,1
EndSplineSet
EndChar

StartChar: uni13B6
Encoding: 5046 5046 271
Width: 1466
GlyphClass: 2
Flags: W
LayerCount: 2
Fore
SplineSet
991 474 m 1,0,-1
 847 474 l 1,1,-1
 847 922 l 1,2,-1
 991 922 l 1,3,-1
 991 767 l 1,4,5
 1030 767 1030 767 1074 760.5 c 128,-1,6
 1118 754 1118 754 1161.5 738 c 128,-1,7
 1205 722 1205 722 1245 695.5 c 128,-1,8
 1285 669 1285 669 1315.5 629 c 128,-1,9
 1346 589 1346 589 1364 533.5 c 128,-1,10
 1382 478 1382 478 1382 405 c 0,11,12
 1382 321 1382 321 1354 257 c 128,-1,13
 1326 193 1326 193 1280.5 145 c 128,-1,14
 1235 97 1235 97 1176.5 65 c 128,-1,15
 1118 33 1118 33 1056.5 13 c 128,-1,16
 995 -7 995 -7 936 -15.5 c 128,-1,17
 877 -24 877 -24 830 -24 c 0,18,19
 651 -24 651 -24 513.5 30 c 128,-1,20
 376 84 376 84 283 180 c 128,-1,21
 190 276 190 276 142 408.5 c 128,-1,22
 94 541 94 541 94 698 c 0,23,24
 94 861 94 861 149 1000 c 128,-1,25
 204 1139 204 1139 303 1241 c 128,-1,26
 402 1343 402 1343 538.5 1400.5 c 128,-1,27
 675 1458 675 1458 838 1458 c 0,28,29
 1073 1458 1073 1458 1231 1382 c 1,30,-1
 1231 1196 l 1,31,32
 1056 1306 1056 1306 819 1306 c 0,33,34
 693 1306 693 1306 591 1259.5 c 128,-1,35
 489 1213 489 1213 418 1132 c 128,-1,36
 347 1051 347 1051 308.5 942.5 c 128,-1,37
 270 834 270 834 270 710 c 0,38,39
 270 582 270 582 304 475 c 128,-1,40
 338 368 338 368 407.5 291 c 128,-1,41
 477 214 477 214 582.5 170.5 c 128,-1,42
 688 127 688 127 831 127 c 0,43,44
 859 127 859 127 898.5 131.5 c 128,-1,45
 938 136 938 136 980.5 147 c 128,-1,46
 1023 158 1023 158 1065.5 177.5 c 128,-1,47
 1108 197 1108 197 1141.5 228 c 128,-1,48
 1175 259 1175 259 1195.5 302 c 128,-1,49
 1216 345 1216 345 1216 403 c 0,50,51
 1216 456 1216 456 1198 496.5 c 128,-1,52
 1180 537 1180 537 1149 564 c 128,-1,53
 1118 591 1118 591 1077 605 c 128,-1,54
 1036 619 1036 619 991 619 c 1,55,-1
 991 474 l 1,0,-1
EndSplineSet
EndChar

StartChar: uni13B7
Encoding: 5047 5047 272
Width: 1839
GlyphClass: 2
Flags: W
LayerCount: 2
Fore
SplineSet
1650 0 m 1,0,-1
 1483 0 l 1,1,-1
 1483 962 l 2,2,3
 1483 1076 1483 1076 1497 1241 c 1,4,-1
 1493 1241 l 1,5,6
 1469 1144 1469 1144 1450 1102 c 2,7,-1
 960 0 l 1,8,-1
 878 0 l 1,9,-1
 389 1094 l 2,10,11
 368 1142 368 1142 346 1241 c 1,12,-1
 342 1241 l 1,13,14
 350 1155 350 1155 350 960 c 2,15,-1
 350 0 l 1,16,-1
 188 0 l 1,17,-1
 188 1434 l 1,18,-1
 410 1434 l 1,19,-1
 850 434 l 2,20,21
 901 319 901 319 916 262 c 1,22,-1
 922 262 l 1,23,24
 965 380 965 380 991 438 c 2,25,-1
 1440 1434 l 1,26,-1
 1650 1434 l 1,27,-1
 1650 0 l 1,0,-1
EndSplineSet
EndChar

StartChar: uni13B8
Encoding: 5048 5048 273
Width: 987
GlyphClass: 2
Flags: W
LayerCount: 2
Fore
SplineSet
238 524 m 1,0,-1
 94 524 l 1,1,-1
 94 972 l 1,2,-1
 238 972 l 1,3,-1
 238 822 l 1,4,5
 267 838 267 838 304 851.5 c 128,-1,6
 341 865 341 865 373 865 c 0,7,8
 402 865 402 865 426.5 848.5 c 128,-1,9
 451 832 451 832 473.5 812.5 c 128,-1,10
 496 793 496 793 518 776.5 c 128,-1,11
 540 760 540 760 566 760 c 0,12,13
 595 760 595 760 628 775.5 c 128,-1,14
 661 791 661 791 689 810 c 1,15,-1
 689 881 l 2,16,17
 689 1094 689 1094 609 1200.5 c 128,-1,18
 529 1307 529 1307 350 1307 c 0,19,20
 298 1307 298 1307 252 1299.5 c 128,-1,21
 206 1292 206 1292 171 1283 c 0,22,23
 130 1272 130 1272 94 1260 c 1,24,-1
 94 1429 l 1,25,26
 123 1437 123 1437 160 1443 c 0,27,28
 192 1448 192 1448 235 1453 c 128,-1,29
 278 1458 278 1458 332 1458 c 0,30,31
 604 1458 604 1458 730.5 1307 c 128,-1,32
 857 1156 857 1156 857 854 c 2,33,-1
 857 0 l 1,34,-1
 689 0 l 1,35,-1
 689 666 l 1,36,37
 674 658 674 658 657.5 649.5 c 128,-1,38
 641 641 641 641 623.5 634 c 128,-1,39
 606 627 606 627 589.5 623 c 128,-1,40
 573 619 573 619 558 619 c 0,41,42
 526 619 526 619 497.5 635.5 c 128,-1,43
 469 652 469 652 444 671.5 c 128,-1,44
 419 691 419 691 399 707.5 c 128,-1,45
 379 724 379 724 364 724 c 0,46,47
 340 724 340 724 305 708 c 128,-1,48
 270 692 270 692 238 674 c 1,49,-1
 238 524 l 1,0,-1
EndSplineSet
EndChar

StartChar: uni13B9
Encoding: 5049 5049 274
Width: 1847
GlyphClass: 2
Flags: W
LayerCount: 2
Fore
SplineSet
833 910 m 1,0,1
 756 910 756 910 686 882.5 c 128,-1,2
 616 855 616 855 558 805 c 1,3,4
 625 790 625 790 684.5 755.5 c 128,-1,5
 744 721 744 721 789 666 c 128,-1,6
 834 611 834 611 860 533 c 128,-1,7
 886 455 886 455 886 353 c 0,8,9
 886 270 886 270 865.5 200.5 c 128,-1,10
 845 131 845 131 805.5 81 c 128,-1,11
 766 31 766 31 708 3.5 c 128,-1,12
 650 -24 650 -24 575 -24 c 0,13,14
 479 -24 479 -24 412 13.5 c 128,-1,15
 345 51 345 51 302.5 111 c 128,-1,16
 260 171 260 171 241 246 c 128,-1,17
 222 321 222 321 222 396 c 0,18,19
 222 469 222 469 233 534 c 128,-1,20
 244 599 244 599 265 656 c 1,21,22
 216 636 216 636 174 604 c 128,-1,23
 132 572 132 572 102 528 c 1,24,-1
 10 611 l 1,25,26
 34 650 34 650 70 683.5 c 128,-1,27
 106 717 106 717 150.5 742.5 c 128,-1,28
 195 768 195 768 245.5 785.5 c 128,-1,29
 296 803 296 803 349 811 c 1,30,31
 431 918 431 918 552.5 977 c 128,-1,32
 674 1036 674 1036 815 1044 c 1,33,-1
 815 1290 l 1,34,-1
 675 1290 l 1,35,-1
 675 1434 l 1,36,-1
 1123 1434 l 1,37,-1
 1123 1290 l 1,38,-1
 983 1290 l 1,39,-1
 983 1044 l 2,40,41
 983 961 983 961 998 905 c 128,-1,42
 1013 849 1013 849 1038.5 815.5 c 128,-1,43
 1064 782 1064 782 1097.5 768 c 128,-1,44
 1131 754 1131 754 1167 754 c 0,45,46
 1205 754 1205 754 1240.5 768 c 128,-1,47
 1276 782 1276 782 1311 803.5 c 128,-1,48
 1346 825 1346 825 1381.5 849.5 c 128,-1,49
 1417 874 1417 874 1454.5 895.5 c 128,-1,50
 1492 917 1492 917 1533 931 c 128,-1,51
 1574 945 1574 945 1621 945 c 0,52,53
 1660 945 1660 945 1700 932 c 128,-1,54
 1740 919 1740 919 1772 904 c 0,55,56
 1810 886 1810 886 1845 864 c 1,57,-1
 1845 716 l 1,58,59
 1812 741 1812 741 1776 760 c 0,60,61
 1745 777 1745 777 1706.5 790.5 c 128,-1,62
 1668 804 1668 804 1629 804 c 0,63,64
 1594 804 1594 804 1561 790 c 128,-1,65
 1528 776 1528 776 1493.5 754.5 c 128,-1,66
 1459 733 1459 733 1423.5 708.5 c 128,-1,67
 1388 684 1388 684 1348 662.5 c 128,-1,68
 1308 641 1308 641 1263.5 627 c 128,-1,69
 1219 613 1219 613 1167 613 c 0,70,71
 1114 613 1114 613 1071.5 625.5 c 128,-1,72
 1029 638 1029 638 995.5 659 c 128,-1,73
 962 680 962 680 937 706.5 c 128,-1,74
 912 733 912 733 894 761 c 0,75,76
 852 826 852 826 833 910 c 1,0,1
390 416 m 0,77,78
 390 368 390 368 398.5 312 c 128,-1,79
 407 256 407 256 428.5 209 c 128,-1,80
 450 162 450 162 486.5 130.5 c 128,-1,81
 523 99 523 99 579 99 c 0,82,83
 620 99 620 99 648 122 c 128,-1,84
 676 145 676 145 693.5 181 c 128,-1,85
 711 217 711 217 718.5 260.5 c 128,-1,86
 726 304 726 304 726 346 c 0,87,88
 726 427 726 427 704 487.5 c 128,-1,89
 682 548 682 548 645.5 589 c 128,-1,90
 609 630 609 630 560.5 653.5 c 128,-1,91
 512 677 512 677 459 683 c 1,92,93
 426 626 426 626 408 559 c 128,-1,94
 390 492 390 492 390 416 c 0,77,78
EndSplineSet
EndChar

StartChar: uni13BA
Encoding: 5050 5050 275
Width: 1584
GlyphClass: 2
Flags: W
LayerCount: 2
Fore
SplineSet
1396 1434 m 1,0,-1
 1396 0 l 1,1,-1
 1228 0 l 1,2,-1
 1228 635 l 1,3,-1
 1061 635 l 1,4,5
 1057 551 1057 551 1044 469.5 c 128,-1,6
 1031 388 1031 388 1006.5 315 c 128,-1,7
 982 242 982 242 944.5 179.5 c 128,-1,8
 907 117 907 117 854 72 c 128,-1,9
 801 27 801 27 731.5 1.5 c 128,-1,10
 662 -24 662 -24 574 -24 c 0,11,12
 483 -24 483 -24 414 5 c 128,-1,13
 345 34 345 34 293.5 84.5 c 128,-1,14
 242 135 242 135 207.5 203.5 c 128,-1,15
 173 272 173 272 152.5 351 c 128,-1,16
 132 430 132 430 123 516 c 128,-1,17
 114 602 114 602 114 688 c 0,18,19
 114 878 114 878 147 1022 c 128,-1,20
 180 1166 180 1166 243 1263 c 128,-1,21
 306 1360 306 1360 397.5 1409 c 128,-1,22
 489 1458 489 1458 606 1458 c 0,23,24
 821 1458 821 1458 937 1290 c 128,-1,25
 1053 1122 1053 1122 1063 786 c 1,26,-1
 1228 786 l 1,27,-1
 1228 1434 l 1,28,-1
 1396 1434 l 1,0,-1
597 1306 m 0,29,30
 443 1306 443 1306 366.5 1156.5 c 128,-1,31
 290 1007 290 1007 290 696 c 0,32,33
 290 405 290 405 365 266 c 128,-1,34
 440 127 440 127 591 127 c 0,35,36
 739 127 739 127 813.5 268.5 c 128,-1,37
 888 410 888 410 888 706 c 0,38,39
 888 1013 888 1013 815 1159.5 c 128,-1,40
 742 1306 742 1306 597 1306 c 0,29,30
EndSplineSet
EndChar

StartChar: uni13BB
Encoding: 5051 5051 276
Width: 1454
GlyphClass: 2
Flags: W
LayerCount: 2
Fore
SplineSet
1266 0 m 1,0,-1
 1098 0 l 1,1,-1
 1098 654 l 1,2,-1
 356 654 l 1,3,-1
 356 0 l 1,4,-1
 188 0 l 1,5,-1
 188 1434 l 1,6,-1
 356 1434 l 1,7,-1
 356 805 l 1,8,-1
 1098 805 l 1,9,-1
 1098 1434 l 1,10,-1
 1266 1434 l 1,11,-1
 1266 0 l 1,0,-1
EndSplineSet
EndChar

StartChar: uni13BC
Encoding: 5052 5052 277
Width: 1028
GlyphClass: 2
Flags: W
LayerCount: 2
Fore
SplineSet
654 1434 m 1,0,-1
 654 1290 l 1,1,-1
 514 1290 l 1,2,-1
 514 1038 l 1,3,4
 613 1020 613 1020 691 972.5 c 128,-1,5
 769 925 769 925 823 853 c 128,-1,6
 877 781 877 781 905.5 688.5 c 128,-1,7
 934 596 934 596 934 488 c 0,8,9
 934 377 934 377 900 283.5 c 128,-1,10
 866 190 866 190 802.5 121.5 c 128,-1,11
 739 53 739 53 648.5 14.5 c 128,-1,12
 558 -24 558 -24 446 -24 c 0,13,14
 405 -24 405 -24 361.5 -19.5 c 128,-1,15
 318 -15 318 -15 275.5 -6 c 128,-1,16
 233 3 233 3 194.5 16 c 128,-1,17
 156 29 156 29 126 47 c 1,18,-1
 126 203 l 1,19,20
 156 181 156 181 192.5 164.5 c 128,-1,21
 229 148 229 148 268 136.5 c 128,-1,22
 307 125 307 125 346 119.5 c 128,-1,23
 385 114 385 114 418 114 c 0,24,25
 503 114 503 114 568 143.5 c 128,-1,26
 633 173 633 173 677 224.5 c 128,-1,27
 721 276 721 276 743.5 347 c 128,-1,28
 766 418 766 418 766 502 c 0,29,30
 766 585 766 585 742 659.5 c 128,-1,31
 718 734 718 734 672.5 789.5 c 128,-1,32
 627 845 627 845 560 877.5 c 128,-1,33
 493 910 493 910 408 910 c 0,34,35
 375 910 375 910 337.5 905 c 128,-1,36
 300 900 300 900 262 890 c 128,-1,37
 224 880 224 880 188 865 c 128,-1,38
 152 850 152 850 124 830 c 1,39,-1
 124 998 l 1,40,41
 166 1018 166 1018 226 1029.5 c 128,-1,42
 286 1041 286 1041 346 1046 c 1,43,-1
 346 1290 l 1,44,-1
 206 1290 l 1,45,-1
 206 1434 l 1,46,-1
 654 1434 l 1,0,-1
EndSplineSet
EndChar

StartChar: uni13BD
Encoding: 5053 5053 278
Width: 1572
GlyphClass: 2
Flags: W
LayerCount: 2
Fore
SplineSet
1558 1434 m 1,0,-1
 1558 1290 l 1,1,-1
 1417 1290 l 1,2,-1
 1038 433 l 2,3,4
 994 334 994 334 950.5 250.5 c 128,-1,5
 907 167 907 167 853.5 105.5 c 128,-1,6
 800 44 800 44 731.5 9.5 c 128,-1,7
 663 -25 663 -25 570 -25 c 0,8,9
 492 -25 492 -25 430.5 -6 c 128,-1,10
 369 13 369 13 322 46 c 128,-1,11
 275 79 275 79 242 123.5 c 128,-1,12
 209 168 209 168 188 219 c 128,-1,13
 167 270 167 270 157.5 325.5 c 128,-1,14
 148 381 148 381 148 435 c 1,15,-1
 8 435 l 1,16,-1
 8 579 l 1,17,-1
 456 579 l 1,18,-1
 456 435 l 1,19,-1
 316 435 l 1,20,21
 316 366 316 366 332.5 309 c 128,-1,22
 349 252 349 252 379.5 211 c 128,-1,23
 410 170 410 170 455 147.5 c 128,-1,24
 500 125 500 125 557 125 c 0,25,26
 618 125 618 125 659 148.5 c 128,-1,27
 700 172 700 172 731.5 211.5 c 128,-1,28
 763 251 763 251 790.5 302 c 128,-1,29
 818 353 818 353 853 408 c 1,30,-1
 367 1434 l 1,31,-1
 558 1434 l 1,32,-1
 939 575 l 1,33,-1
 941 575 l 1,34,-1
 1240 1290 l 1,35,-1
 1110 1290 l 1,36,-1
 1110 1434 l 1,37,-1
 1558 1434 l 1,0,-1
EndSplineSet
EndChar

StartChar: uni13BE
Encoding: 5054 5054 279
Width: 1544
GlyphClass: 2
Flags: W
LayerCount: 2
Fore
SplineSet
766 -24 m 0,0,1
 461 -24 461 -24 277.5 177 c 128,-1,2
 94 378 94 378 94 700 c 0,3,4
 94 1046 94 1046 281 1252 c 128,-1,5
 468 1458 468 1458 790 1458 c 0,6,7
 1087 1458 1087 1458 1268.5 1258 c 128,-1,8
 1450 1058 1450 1058 1450 735 c 0,9,10
 1450 384 1450 384 1264 180 c 128,-1,11
 1078 -24 1078 -24 766 -24 c 0,0,1
1270 792 m 1,12,13
 1252 1037 1252 1037 1122.5 1171.5 c 128,-1,14
 993 1306 993 1306 778 1306 c 0,15,16
 570 1306 570 1306 433 1166 c 128,-1,17
 296 1026 296 1026 274 792 c 1,18,-1
 1270 792 l 1,12,13
1270 637 m 1,19,-1
 274 637 l 1,20,21
 295 403 295 403 429 265 c 128,-1,22
 563 127 563 127 766 127 c 0,23,24
 986 127 986 127 1118.5 260.5 c 128,-1,25
 1251 394 1251 394 1270 637 c 1,19,-1
EndSplineSet
EndChar

StartChar: uni13BF
Encoding: 5055 5055 280
Width: 1128
GlyphClass: 2
Flags: W
LayerCount: 2
Fore
SplineSet
641 520 m 1,0,-1
 1085 520 l 1,1,-1
 1085 376 l 1,2,-1
 945 376 l 1,3,-1
 945 43 l 2,4,5
 945 -44 945 -44 928 -109.5 c 128,-1,6
 911 -175 911 -175 883.5 -224 c 128,-1,7
 856 -273 856 -273 821 -306.5 c 128,-1,8
 786 -340 786 -340 749 -362 c 0,9,10
 663 -414 663 -414 553 -422 c 1,11,-1
 553 -282 l 1,12,13
 589 -278 589 -278 614 -269.5 c 128,-1,14
 639 -261 639 -261 668.5 -242.5 c 128,-1,15
 698 -224 698 -224 723 -191 c 128,-1,16
 748 -158 748 -158 764.5 -107.5 c 128,-1,17
 781 -57 781 -57 781 16 c 2,18,-1
 781 79 l 1,19,20
 736 33 736 33 678.5 5.5 c 128,-1,21
 621 -22 621 -22 547 -22 c 0,22,23
 472 -22 472 -22 411.5 1.5 c 128,-1,24
 351 25 351 25 308 68 c 128,-1,25
 265 111 265 111 242 172 c 128,-1,26
 219 233 219 233 219 308 c 2,27,-1
 219 884 l 1,28,-1
 43 884 l 1,29,-1
 43 1024 l 1,30,-1
 219 1024 l 1,31,-1
 219 1274 l 1,32,-1
 383 1327 l 1,33,-1
 383 1024 l 1,34,-1
 641 1024 l 1,35,-1
 641 884 l 1,36,-1
 383 884 l 1,37,-1
 383 337 l 2,38,39
 383 286 383 286 397.5 245 c 128,-1,40
 412 204 412 204 437 175.5 c 128,-1,41
 462 147 462 147 496.5 131.5 c 128,-1,42
 531 116 531 116 572 116 c 0,43,44
 607 116 607 116 644 131.5 c 128,-1,45
 681 147 681 147 711.5 175.5 c 128,-1,46
 742 204 742 204 761.5 245 c 128,-1,47
 781 286 781 286 781 337 c 2,48,-1
 781 376 l 1,49,-1
 641 376 l 1,50,-1
 641 520 l 1,0,-1
EndSplineSet
EndChar

StartChar: uni13C0
Encoding: 5056 5056 281
Width: 1405
GlyphClass: 2
Flags: W
LayerCount: 2
Fore
SplineSet
1260 98 m 1,0,1
 1044 -24 1044 -24 780 -24 c 0,2,3
 473 -24 473 -24 283.5 174 c 128,-1,4
 94 372 94 372 94 698 c 0,5,6
 94 1031 94 1031 304.5 1244.5 c 128,-1,7
 515 1458 515 1458 838 1458 c 0,8,9
 1072 1458 1072 1458 1231 1382 c 1,10,-1
 1231 1196 l 1,11,12
 1057 1306 1057 1306 819 1306 c 0,13,14
 578 1306 578 1306 424 1140 c 128,-1,15
 270 974 270 974 270 710 c 0,16,17
 270 438 270 438 413 282.5 c 128,-1,18
 556 127 556 127 801 127 c 0,19,20
 969 127 969 127 1092 194 c 1,21,-1
 1092 596 l 1,22,-1
 778 596 l 1,23,-1
 778 748 l 1,24,-1
 1260 748 l 1,25,-1
 1260 98 l 1,0,1
EndSplineSet
EndChar

StartChar: uni13C1
Encoding: 5057 5057 282
Width: 1491
GlyphClass: 2
Flags: W
LayerCount: 2
Fore
SplineSet
1325 0 m 1,0,-1
 1157 0 l 1,1,-1
 1157 836 l 2,2,3
 1157 962 1157 962 1141 1053 c 128,-1,4
 1125 1144 1125 1144 1090.5 1203.5 c 128,-1,5
 1056 1263 1056 1263 1001.5 1291 c 128,-1,6
 947 1319 947 1319 871 1319 c 0,7,8
 760 1319 760 1319 688 1235.5 c 128,-1,9
 616 1152 616 1152 581 991 c 0,10,11
 569 936 569 936 560 863.5 c 128,-1,12
 551 791 551 791 540.5 709 c 128,-1,13
 530 627 530 627 517 541 c 128,-1,14
 504 455 504 455 484 374 c 128,-1,15
 464 293 464 293 436 220.5 c 128,-1,16
 408 148 408 148 367.5 94 c 128,-1,17
 327 40 327 40 273 8.5 c 128,-1,18
 219 -23 219 -23 147 -23 c 0,19,20
 68 -23 68 -23 10 -2 c 1,21,-1
 10 156 l 1,22,23
 62 127 62 127 123 127 c 0,24,25
 181 127 181 127 221.5 167.5 c 128,-1,26
 262 208 262 208 290 276 c 128,-1,27
 318 344 318 344 336 434 c 128,-1,28
 354 524 354 524 367.5 623.5 c 128,-1,29
 381 723 381 723 393.5 826 c 128,-1,30
 406 929 406 929 423 1022 c 0,31,32
 442 1128 442 1128 483 1209.5 c 128,-1,33
 524 1291 524 1291 582.5 1346.5 c 128,-1,34
 641 1402 641 1402 716.5 1430 c 128,-1,35
 792 1458 792 1458 880 1458 c 0,36,37
 997 1458 997 1458 1081 1422 c 128,-1,38
 1165 1386 1165 1386 1219.5 1309.5 c 128,-1,39
 1274 1233 1274 1233 1299.5 1112.5 c 128,-1,40
 1325 992 1325 992 1325 823 c 2,41,-1
 1325 0 l 1,0,-1
EndSplineSet
EndChar

StartChar: uni13C2
Encoding: 5058 5058 283
Width: 1354
GlyphClass: 2
Flags: W
LayerCount: 2
Fore
SplineSet
1188 0 m 1,0,-1
 1020 0 l 1,1,-1
 1020 530 l 2,2,3
 1020 762 1020 762 775 762 c 0,4,5
 597 762 597 762 369 652 c 1,6,-1
 369 0 l 1,7,-1
 201 0 l 1,8,-1
 201 1434 l 1,9,-1
 369 1434 l 1,10,-1
 369 788 l 1,11,12
 598 910 598 910 795 910 c 0,13,14
 888 910 888 910 961 885 c 128,-1,15
 1034 860 1034 860 1084.5 812.5 c 128,-1,16
 1135 765 1135 765 1161.5 696 c 128,-1,17
 1188 627 1188 627 1188 538 c 2,18,-1
 1188 0 l 1,0,-1
EndSplineSet
EndChar

StartChar: uni13C3
Encoding: 5059 5059 284
Width: 1168
GlyphClass: 2
Flags: W
LayerCount: 2
Fore
SplineSet
1124 1394 m 1,0,-1
 284 152 l 1,1,-1
 1104 152 l 1,2,-1
 1104 0 l 1,3,-1
 33 0 l 1,4,-1
 33 47 l 1,5,-1
 866 1282 l 1,6,-1
 100 1282 l 1,7,-1
 100 1434 l 1,8,-1
 1124 1434 l 1,9,-1
 1124 1394 l 1,0,-1
EndSplineSet
EndChar

StartChar: uni13C4
Encoding: 5060 5060 285
Width: 1278
GlyphClass: 2
Flags: W
LayerCount: 2
Fore
SplineSet
40 1066 m 1,0,-1
 40 1210 l 1,1,-1
 178 1210 l 1,2,3
 194 1257 194 1257 230.5 1302 c 128,-1,4
 267 1347 267 1347 321 1381.5 c 128,-1,5
 375 1416 375 1416 447 1437 c 128,-1,6
 519 1458 519 1458 607 1458 c 0,7,8
 743 1458 743 1458 839 1420.5 c 128,-1,9
 935 1383 935 1383 995.5 1307.5 c 128,-1,10
 1056 1232 1056 1232 1084 1118.5 c 128,-1,11
 1112 1005 1112 1005 1112 854 c 2,12,-1
 1112 0 l 1,13,-1
 944 0 l 1,14,-1
 944 458 l 1,15,-1
 602 458 l 2,16,17
 492 458 492 458 412.5 479 c 128,-1,18
 333 500 333 500 281.5 540 c 128,-1,19
 230 580 230 580 205 637.5 c 128,-1,20
 180 695 180 695 180 768 c 1,21,-1
 40 768 l 1,22,-1
 40 912 l 1,23,-1
 488 912 l 1,24,-1
 488 768 l 1,25,-1
 348 768 l 1,26,27
 348 711 348 711 371 679.5 c 128,-1,28
 394 648 394 648 430 633.5 c 128,-1,29
 466 619 466 619 510.5 616 c 128,-1,30
 555 613 555 613 599 613 c 2,31,-1
 944 613 l 1,32,-1
 944 881 l 2,33,34
 944 1094 944 1094 865 1200.5 c 128,-1,35
 786 1307 786 1307 607 1307 c 0,36,37
 561 1307 561 1307 522.5 1297 c 128,-1,38
 484 1287 484 1287 454 1272.5 c 128,-1,39
 424 1258 424 1258 402.5 1241 c 128,-1,40
 381 1224 381 1224 369 1210 c 1,41,-1
 488 1210 l 1,42,-1
 488 1066 l 1,43,-1
 40 1066 l 1,0,-1
EndSplineSet
EndChar

StartChar: uni13C5
Encoding: 5061 5061 286
Width: 1763
GlyphClass: 2
Flags: W
LayerCount: 2
Fore
SplineSet
564 -24 m 0,0,1
 473 -24 473 -24 404 5 c 128,-1,2
 335 34 335 34 283.5 84.5 c 128,-1,3
 232 135 232 135 197.5 203.5 c 128,-1,4
 163 272 163 272 142.5 351 c 128,-1,5
 122 430 122 430 113 516 c 128,-1,6
 104 602 104 602 104 688 c 0,7,8
 104 878 104 878 137 1022 c 128,-1,9
 170 1166 170 1166 233 1263 c 128,-1,10
 296 1360 296 1360 387.5 1409 c 128,-1,11
 479 1458 479 1458 596 1458 c 0,12,13
 777 1458 777 1458 887 1341 c 128,-1,14
 997 1224 997 1224 1035 988 c 1,15,16
 1055 1007 1055 1007 1076.5 1019 c 128,-1,17
 1098 1031 1098 1031 1119.5 1037.5 c 128,-1,18
 1141 1044 1141 1044 1161 1046 c 128,-1,19
 1181 1048 1181 1048 1199 1048 c 0,20,21
 1253 1048 1253 1048 1287.5 1032.5 c 128,-1,22
 1322 1017 1322 1017 1341.5 990.5 c 128,-1,23
 1361 964 1361 964 1368 929 c 128,-1,24
 1375 894 1375 894 1375 855 c 0,25,26
 1375 825 1375 825 1372 794 c 128,-1,27
 1369 763 1369 763 1365.5 733 c 128,-1,28
 1362 703 1362 703 1359 675 c 128,-1,29
 1356 647 1356 647 1356 623 c 0,30,31
 1356 583 1356 583 1368.5 558.5 c 128,-1,32
 1381 534 1381 534 1416 534 c 0,33,34
 1461 534 1461 534 1491 554 c 128,-1,35
 1521 574 1521 574 1539.5 605 c 128,-1,36
 1558 636 1558 636 1565.5 674 c 128,-1,37
 1573 712 1573 712 1573 748 c 0,38,39
 1573 813 1573 813 1554 856.5 c 128,-1,40
 1535 900 1535 900 1512 926 c 0,41,42
 1486 957 1486 957 1452 975 c 1,43,-1
 1513 1076 l 1,44,45
 1573 1055 1573 1055 1621 1012 c 0,46,47
 1641 994 1641 994 1660.5 969 c 128,-1,48
 1680 944 1680 944 1695 911.5 c 128,-1,49
 1710 879 1710 879 1719.5 839 c 128,-1,50
 1729 799 1729 799 1729 750 c 0,51,52
 1729 669 1729 669 1702 603 c 128,-1,53
 1675 537 1675 537 1630 490 c 128,-1,54
 1585 443 1585 443 1527.5 417.5 c 128,-1,55
 1470 392 1470 392 1409 392 c 0,56,57
 1345 392 1345 392 1304.5 409.5 c 128,-1,58
 1264 427 1264 427 1241.5 456 c 128,-1,59
 1219 485 1219 485 1211 524 c 128,-1,60
 1203 563 1203 563 1203 605 c 0,61,62
 1203 635 1203 635 1206 665.5 c 128,-1,63
 1209 696 1209 696 1212 725 c 128,-1,64
 1215 754 1215 754 1218 780.5 c 128,-1,65
 1221 807 1221 807 1221 830 c 0,66,67
 1221 866 1221 866 1210 888 c 128,-1,68
 1199 910 1199 910 1169 910 c 0,69,70
 1140 910 1140 910 1120.5 897.5 c 128,-1,71
 1101 885 1101 885 1088 866 c 128,-1,72
 1075 847 1075 847 1068 824 c 128,-1,73
 1061 801 1061 801 1058 780.5 c 128,-1,74
 1055 760 1055 760 1054.5 744 c 128,-1,75
 1054 728 1054 728 1054 723 c 0,76,77
 1054 632 1054 632 1044.5 541 c 128,-1,78
 1035 450 1035 450 1012.5 367 c 128,-1,79
 990 284 990 284 953.5 212.5 c 128,-1,80
 917 141 917 141 862.5 88.5 c 128,-1,81
 808 36 808 36 734 6 c 128,-1,82
 660 -24 660 -24 564 -24 c 0,0,1
587 1306 m 0,83,84
 433 1306 433 1306 356.5 1156.5 c 128,-1,85
 280 1007 280 1007 280 696 c 0,86,87
 280 405 280 405 355 266 c 128,-1,88
 430 127 430 127 581 127 c 0,89,90
 729 127 729 127 803.5 268.5 c 128,-1,91
 878 410 878 410 878 706 c 0,92,93
 878 1013 878 1013 805 1159.5 c 128,-1,94
 732 1306 732 1306 587 1306 c 0,83,84
EndSplineSet
EndChar

StartChar: uni13C6
Encoding: 5062 5062 287
Width: 1073
GlyphClass: 2
Flags: W
LayerCount: 2
Fore
SplineSet
1036 0 m 1,0,-1
 41 0 l 1,1,-1
 41 152 l 1,2,-1
 454 152 l 1,3,-1
 454 1282 l 1,4,-1
 41 1282 l 1,5,-1
 41 1434 l 1,6,-1
 1036 1434 l 1,7,-1
 1036 1282 l 1,8,-1
 622 1282 l 1,9,-1
 622 152 l 1,10,-1
 1036 152 l 1,11,-1
 1036 0 l 1,0,-1
EndSplineSet
EndChar

StartChar: uni13C7
Encoding: 5063 5063 288
Width: 2079
GlyphClass: 2
Flags: W
LayerCount: 2
Fore
SplineSet
1064 733 m 1,0,-1
 1064 274 l 1,1,2
 1090 233 1090 233 1131 200 c 0,3,4
 1166 172 1166 172 1221 149.5 c 128,-1,5
 1276 127 1276 127 1355 127 c 0,6,7
 1482 127 1482 127 1569 171 c 128,-1,8
 1656 215 1656 215 1709 293.5 c 128,-1,9
 1762 372 1762 372 1785.5 479 c 128,-1,10
 1809 586 1809 586 1809 712 c 256,11,12
 1809 838 1809 838 1775.5 946.5 c 128,-1,13
 1742 1055 1742 1055 1675.5 1135 c 128,-1,14
 1609 1215 1609 1215 1510.5 1260.5 c 128,-1,15
 1412 1306 1412 1306 1283 1306 c 0,16,17
 1225 1306 1225 1306 1176.5 1295 c 128,-1,18
 1128 1284 1128 1284 1088 1265.5 c 128,-1,19
 1048 1247 1048 1247 1016 1223.5 c 128,-1,20
 984 1200 984 1200 959 1176 c 0,21,22
 901 1119 901 1119 866 1047 c 1,23,-1
 716 1118 l 1,24,25
 754 1213 754 1213 831 1288 c 0,26,27
 864 1320 864 1320 907.5 1350.5 c 128,-1,28
 951 1381 951 1381 1008 1405 c 128,-1,29
 1065 1429 1065 1429 1136.5 1443.5 c 128,-1,30
 1208 1458 1208 1458 1295 1458 c 0,31,32
 1451 1458 1451 1458 1578 1402 c 128,-1,33
 1705 1346 1705 1346 1795.5 1248.5 c 128,-1,34
 1886 1151 1886 1151 1935.5 1019 c 128,-1,35
 1985 887 1985 887 1985 735 c 0,36,37
 1985 572 1985 572 1948 433 c 128,-1,38
 1911 294 1911 294 1834 192.5 c 128,-1,39
 1757 91 1757 91 1637 33.5 c 128,-1,40
 1517 -24 1517 -24 1351 -24 c 0,41,42
 1259 -24 1259 -24 1188.5 0.5 c 128,-1,43
 1118 25 1118 25 1070 54 c 0,44,45
 1014 88 1014 88 972 132 c 1,46,47
 926 88 926 88 864 54 c 0,48,49
 811 25 811 25 735.5 0.5 c 128,-1,50
 660 -24 660 -24 564 -24 c 0,51,52
 453 -24 453 -24 364 12 c 128,-1,53
 275 48 275 48 212.5 113.5 c 128,-1,54
 150 179 150 179 117 271 c 128,-1,55
 84 363 84 363 84 476 c 0,56,57
 84 530 84 530 96.5 586.5 c 128,-1,58
 109 643 109 643 135.5 699.5 c 128,-1,59
 162 756 162 756 202.5 809 c 128,-1,60
 243 862 243 862 299 908 c 1,61,-1
 416 793 l 1,62,63
 329 726 329 726 290.5 643 c 128,-1,64
 252 560 252 560 252 462 c 0,65,66
 252 386 252 386 277 324.5 c 128,-1,67
 302 263 302 263 346.5 219 c 128,-1,68
 391 175 391 175 452 151 c 128,-1,69
 513 127 513 127 585 127 c 0,70,71
 660 127 660 127 718 149.5 c 128,-1,72
 776 172 776 172 816 200 c 0,73,74
 863 233 863 233 896 274 c 1,75,-1
 896 733 l 1,76,-1
 1064 733 l 1,0,-1
EndSplineSet
EndChar

StartChar: uni13C8
Encoding: 5064 5064 289
Width: 1826
GlyphClass: 2
Flags: W
LayerCount: 2
Fore
SplineSet
482 1320 m 0,0,1
 417 1320 417 1320 370 1295.5 c 128,-1,2
 323 1271 323 1271 292.5 1228 c 128,-1,3
 262 1185 262 1185 247 1126 c 128,-1,4
 232 1067 232 1067 232 998 c 1,5,-1
 64 998 l 1,6,7
 64 1052 64 1052 73.5 1107.5 c 128,-1,8
 83 1163 83 1163 104 1214 c 128,-1,9
 125 1265 125 1265 158 1309.5 c 128,-1,10
 191 1354 191 1354 237.5 1387 c 128,-1,11
 284 1420 284 1420 345.5 1439 c 128,-1,12
 407 1458 407 1458 484 1458 c 0,13,14
 569 1458 569 1458 653.5 1433 c 128,-1,15
 738 1408 738 1408 819 1358 c 1,16,17
 987 1458 987 1458 1192 1458 c 0,18,19
 1342 1458 1342 1458 1449.5 1421.5 c 128,-1,20
 1557 1385 1557 1385 1626.5 1325.5 c 128,-1,21
 1696 1266 1696 1266 1729 1190 c 128,-1,22
 1762 1114 1762 1114 1762 1035 c 0,23,24
 1762 958 1762 958 1732.5 885.5 c 128,-1,25
 1703 813 1703 813 1647 756 c 128,-1,26
 1591 699 1591 699 1510.5 664.5 c 128,-1,27
 1430 630 1430 630 1328 630 c 1,28,-1
 1328 798 l 1,29,30
 1388 798 1388 798 1434.5 818 c 128,-1,31
 1481 838 1481 838 1513.5 871 c 128,-1,32
 1546 904 1546 904 1562.5 946.5 c 128,-1,33
 1579 989 1579 989 1579 1035 c 0,34,35
 1579 1087 1579 1087 1556.5 1138 c 128,-1,36
 1534 1189 1534 1189 1487 1229.5 c 128,-1,37
 1440 1270 1440 1270 1367 1295 c 128,-1,38
 1294 1320 1294 1320 1194 1320 c 0,39,40
 1068 1320 1068 1320 952 1256 c 1,41,42
 1016 1194 1016 1194 1070.5 1114.5 c 128,-1,43
 1125 1035 1125 1035 1164.5 938 c 128,-1,44
 1204 841 1204 841 1226 727.5 c 128,-1,45
 1248 614 1248 614 1248 484 c 0,46,47
 1248 382 1248 382 1218.5 290 c 128,-1,48
 1189 198 1189 198 1134.5 128.5 c 128,-1,49
 1080 59 1080 59 1002.5 17.5 c 128,-1,50
 925 -24 925 -24 828 -24 c 256,51,52
 731 -24 731 -24 653.5 17.5 c 128,-1,53
 576 59 576 59 521.5 128.5 c 128,-1,54
 467 198 467 198 437.5 290 c 128,-1,55
 408 382 408 382 408 484 c 0,56,57
 408 614 408 614 427.5 728.5 c 128,-1,58
 447 843 447 843 484 940.5 c 128,-1,59
 521 1038 521 1038 572.5 1117.5 c 128,-1,60
 624 1197 624 1197 689 1259 c 1,61,62
 584 1320 584 1320 482 1320 c 0,0,1
584 474 m 0,63,64
 584 422 584 422 597.5 361.5 c 128,-1,65
 611 301 611 301 640.5 249 c 128,-1,66
 670 197 670 197 716 162.5 c 128,-1,67
 762 128 762 128 828 128 c 256,68,69
 894 128 894 128 940 162.5 c 128,-1,70
 986 197 986 197 1015.5 249 c 128,-1,71
 1045 301 1045 301 1058.5 361.5 c 128,-1,72
 1072 422 1072 422 1072 474 c 0,73,74
 1072 588 1072 588 1053 689 c 128,-1,75
 1034 790 1034 790 1000.5 876 c 128,-1,76
 967 962 967 962 921 1032 c 128,-1,77
 875 1102 875 1102 822 1156 c 1,78,79
 769 1102 769 1102 725 1032 c 128,-1,80
 681 962 681 962 649.5 876 c 128,-1,81
 618 790 618 790 601 689 c 128,-1,82
 584 588 584 588 584 474 c 0,63,64
EndSplineSet
EndChar

StartChar: uni13C9
Encoding: 5065 5065 290
Width: 2258
GlyphClass: 2
Flags: W
LayerCount: 2
Fore
SplineSet
1833 1064 m 1,0,1
 1853 1048 1853 1048 1876 1037 c 0,2,3
 1896 1026 1896 1026 1921 1018 c 128,-1,4
 1946 1010 1946 1010 1972 1010 c 0,5,6
 2030 1010 2030 1010 2065 1037 c 128,-1,7
 2100 1064 2100 1064 2100 1127 c 0,8,9
 2100 1162 2100 1162 2090 1187 c 128,-1,10
 2080 1212 2080 1212 2064 1227.5 c 128,-1,11
 2048 1243 2048 1243 2027 1250.5 c 128,-1,12
 2006 1258 2006 1258 1984 1258 c 0,13,14
 1944 1258 1944 1258 1909 1236.5 c 128,-1,15
 1874 1215 1874 1215 1839.5 1182 c 128,-1,16
 1805 1149 1805 1149 1768.5 1109.5 c 128,-1,17
 1732 1070 1732 1070 1689.5 1034 c 128,-1,18
 1647 998 1647 998 1596 970 c 128,-1,19
 1545 942 1545 942 1480 932 c 1,20,-1
 1160 0 l 1,21,-1
 975 0 l 1,22,-1
 554 1216 l 1,23,24
 527 1153 527 1153 497.5 1108.5 c 128,-1,25
 468 1064 468 1064 433 1036.5 c 128,-1,26
 398 1009 398 1009 355 996 c 128,-1,27
 312 983 312 983 258 983 c 0,28,29
 206 983 206 983 160.5 999 c 128,-1,30
 115 1015 115 1015 81.5 1046.5 c 128,-1,31
 48 1078 48 1078 29 1123.5 c 128,-1,32
 10 1169 10 1169 10 1228 c 0,33,34
 10 1273 10 1273 22 1310 c 128,-1,35
 34 1347 34 1347 49 1375 c 0,36,37
 66 1408 66 1408 88 1434 c 1,38,-1
 210 1388 l 1,39,40
 194 1368 194 1368 183 1345 c 0,41,42
 172 1325 172 1325 164 1300 c 128,-1,43
 156 1275 156 1275 156 1249 c 0,44,45
 156 1195 156 1195 185 1163 c 128,-1,46
 214 1131 214 1131 263 1131 c 0,47,48
 308 1131 308 1131 340 1154 c 128,-1,49
 372 1177 372 1177 396 1217.5 c 128,-1,50
 420 1258 420 1258 439 1312.5 c 128,-1,51
 458 1367 458 1367 475 1434 c 1,52,-1
 662 1434 l 1,53,-1
 1068 170 l 1,54,-1
 1322 942 l 1,55,56
 1278 953 1278 953 1232.5 975.5 c 128,-1,57
 1187 998 1187 998 1150 1034 c 128,-1,58
 1113 1070 1113 1070 1089.5 1121 c 128,-1,59
 1066 1172 1066 1172 1066 1240 c 0,60,61
 1066 1285 1066 1285 1083 1325 c 128,-1,62
 1100 1365 1100 1365 1131.5 1394.5 c 128,-1,63
 1163 1424 1163 1424 1207.5 1441.5 c 128,-1,64
 1252 1459 1252 1459 1306 1459 c 0,65,66
 1362 1459 1362 1459 1407.5 1443.5 c 128,-1,67
 1453 1428 1453 1428 1485 1396.5 c 128,-1,68
 1517 1365 1517 1365 1534 1318.5 c 128,-1,69
 1551 1272 1551 1272 1551 1209 c 0,70,71
 1551 1186 1551 1186 1545 1156.5 c 128,-1,72
 1539 1127 1539 1127 1531 1095 c 1,73,74
 1570 1114 1570 1114 1604.5 1144.5 c 128,-1,75
 1639 1175 1639 1175 1672 1208.5 c 128,-1,76
 1705 1242 1705 1242 1738 1276 c 128,-1,77
 1771 1310 1771 1310 1808.5 1337.5 c 128,-1,78
 1846 1365 1846 1365 1889 1382 c 128,-1,79
 1932 1399 1932 1399 1984 1399 c 0,80,81
 2044 1399 2044 1399 2093 1379 c 128,-1,82
 2142 1359 2142 1359 2176.5 1324 c 128,-1,83
 2211 1289 2211 1289 2229.5 1239.5 c 128,-1,84
 2248 1190 2248 1190 2248 1132 c 0,85,86
 2248 1070 2248 1070 2230 1020 c 128,-1,87
 2212 970 2212 970 2179 935.5 c 128,-1,88
 2146 901 2146 901 2099 882.5 c 128,-1,89
 2052 864 2052 864 1993 864 c 0,90,91
 1948 864 1948 864 1911 876 c 128,-1,92
 1874 888 1874 888 1846 903 c 0,93,94
 1813 920 1813 920 1787 942 c 1,95,-1
 1833 1064 l 1,0,1
1375 1103 m 2,96,97
 1382 1125 1382 1125 1388 1153 c 128,-1,98
 1394 1181 1394 1181 1394 1207 c 0,99,100
 1394 1261 1394 1261 1367.5 1292.5 c 128,-1,101
 1341 1324 1341 1324 1303 1324 c 0,102,103
 1283 1324 1283 1324 1267.5 1315.5 c 128,-1,104
 1252 1307 1252 1307 1241 1294 c 128,-1,105
 1230 1281 1230 1281 1224.5 1264.5 c 128,-1,106
 1219 1248 1219 1248 1219 1232 c 0,107,108
 1219 1195 1219 1195 1231.5 1167.5 c 128,-1,109
 1244 1140 1244 1140 1264.5 1121 c 128,-1,110
 1285 1102 1285 1102 1311 1090.5 c 128,-1,111
 1337 1079 1337 1079 1365 1074 c 1,112,-1
 1375 1103 l 2,96,97
EndSplineSet
EndChar

StartChar: uni13CA
Encoding: 5066 5066 291
Width: 2130
GlyphClass: 2
Flags: W
LayerCount: 2
Fore
SplineSet
1388 910 m 0,0,1
 1307 910 1307 910 1240.5 879 c 128,-1,2
 1174 848 1174 848 1127.5 794.5 c 128,-1,3
 1081 741 1081 741 1055.5 670 c 128,-1,4
 1030 599 1030 599 1030 518 c 0,5,6
 1030 438 1030 438 1053 367 c 128,-1,7
 1076 296 1076 296 1122 242.5 c 128,-1,8
 1168 189 1168 189 1236.5 158 c 128,-1,9
 1305 127 1305 127 1396 127 c 0,10,11
 1515 127 1515 127 1602.5 172 c 128,-1,12
 1690 217 1690 217 1747 294 c 128,-1,13
 1804 371 1804 371 1832 473.5 c 128,-1,14
 1860 576 1860 576 1860 692 c 0,15,16
 1860 818 1860 818 1825 929.5 c 128,-1,17
 1790 1041 1790 1041 1721.5 1125 c 128,-1,18
 1653 1209 1653 1209 1553 1257.5 c 128,-1,19
 1453 1306 1453 1306 1324 1306 c 1,20,-1
 1324 1458 l 1,21,22
 1490 1458 1490 1458 1622 1397.5 c 128,-1,23
 1754 1337 1754 1337 1846 1234.5 c 128,-1,24
 1938 1132 1938 1132 1987 997.5 c 128,-1,25
 2036 863 2036 863 2036 715 c 0,26,27
 2036 564 2036 564 1997.5 430 c 128,-1,28
 1959 296 1959 296 1880 195 c 128,-1,29
 1801 94 1801 94 1679.5 35 c 128,-1,30
 1558 -24 1558 -24 1392 -24 c 0,31,32
 1282 -24 1282 -24 1189.5 11 c 128,-1,33
 1097 46 1097 46 1027 109 c 1,34,35
 951 46 951 46 850.5 11 c 128,-1,36
 750 -24 750 -24 622 -24 c 0,37,38
 506 -24 506 -24 408.5 15.5 c 128,-1,39
 311 55 311 55 240.5 125 c 128,-1,40
 170 195 170 195 131 291 c 128,-1,41
 92 387 92 387 92 500 c 0,42,43
 92 622 92 622 129.5 723 c 128,-1,44
 167 824 167 824 236 896 c 128,-1,45
 305 968 305 968 403 1008 c 128,-1,46
 501 1048 501 1048 623 1048 c 1,47,-1
 623 900 l 1,48,49
 542 900 542 900 475 870.5 c 128,-1,50
 408 841 408 841 360 789.5 c 128,-1,51
 312 738 312 738 286 668.5 c 128,-1,52
 260 599 260 599 260 518 c 0,53,54
 260 438 260 438 283 367 c 128,-1,55
 306 296 306 296 352 242.5 c 128,-1,56
 398 189 398 189 466.5 158 c 128,-1,57
 535 127 535 127 626 127 c 0,58,59
 722 127 722 127 796.5 155.5 c 128,-1,60
 871 184 871 184 927 236 c 1,61,62
 895 294 895 294 878.5 360 c 128,-1,63
 862 426 862 426 862 500 c 0,64,65
 862 622 862 622 899.5 723 c 128,-1,66
 937 824 937 824 1006.5 896 c 128,-1,67
 1076 968 1076 968 1174 1008 c 128,-1,68
 1272 1048 1272 1048 1394 1048 c 0,69,70
 1527 1048 1527 1048 1632 998 c 1,71,-1
 1632 830 l 1,72,73
 1517 910 1517 910 1388 910 c 0,0,1
EndSplineSet
EndChar

StartChar: uni13CB
Encoding: 5067 5067 292
Width: 1143
GlyphClass: 2
Flags: W
LayerCount: 2
Fore
SplineSet
647 831 m 1,0,-1
 647 692 l 1,1,-1
 618 692 l 2,2,3
 535 692 535 692 471 671.5 c 128,-1,4
 407 651 407 651 363.5 613 c 128,-1,5
 320 575 320 575 297.5 520 c 128,-1,6
 275 465 275 465 275 396 c 0,7,8
 275 325 275 325 302.5 272.5 c 128,-1,9
 330 220 330 220 375.5 186 c 128,-1,10
 421 152 421 152 479 135.5 c 128,-1,11
 537 119 537 119 598 119 c 0,12,13
 691 119 691 119 749 136 c 128,-1,14
 807 153 807 153 840 179.5 c 128,-1,15
 873 206 873 206 884.5 239 c 128,-1,16
 896 272 896 272 896 304 c 0,17,18
 896 326 896 326 885.5 351 c 128,-1,19
 875 376 875 376 855 397 c 128,-1,20
 835 418 835 418 805 432 c 128,-1,21
 775 446 775 446 735 446 c 1,22,-1
 735 594 l 1,23,24
 823 594 823 594 884.5 566.5 c 128,-1,25
 946 539 946 539 985 496 c 128,-1,26
 1024 453 1024 453 1041.5 401.5 c 128,-1,27
 1059 350 1059 350 1059 301 c 0,28,29
 1059 248 1059 248 1038 190.5 c 128,-1,30
 1017 133 1017 133 965 85.5 c 128,-1,31
 913 38 913 38 825 7 c 128,-1,32
 737 -24 737 -24 604 -24 c 0,33,34
 510 -24 510 -24 419 1.5 c 128,-1,35
 328 27 328 27 256 80 c 128,-1,36
 184 133 184 133 140 214 c 128,-1,37
 96 295 96 295 96 406 c 0,38,39
 96 471 96 471 120.5 534 c 128,-1,40
 145 597 145 597 187 647 c 128,-1,41
 229 697 229 697 286 730.5 c 128,-1,42
 343 764 343 764 408 770 c 1,43,-1
 408 774 l 1,44,45
 347 792 347 792 298.5 822 c 128,-1,46
 250 852 250 852 216 894 c 128,-1,47
 182 936 182 936 164 991 c 128,-1,48
 146 1046 146 1046 146 1116 c 0,49,50
 146 1206 146 1206 181.5 1271 c 128,-1,51
 217 1336 217 1336 277.5 1377.5 c 128,-1,52
 338 1419 338 1419 417.5 1438.5 c 128,-1,53
 497 1458 497 1458 584 1458 c 0,54,55
 791 1458 791 1458 948 1370 c 1,56,-1
 948 1200 l 1,57,58
 778 1313 778 1313 598 1313 c 0,59,60
 540 1313 540 1313 490.5 1299.5 c 128,-1,61
 441 1286 441 1286 404.5 1258 c 128,-1,62
 368 1230 368 1230 347 1187 c 128,-1,63
 326 1144 326 1144 326 1085 c 0,64,65
 326 1022 326 1022 349 974.5 c 128,-1,66
 372 927 372 927 412.5 895 c 128,-1,67
 453 863 453 863 509 847 c 128,-1,68
 565 831 565 831 630 831 c 2,69,-1
 647 831 l 1,0,-1
EndSplineSet
EndChar

StartChar: uni13CC
Encoding: 5068 5068 293
Width: 1407
GlyphClass: 2
Flags: W
LayerCount: 2
Fore
SplineSet
1237 580 m 2,0,1
 1237 -24 1237 -24 692 -24 c 0,2,3
 170 -24 170 -24 170 557 c 2,4,-1
 170 1434 l 1,5,-1
 338 1434 l 1,6,-1
 338 805 l 1,7,-1
 1069 805 l 1,8,-1
 1069 1434 l 1,9,-1
 1237 1434 l 1,10,-1
 1237 580 l 2,0,1
710 127 m 0,11,12
 1069 127 1069 127 1069 553 c 2,13,-1
 1069 654 l 1,14,-1
 338 654 l 1,15,-1
 338 568 l 2,16,17
 338 127 338 127 710 127 c 0,11,12
EndSplineSet
EndChar

StartChar: uni13CD
Encoding: 5069 5069 294
Width: 2019
GlyphClass: 2
Flags: W
LayerCount: 2
Fore
SplineSet
606 1118 m 1,0,1
 647 1213 647 1213 724 1288 c 0,2,3
 757 1320 757 1320 801 1350.5 c 128,-1,4
 845 1381 845 1381 902 1405 c 128,-1,5
 959 1429 959 1429 1029 1443.5 c 128,-1,6
 1099 1458 1099 1458 1185 1458 c 0,7,8
 1289 1458 1289 1458 1384 1431.5 c 128,-1,9
 1479 1405 1479 1405 1561.5 1355.5 c 128,-1,10
 1644 1306 1644 1306 1711 1235.5 c 128,-1,11
 1778 1165 1778 1165 1825.5 1078 c 128,-1,12
 1873 991 1873 991 1899 889.5 c 128,-1,13
 1925 788 1925 788 1925 675 c 0,14,15
 1925 528 1925 528 1891 400.5 c 128,-1,16
 1857 273 1857 273 1792 178.5 c 128,-1,17
 1727 84 1727 84 1632 30 c 128,-1,18
 1537 -24 1537 -24 1415 -24 c 0,19,20
 1322 -24 1322 -24 1250 2.5 c 128,-1,21
 1178 29 1178 29 1127.5 78 c 128,-1,22
 1077 127 1077 127 1047.5 195.5 c 128,-1,23
 1018 264 1018 264 1011 348 c 1,24,-1
 755 348 l 1,25,26
 747 277 747 277 721.5 210 c 128,-1,27
 696 143 696 143 653.5 91 c 128,-1,28
 611 39 611 39 550.5 7.5 c 128,-1,29
 490 -24 490 -24 411 -24 c 0,30,31
 323 -24 323 -24 258 16 c 128,-1,32
 193 56 193 56 150 119 c 128,-1,33
 107 182 107 182 85.5 260.5 c 128,-1,34
 64 339 64 339 64 417 c 256,35,36
 64 495 64 495 85.5 572.5 c 128,-1,37
 107 650 107 650 150 712.5 c 128,-1,38
 193 775 193 775 258 814 c 128,-1,39
 323 853 323 853 411 853 c 0,40,41
 488 853 488 853 548 822.5 c 128,-1,42
 608 792 608 792 650.5 741.5 c 128,-1,43
 693 691 693 691 719 626 c 128,-1,44
 745 561 745 561 754 492 c 1,45,-1
 1008 492 l 1,46,-1
 1008 709 l 1,47,-1
 868 709 l 1,48,-1
 868 853 l 1,49,-1
 1316 853 l 1,50,-1
 1316 709 l 1,51,-1
 1176 709 l 1,52,-1
 1176 421 l 2,53,54
 1176 353 1176 353 1191 297 c 128,-1,55
 1206 241 1206 241 1236.5 201.5 c 128,-1,56
 1267 162 1267 162 1312.5 140.5 c 128,-1,57
 1358 119 1358 119 1419 119 c 0,58,59
 1503 119 1503 119 1565 162.5 c 128,-1,60
 1627 206 1627 206 1668 279 c 128,-1,61
 1709 352 1709 352 1729 448.5 c 128,-1,62
 1749 545 1749 545 1749 652 c 0,63,64
 1749 797 1749 797 1707.5 917 c 128,-1,65
 1666 1037 1666 1037 1590.5 1123.5 c 128,-1,66
 1515 1210 1515 1210 1408.5 1258 c 128,-1,67
 1302 1306 1302 1306 1173 1306 c 0,68,69
 1116 1306 1116 1306 1068 1295 c 128,-1,70
 1020 1284 1020 1284 980 1265.5 c 128,-1,71
 940 1247 940 1247 908 1223.5 c 128,-1,72
 876 1200 876 1200 851 1176 c 0,73,74
 792 1119 792 1119 756 1047 c 1,75,-1
 606 1118 l 1,0,1
591 413 m 256,76,77
 591 469 591 469 580 522 c 128,-1,78
 569 575 569 575 547 616 c 128,-1,79
 525 657 525 657 491.5 681.5 c 128,-1,80
 458 706 458 706 412 706 c 256,81,82
 366 706 366 706 332 682 c 128,-1,83
 298 658 298 658 276 617.5 c 128,-1,84
 254 577 254 577 243 524.5 c 128,-1,85
 232 472 232 472 232 416 c 0,86,87
 232 359 232 359 243 306 c 128,-1,88
 254 253 254 253 276 212.5 c 128,-1,89
 298 172 298 172 332 147.5 c 128,-1,90
 366 123 366 123 412 123 c 256,91,92
 458 123 458 123 491.5 147 c 128,-1,93
 525 171 525 171 547 211.5 c 128,-1,94
 569 252 569 252 580 304.5 c 128,-1,95
 591 357 591 357 591 413 c 256,76,77
EndSplineSet
EndChar

StartChar: uni13CE
Encoding: 5070 5070 295
Width: 1104
GlyphClass: 2
Flags: W
LayerCount: 2
Fore
SplineSet
1034 381 m 1,0,-1
 850 381 l 1,1,-1
 850 0 l 1,2,-1
 688 0 l 1,3,-1
 688 381 l 1,4,-1
 14 381 l 1,5,-1
 14 488 l 1,6,-1
 652 1434 l 1,7,-1
 850 1434 l 1,8,-1
 850 514 l 1,9,-1
 1034 514 l 1,10,-1
 1034 381 l 1,0,-1
688 514 m 1,11,-1
 688 1134 l 2,12,13
 688 1200 688 1200 692 1282 c 1,14,-1
 688 1282 l 1,15,16
 674 1246 674 1246 633 1172 c 1,17,-1
 192 514 l 1,18,-1
 688 514 l 1,11,-1
EndSplineSet
EndChar

StartChar: uni13CF
Encoding: 5071 5071 296
Width: 1180
GlyphClass: 2
Flags: W
LayerCount: 2
Fore
SplineSet
188 0 m 1,0,-1
 188 1434 l 1,1,-1
 356 1434 l 1,2,-1
 356 826 l 1,3,-1
 628 826 l 2,4,5
 842 826 842 826 961 722.5 c 128,-1,6
 1080 619 1080 619 1080 428 c 0,7,8
 1080 230 1080 230 955 115 c 128,-1,9
 830 0 830 0 614 0 c 2,10,-1
 188 0 l 1,0,-1
356 674 m 1,11,-1
 356 152 l 1,12,-1
 592 152 l 2,13,14
 741 152 741 152 822 222 c 128,-1,15
 903 292 903 292 903 418 c 0,16,17
 903 674 903 674 592 674 c 2,18,-1
 356 674 l 1,11,-1
EndSplineSet
EndChar

StartChar: uni13D0
Encoding: 5072 5072 297
Width: 1014
GlyphClass: 2
Flags: W
LayerCount: 2
Fore
SplineSet
729 748 m 0,0,1
 703 748 703 748 665.5 733 c 128,-1,2
 628 718 628 718 578 689 c 1,3,-1
 578 144 l 1,4,-1
 718 144 l 1,5,-1
 718 0 l 1,6,-1
 270 0 l 1,7,-1
 270 144 l 1,8,-1
 410 144 l 1,9,-1
 410 598 l 1,10,11
 378 586 378 586 346 579 c 128,-1,12
 314 572 314 572 285 572 c 0,13,14
 222 572 222 572 173.5 590 c 128,-1,15
 125 608 125 608 92 641 c 128,-1,16
 59 674 59 674 41.5 720 c 128,-1,17
 24 766 24 766 24 822 c 0,18,19
 24 848 24 848 28.5 872 c 128,-1,20
 33 896 33 896 38 914 c 0,21,22
 44 935 44 935 53 952 c 1,23,-1
 209 952 l 1,24,25
 195 932 195 932 184 911 c 0,26,27
 174 893 174 893 166.5 869.5 c 128,-1,28
 159 846 159 846 159 822 c 0,29,30
 159 766 159 766 190 736 c 128,-1,31
 221 706 221 706 285 706 c 0,32,33
 308 706 308 706 340.5 715.5 c 128,-1,34
 373 725 373 725 410 745 c 1,35,-1
 410 1290 l 1,36,-1
 270 1290 l 1,37,-1
 270 1434 l 1,38,-1
 718 1434 l 1,39,-1
 718 1290 l 1,40,-1
 578 1290 l 1,41,-1
 578 844 l 1,42,43
 663 882 663 882 729 882 c 0,44,45
 792 882 792 882 840.5 864 c 128,-1,46
 889 846 889 846 922 813 c 128,-1,47
 955 780 955 780 972.5 734 c 128,-1,48
 990 688 990 688 990 632 c 0,49,50
 990 605 990 605 985 581.5 c 128,-1,51
 980 558 980 558 975 540 c 0,52,53
 969 519 969 519 961 502 c 1,54,-1
 805 502 l 1,55,56
 819 522 819 522 830 543 c 0,57,58
 839 561 839 561 847 584 c 128,-1,59
 855 607 855 607 855 632 c 0,60,61
 855 688 855 688 824 718 c 128,-1,62
 793 748 793 748 729 748 c 0,0,1
EndSplineSet
EndChar

StartChar: uni13D1
Encoding: 5073 5073 298
Width: 1416
GlyphClass: 2
Flags: W
LayerCount: 2
Fore
SplineSet
1258 1097 m 1,0,1
 1254 1136 1254 1136 1238 1167 c 0,2,3
 1231 1180 1231 1180 1221 1193 c 128,-1,4
 1211 1206 1211 1206 1197 1216 c 128,-1,5
 1183 1226 1183 1226 1164.5 1232 c 128,-1,6
 1146 1238 1146 1238 1122 1238 c 0,7,8
 1076 1238 1076 1238 1043 1210.5 c 128,-1,9
 1010 1183 1010 1183 980.5 1141 c 128,-1,10
 951 1099 951 1099 920 1051 c 128,-1,11
 889 1003 889 1003 846 961 c 128,-1,12
 803 919 803 919 744 891.5 c 128,-1,13
 685 864 685 864 600 864 c 0,14,15
 576 864 576 864 553.5 865.5 c 128,-1,16
 531 867 531 867 508 871 c 1,17,18
 469 821 469 821 430 767.5 c 128,-1,19
 391 714 391 714 360 657 c 128,-1,20
 329 600 329 600 309.5 538 c 128,-1,21
 290 476 290 476 290 409 c 0,22,23
 290 349 290 349 307 297.5 c 128,-1,24
 324 246 324 246 359 208 c 128,-1,25
 394 170 394 170 447.5 148.5 c 128,-1,26
 501 127 501 127 574 127 c 0,27,28
 646 127 646 127 699 149.5 c 128,-1,29
 752 172 752 172 786.5 209.5 c 128,-1,30
 821 247 821 247 838 295.5 c 128,-1,31
 855 344 855 344 855 396 c 0,32,33
 855 442 855 442 840 481.5 c 128,-1,34
 825 521 825 521 796.5 550 c 128,-1,35
 768 579 768 579 727 596 c 128,-1,36
 686 613 686 613 634 613 c 1,37,-1
 634 781 l 1,38,39
 726 781 726 781 801 749.5 c 128,-1,40
 876 718 876 718 928.5 664.5 c 128,-1,41
 981 611 981 611 1009.5 541.5 c 128,-1,42
 1038 472 1038 472 1038 396 c 0,43,44
 1038 317 1038 317 1008.5 241.5 c 128,-1,45
 979 166 979 166 921 107 c 128,-1,46
 863 48 863 48 777 12 c 128,-1,47
 691 -24 691 -24 578 -24 c 0,48,49
 463 -24 463 -24 376.5 9.5 c 128,-1,50
 290 43 290 43 231.5 101.5 c 128,-1,51
 173 160 173 160 143.5 239.5 c 128,-1,52
 114 319 114 319 114 412 c 0,53,54
 114 495 114 495 137.5 566.5 c 128,-1,55
 161 638 161 638 198 700.5 c 128,-1,56
 235 763 235 763 279.5 817.5 c 128,-1,57
 324 872 324 872 365 920 c 1,58,59
 279 966 279 966 226.5 1046.5 c 128,-1,60
 174 1127 174 1127 174 1240 c 0,61,62
 174 1285 174 1285 191 1325 c 128,-1,63
 208 1365 208 1365 239.5 1394.5 c 128,-1,64
 271 1424 271 1424 315.5 1441.5 c 128,-1,65
 360 1459 360 1459 414 1459 c 0,66,67
 470 1459 470 1459 515.5 1443.5 c 128,-1,68
 561 1428 561 1428 593 1396.5 c 128,-1,69
 625 1365 625 1365 642 1318.5 c 128,-1,70
 659 1272 659 1272 659 1209 c 0,71,72
 659 1153 659 1153 640.5 1101.5 c 128,-1,73
 622 1050 622 1050 593 999 c 1,74,75
 662 999 662 999 705 1027 c 128,-1,76
 748 1055 748 1055 781.5 1097.5 c 128,-1,77
 815 1140 815 1140 845 1189 c 128,-1,78
 875 1238 875 1238 912 1280.5 c 128,-1,79
 949 1323 949 1323 999 1351 c 128,-1,80
 1049 1379 1049 1379 1122 1379 c 0,81,82
 1170 1379 1170 1379 1208 1367 c 128,-1,83
 1246 1355 1246 1355 1275 1335.5 c 128,-1,84
 1304 1316 1304 1316 1325 1291 c 128,-1,85
 1346 1266 1346 1266 1361 1240 c 0,86,87
 1395 1179 1395 1179 1406 1097 c 1,88,-1
 1258 1097 l 1,0,1
502 1207 m 0,89,90
 502 1261 502 1261 475.5 1292.5 c 128,-1,91
 449 1324 449 1324 411 1324 c 0,92,93
 391 1324 391 1324 375.5 1315.5 c 128,-1,94
 360 1307 360 1307 349 1294 c 128,-1,95
 338 1281 338 1281 332.5 1264.5 c 128,-1,96
 327 1248 327 1248 327 1232 c 0,97,98
 327 1169 327 1169 354 1114.5 c 128,-1,99
 381 1060 381 1060 444 1029 c 1,100,101
 470 1072 470 1072 486 1115.5 c 128,-1,102
 502 1159 502 1159 502 1207 c 0,89,90
EndSplineSet
EndChar

StartChar: uni13D2
Encoding: 5074 5074 299
Width: 1225
GlyphClass: 2
Flags: W
LayerCount: 2
Fore
SplineSet
188 0 m 1,0,-1
 188 1434 l 1,1,-1
 616 1434 l 2,2,3
 710 1434 710 1434 789.5 1410.5 c 128,-1,4
 869 1387 869 1387 927.5 1339 c 128,-1,5
 986 1291 986 1291 1019 1219.5 c 128,-1,6
 1052 1148 1052 1148 1052 1052 c 0,7,8
 1052 996 1052 996 1039.5 949 c 128,-1,9
 1027 902 1027 902 1007 864 c 128,-1,10
 987 826 987 826 961.5 796 c 128,-1,11
 936 766 936 766 909 743 c 0,12,13
 847 689 847 689 767 658 c 1,14,-1
 1216 0 l 1,15,-1
 1016 0 l 1,16,-1
 611 610 l 1,17,-1
 611 762 l 1,18,19
 664 762 664 762 712 781 c 128,-1,20
 760 800 760 800 796.5 835.5 c 128,-1,21
 833 871 833 871 854.5 922 c 128,-1,22
 876 973 876 973 876 1038 c 0,23,24
 876 1153 876 1153 802 1217.5 c 128,-1,25
 728 1282 728 1282 586 1282 c 2,26,-1
 356 1282 l 1,27,-1
 356 0 l 1,28,-1
 188 0 l 1,0,-1
EndSplineSet
EndChar

StartChar: uni13D3
Encoding: 5075 5075 300
Width: 1097
GlyphClass: 2
Flags: W
LayerCount: 2
Fore
SplineSet
176 1434 m 1,0,-1
 345 1434 l 1,1,-1
 345 419 l 2,2,3
 345 359 345 359 358.5 306 c 128,-1,4
 372 253 372 253 402.5 213.5 c 128,-1,5
 433 174 433 174 481.5 150.5 c 128,-1,6
 530 127 530 127 599 127 c 256,7,8
 668 127 668 127 716 150.5 c 128,-1,9
 764 174 764 174 794 213 c 128,-1,10
 824 252 824 252 837 301.5 c 128,-1,11
 850 351 850 351 850 403 c 1,12,-1
 1033 403 l 1,13,14
 1033 324 1033 324 1007 247.5 c 128,-1,15
 981 171 981 171 927.5 110.5 c 128,-1,16
 874 50 874 50 793 13 c 128,-1,17
 712 -24 712 -24 603 -24 c 0,18,19
 491 -24 491 -24 410.5 11 c 128,-1,20
 330 46 330 46 278 106.5 c 128,-1,21
 226 167 226 167 201 248 c 128,-1,22
 176 329 176 329 176 422 c 2,23,-1
 176 1434 l 1,0,-1
EndSplineSet
EndChar

StartChar: uni13D4
Encoding: 5076 5076 301
Width: 1666
GlyphClass: 2
Flags: W
LayerCount: 2
Fore
SplineSet
25 1434 m 1,0,-1
 210 1434 l 1,1,-1
 579 190 l 1,2,-1
 752 788 l 1,3,-1
 545 1434 l 1,4,-1
 730 1434 l 1,5,-1
 836 1076 l 1,6,-1
 939 1432 l 1,7,-1
 1121 1432 l 1,8,-1
 921 789 l 1,9,-1
 1099 190 l 1,10,-1
 1459 1432 l 1,11,-1
 1641 1432 l 1,12,-1
 1196 0 l 1,13,-1
 1005 0 l 1,14,-1
 838 520 l 1,15,-1
 676 0 l 1,16,-1
 485 0 l 1,17,-1
 25 1434 l 1,0,-1
EndSplineSet
EndChar

